SplineFontDB: 3.0
FontName: OxygenSans-Bold
FullName: OxygenSans Bold
FamilyName: OxygenSans
Weight: Bold
Copyright: Copyright 2009-2012 vernon adams.
Version: 1.001;PS (version unavailable);hotconv 1.0.57;makeotf.lib2.0.21895 DEVELOPMENT
ItalicAngle: 0
UnderlinePosition: 0
UnderlineWidth: 0
Ascent: 1638
Descent: 410
sfntRevision: 0x00010041
LayerCount: 2
Layer: 0 1 "Back"  1
Layer: 1 1 "Fore"  0
XUID: [1021 332 1330122705 10728108]
FSType: 8
OS2Version: 1
OS2_WeightWidthSlopeOnly: 0
OS2_UseTypoMetrics: 1
CreationTime: 1353361428
ModificationTime: 1353361620
PfmFamily: 81
TTFWeight: 700
TTFWidth: 5
LineGap: 0
VLineGap: 0
Panose: 0 0 0 0 0 0 0 0 0 0
OS2TypoAscent: 2035
OS2TypoAOffset: 0
OS2TypoDescent: -672
OS2TypoDOffset: 0
OS2TypoLinegap: 0
OS2WinAscent: 2035
OS2WinAOffset: 0
OS2WinDescent: 672
OS2WinDOffset: 0
HheadAscent: 2035
HheadAOffset: 0
HheadDescent: -672
HheadDOffset: 0
OS2SubXSize: 1331
OS2SubYSize: 1228
OS2SubXOff: 0
OS2SubYOff: 153
OS2SupXSize: 1331
OS2SupYSize: 1228
OS2SupXOff: 0
OS2SupYOff: 716
OS2StrikeYSize: 50
OS2StrikeYPos: 610
OS2Vendor: 'newt'
OS2CodePages: 0000029f.00000001
OS2UnicodeRanges: 0000008f.00000000.00000000.00000000
DEI: 91125
ShortTable: maxp 16
  1
  0
  628
  117
  5
  0
  0
  2
  0
  1
  1
  0
  64
  0
  0
  0
EndShort
LangName: 1033 "" "" "" "1.001;newt;OxygenSans-Bold" "" "Version 1.001;PS (version unavailable);hotconv 1.0.57;makeotf.lib2.0.21895 DEVELOPMENT" "" "" "" "Vernon Adams" "" "" "" "" "http://scripts.sil.org/OFL" 
GaspTable: 1 65535 2 0
Encoding: UnicodeBmp
Compacted: 1
UnicodeInterp: none
NameList: Adobe Glyph List
DisplaySize: -48
AntiAlias: 1
FitToEm: 1
WinInfo: 0 25 12
BeginChars: 65540 628

StartChar: .notdef
Encoding: 65536 -1 0
Width: 1024
Flags: W
LayerCount: 2
Fore
SplineSet
102 -500 m 1,0,-1
 102 1501 l 1,1,-1
 922 1501 l 1,2,-1
 922 -500 l 1,3,-1
 102 -500 l 1,0,-1
204 -398 m 1,4,-1
 820 -398 l 1,5,-1
 820 1399 l 1,6,-1
 204 1399 l 1,7,-1
 204 -398 l 1,4,-1
EndSplineSet
EndChar

StartChar: exclam
Encoding: 33 33 4
Width: 629
GlyphClass: 2
Flags: W
LayerCount: 2
Fore
SplineSet
442 1127 m 1,0,-1
 385 418 l 1,1,-1
 272 418 l 1,2,-1
 208 1127 l 1,3,-1
 208 1335 l 1,4,-1
 442 1335 l 1,5,-1
 442 1127 l 1,0,-1
321 -7 m 0,6,7
 259 -7 259 -7 216.5 36.5 c 128,-1,8
 174 80 174 80 174 139 c 0,9,10
 174 199 174 199 216.5 242.5 c 128,-1,11
 259 286 259 286 321 286 c 0,12,13
 382 286 382 286 424.5 242.5 c 128,-1,14
 467 199 467 199 467 139 c 0,15,16
 467 80 467 80 424.5 36.5 c 128,-1,17
 382 -7 382 -7 321 -7 c 0,6,7
EndSplineSet
EndChar

StartChar: quotedbl
Encoding: 34 34 5
Width: 762
GlyphClass: 2
Flags: W
LayerCount: 2
Fore
SplineSet
138 837 m 1,0,-1
 106 1336 l 1,1,-1
 327 1336 l 1,2,-1
 299 837 l 1,3,-1
 138 837 l 1,0,-1
516 837 m 1,4,-1
 484 1336 l 1,5,-1
 705 1336 l 1,6,-1
 677 837 l 1,7,-1
 516 837 l 1,4,-1
EndSplineSet
EndChar

StartChar: numbersign
Encoding: 35 35 6
Width: 1212
GlyphClass: 2
Flags: W
LayerCount: 2
Fore
SplineSet
350 547 m 1,0,-1
 395 808 l 1,1,-1
 209 808 l 1,2,-1
 216 990 l 1,3,-1
 427 990 l 1,4,-1
 497 1336 l 1,5,-1
 688 1336 l 1,6,-1
 622 990 l 1,7,-1
 770 990 l 1,8,-1
 835 1336 l 1,9,-1
 1023 1336 l 1,10,-1
 957 990 l 1,11,-1
 1118 990 l 1,12,-1
 1106 809 l 1,13,-1
 923 809 l 1,14,-1
 874 547 l 1,15,-1
 1047 547 l 1,16,-1
 1038 369 l 1,17,-1
 845 369 l 1,18,-1
 774 -13 l 1,19,-1
 583 -13 l 1,20,-1
 652 369 l 1,21,-1
 506 369 l 1,22,-1
 436 -13 l 1,23,-1
 249 -13 l 1,24,-1
 316 369 l 1,25,-1
 138 369 l 1,26,-1
 147 547 l 1,27,-1
 350 547 l 1,0,-1
538 547 m 1,28,-1
 688 547 l 1,29,-1
 736 809 l 1,30,-1
 588 809 l 1,31,-1
 538 547 l 1,28,-1
EndSplineSet
EndChar

StartChar: dollar
Encoding: 36 36 7
Width: 1174
GlyphClass: 2
Flags: W
LayerCount: 2
Fore
SplineSet
544 841 m 1,0,-1
 544 1123 l 1,1,2
 409 1101 409 1101 409 980 c 0,3,4
 409 885 409 885 507 853 c 2,5,-1
 544 841 l 1,0,-1
663 220 m 1,6,-1
 666 220 l 1,7,8
 782 251 782 251 782 385 c 0,9,10
 782 482 782 482 663 532 c 1,11,-1
 663 220 l 1,6,-1
663 -148 m 1,12,-1
 544 -148 l 1,13,-1
 544 -17 l 1,14,15
 293 -14 293 -14 125 82 c 1,16,-1
 190 300 l 1,17,18
 247 265 247 265 348 240 c 128,-1,19
 449 215 449 215 544 211 c 1,20,-1
 544 572 l 1,21,-1
 406 617 l 2,22,23
 280 658 280 658 210 747.5 c 128,-1,24
 140 837 140 837 140 975 c 0,25,26
 140 1144 140 1144 250.5 1242.5 c 128,-1,27
 361 1341 361 1341 544 1356 c 1,28,-1
 544 1480 l 1,29,-1
 663 1480 l 1,30,-1
 663 1356 l 1,31,32
 860 1346 860 1346 1020 1255 c 1,33,-1
 939 1048 l 1,34,35
 782 1117 782 1117 663 1126 c 1,36,-1
 663 801 l 1,37,-1
 715 783 l 1,38,39
 895 723 895 723 975 631.5 c 128,-1,40
 1055 540 1055 540 1055 381 c 0,41,42
 1055 213 1055 213 949.5 112 c 128,-1,43
 844 11 844 11 663 -11 c 1,44,-1
 663 -148 l 1,12,-1
EndSplineSet
EndChar

StartChar: ampersand
Encoding: 38 38 8
Width: 1331
GlyphClass: 2
Flags: W
LayerCount: 2
Fore
SplineSet
587 -1 m 0,0,1
 512 -1 512 -1 444.5 12.5 c 128,-1,2
 377 26 377 26 316 56.5 c 128,-1,3
 255 87 255 87 211 131.5 c 128,-1,4
 167 176 167 176 141 242 c 128,-1,5
 115 308 115 308 115 389 c 0,6,7
 115 459 115 459 138 518 c 128,-1,8
 161 577 161 577 206 623.5 c 128,-1,9
 251 670 251 670 297 703 c 128,-1,10
 343 736 343 736 409 772 c 1,11,12
 375 812 375 812 357 835 c 128,-1,13
 339 858 339 858 314.5 896 c 128,-1,14
 290 934 290 934 279 972.5 c 128,-1,15
 268 1011 268 1011 268 1052 c 0,16,17
 268 1129 268 1129 296.5 1189 c 128,-1,18
 325 1249 325 1249 373.5 1285.5 c 128,-1,19
 422 1322 422 1322 483 1340.5 c 128,-1,20
 544 1359 544 1359 614 1359 c 0,21,22
 680 1359 680 1359 741.5 1342 c 128,-1,23
 803 1325 803 1325 856 1291.5 c 128,-1,24
 909 1258 909 1258 941 1200 c 128,-1,25
 973 1142 973 1142 973 1068 c 0,26,27
 973 1007 973 1007 950 953.5 c 128,-1,28
 927 900 927 900 885.5 858 c 128,-1,29
 844 816 844 816 799 785 c 128,-1,30
 754 754 754 754 697 725 c 1,31,-1
 989 403 l 1,32,33
 1056 481 1056 481 1117 597 c 1,34,-1
 1286 488 l 1,35,36
 1219 355 1219 355 1130 256 c 1,37,-1
 1319 57 l 1,38,-1
 1111 4 l 1,39,-1
 987 134 l 1,40,41
 804 -1 804 -1 587 -1 c 0,0,1
592 178 m 0,42,43
 741 178 741 178 854 266 c 1,44,45
 833 289 833 289 690.5 445.5 c 128,-1,46
 548 602 548 602 522 630 c 1,47,48
 431 579 431 579 385.5 529.5 c 128,-1,49
 340 480 340 480 340 399 c 0,50,51
 340 290 340 290 410 234 c 128,-1,52
 480 178 480 178 592 178 c 0,42,43
581 863 m 1,53,54
 619 884 619 884 645.5 902 c 128,-1,55
 672 920 672 920 699 945 c 128,-1,56
 726 970 726 970 740 1001 c 128,-1,57
 754 1032 754 1032 754 1067 c 0,58,59
 754 1128 754 1128 718 1158.5 c 128,-1,60
 682 1189 682 1189 621 1189 c 0,61,62
 556 1189 556 1189 519.5 1157.5 c 128,-1,63
 483 1126 483 1126 483 1061 c 0,64,65
 483 1007 483 1007 508 960.5 c 128,-1,66
 533 914 533 914 581 863 c 1,53,54
EndSplineSet
EndChar

StartChar: quotesingle
Encoding: 39 39 9
Width: 514
GlyphClass: 2
Flags: W
LayerCount: 2
Fore
SplineSet
184 833 m 1,0,-1
 152 1341 l 1,1,-1
 362 1341 l 1,2,-1
 337 833 l 1,3,-1
 184 833 l 1,0,-1
EndSplineSet
EndChar

StartChar: parenleft
Encoding: 40 40 10
Width: 721
GlyphClass: 2
Flags: W
LayerCount: 2
Fore
SplineSet
658 -140 m 1,0,-1
 426 -140 l 1,1,2
 302 35 302 35 235.5 223 c 128,-1,3
 169 411 169 411 169 635 c 0,4,5
 169 862 169 862 240 1068.5 c 128,-1,6
 311 1275 311 1275 425 1427 c 1,7,-1
 659 1427 l 1,8,9
 565 1291 565 1291 487.5 1071.5 c 128,-1,10
 410 852 410 852 410 637 c 0,11,12
 410 432 410 432 475 246 c 128,-1,13
 540 60 540 60 658 -140 c 1,0,-1
EndSplineSet
EndChar

StartChar: parenright
Encoding: 41 41 11
Width: 732
GlyphClass: 2
Flags: W
LayerCount: 2
Fore
SplineSet
89 1427 m 1,0,-1
 321 1427 l 1,1,2
 445 1252 445 1252 511.5 1064 c 128,-1,3
 578 876 578 876 578 652 c 0,4,5
 578 425 578 425 507 218.5 c 128,-1,6
 436 12 436 12 322 -140 c 1,7,-1
 88 -140 l 1,8,9
 182 -4 182 -4 259.5 215.5 c 128,-1,10
 337 435 337 435 337 650 c 0,11,12
 337 855 337 855 272 1041 c 128,-1,13
 207 1227 207 1227 89 1427 c 1,0,-1
EndSplineSet
EndChar

StartChar: asterisk
Encoding: 42 42 12
Width: 1093
GlyphClass: 2
Flags: W
LayerCount: 2
Fore
SplineSet
167 1117 m 1,0,-1
 466 993 l 1,1,-1
 435 1336 l 1,2,-1
 656 1336 l 1,3,-1
 627 993 l 1,4,-1
 929 1117 l 1,5,-1
 990 904 l 1,6,-1
 683 836 l 1,7,8
 896 568 l 1,9,-1
 700 456 l 1,10,-1
 545 741 l 1,11,-1
 397 458 l 1,12,-1
 196 568 l 1,13,-1
 409 836 l 1,14,-1
 103 904 l 1,15,-1
 167 1117 l 1,0,-1
EndSplineSet
EndChar

StartChar: plus
Encoding: 43 43 13
Width: 1035
GlyphClass: 2
Flags: W
LayerCount: 2
Fore
SplineSet
430 692 m 1,0,-1
 430 1065 l 1,1,-1
 623 1065 l 1,2,-1
 623 692 l 1,3,-1
 983 692 l 1,4,-1
 983 502 l 1,5,-1
 622 502 l 1,6,-1
 622 130 l 1,7,-1
 429 130 l 1,8,-1
 429 502 l 1,9,-1
 68 502 l 1,10,-1
 68 692 l 1,11,-1
 430 692 l 1,0,-1
EndSplineSet
EndChar

StartChar: comma
Encoding: 44 44 14
Width: 528
GlyphClass: 2
Flags: W
LayerCount: 2
Fore
SplineSet
310 -233 m 1,0,-1
 133 -233 l 1,1,-1
 221 245 l 1,2,-1
 458 245 l 1,3,-1
 453 190 l 1,4,-1
 310 -233 l 1,0,-1
EndSplineSet
EndChar

StartChar: hyphen
Encoding: 45 45 15
Width: 594
GlyphClass: 2
Flags: W
LayerCount: 2
Fore
SplineSet
57 406 m 1,0,-1
 57 606 l 1,1,-1
 553 606 l 1,2,-1
 553 406 l 1,3,-1
 57 406 l 1,0,-1
EndSplineSet
EndChar

StartChar: period
Encoding: 46 46 16
Width: 549
GlyphClass: 2
Flags: W
LayerCount: 2
Fore
SplineSet
281 3 m 0,0,1
 219 3 219 3 176 45.5 c 128,-1,2
 133 88 133 88 133 148 c 128,-1,3
 133 208 133 208 176 251.5 c 128,-1,4
 219 295 219 295 281 295 c 0,5,6
 342 295 342 295 384.5 251.5 c 128,-1,7
 427 208 427 208 427 148 c 0,8,9
 427 89 427 89 384.5 46 c 128,-1,10
 342 3 342 3 281 3 c 0,0,1
EndSplineSet
EndChar

StartChar: slash
Encoding: 47 47 17
Width: 881
GlyphClass: 2
Flags: W
LayerCount: 2
Fore
SplineSet
56 -167 m 1,0,-1
 609 1364 l 1,1,-1
 823 1364 l 1,2,-1
 267 -167 l 1,3,-1
 56 -167 l 1,0,-1
EndSplineSet
EndChar

StartChar: zero
Encoding: 48 48 18
Width: 1255
GlyphClass: 2
Flags: W
LayerCount: 2
Fore
SplineSet
627 187 m 128,-1,1
 694 187 694 187 741.5 227 c 128,-1,2
 789 267 789 267 814 338.5 c 128,-1,3
 839 410 839 410 850 492 c 128,-1,4
 861 574 861 574 861 674 c 0,5,6
 861 1153 861 1153 627 1153 c 0,7,8
 396 1153 396 1153 392 677 c 0,9,10
 392 576 392 576 403 493.5 c 128,-1,11
 414 411 414 411 439.5 339.5 c 128,-1,12
 465 268 465 268 512.5 227.5 c 128,-1,0
 560 187 560 187 627 187 c 128,-1,1
627 -18 m 128,-1,14
 520 -18 520 -18 434.5 19.5 c 128,-1,15
 349 57 349 57 293.5 121 c 128,-1,16
 238 185 238 185 201 274 c 128,-1,17
 164 363 164 363 148 460 c 128,-1,18
 132 557 132 557 132 667 c 0,19,20
 132 779 132 779 148 877.5 c 128,-1,21
 164 976 164 976 201.5 1065.5 c 128,-1,22
 239 1155 239 1155 295 1218.5 c 128,-1,23
 351 1282 351 1282 436 1319.5 c 128,-1,24
 521 1357 521 1357 627 1357 c 0,25,26
 734 1357 734 1357 819 1319.5 c 128,-1,27
 904 1282 904 1282 960 1217.5 c 128,-1,28
 1016 1153 1016 1153 1053.5 1064 c 128,-1,29
 1091 975 1091 975 1107 876.5 c 128,-1,30
 1123 778 1123 778 1123 667 c 0,31,32
 1123 557 1123 557 1107 460 c 128,-1,33
 1091 363 1091 363 1054 274 c 128,-1,34
 1017 185 1017 185 961 121 c 128,-1,35
 905 57 905 57 819.5 19.5 c 128,-1,13
 734 -18 734 -18 627 -18 c 128,-1,14
EndSplineSet
EndChar

StartChar: one
Encoding: 49 49 19
Width: 1117
GlyphClass: 2
Flags: W
LayerCount: 2
Fore
SplineSet
997 0 m 1,0,-1
 196 0 l 1,1,-1
 196 200 l 1,2,-1
 484 200 l 1,3,-1
 484 1096 l 1,4,5
 448 1071 448 1071 369.5 1042.5 c 128,-1,6
 291 1014 291 1014 196 999 c 1,7,-1
 196 1200 l 1,8,9
 412 1259 412 1259 519 1336 c 1,10,-1
 740 1336 l 1,11,-1
 740 200 l 1,12,-1
 997 200 l 1,13,-1
 997 0 l 1,0,-1
EndSplineSet
EndChar

StartChar: two
Encoding: 50 50 20
Width: 1141
GlyphClass: 2
Flags: W
LayerCount: 2
Fore
SplineSet
167 0 m 1,0,-1
 161 207 l 1,1,-1
 578 674 l 2,2,3
 640 742 640 742 679.5 822 c 128,-1,4
 719 902 719 902 719 964 c 0,5,6
 719 1044 719 1044 664.5 1098 c 128,-1,7
 610 1152 610 1152 528 1152 c 0,8,9
 448 1152 448 1152 369.5 1114.5 c 128,-1,10
 291 1077 291 1077 244 1040 c 1,11,-1
 169 1226 l 1,12,13
 233 1282 233 1282 330 1319.5 c 128,-1,14
 427 1357 427 1357 541 1357 c 0,15,16
 732 1357 732 1357 855 1252 c 128,-1,17
 978 1147 978 1147 978 966 c 0,18,19
 978 857 978 857 903 724.5 c 128,-1,20
 828 592 828 592 729 488 c 1,21,-1
 464 200 l 1,22,-1
 970 200 l 1,23,-1
 953 0 l 1,24,-1
 167 0 l 1,0,-1
EndSplineSet
EndChar

StartChar: three
Encoding: 51 51 21
Width: 1188
GlyphClass: 2
Flags: W
LayerCount: 2
Fore
SplineSet
755 379 m 0,0,1
 755 432 755 432 739.5 470 c 128,-1,2
 724 508 724 508 697 532 c 128,-1,3
 670 556 670 556 625.5 570.5 c 128,-1,4
 581 585 581 585 532 591 c 128,-1,5
 483 597 483 597 415 599 c 1,6,-1
 355 599 l 1,7,-1
 355 799 l 1,8,-1
 415 799 l 2,9,10
 492 799 492 799 544.5 806 c 128,-1,11
 597 813 597 813 642 831.5 c 128,-1,12
 687 850 687 850 709 885.5 c 128,-1,13
 731 921 731 921 731 975 c 0,14,15
 731 1048 731 1048 678 1100.5 c 128,-1,16
 625 1153 625 1153 528 1153 c 0,17,18
 364 1153 364 1153 238 1071 c 1,19,-1
 164 1258 l 1,20,21
 324 1357 324 1357 550 1357 c 0,22,23
 736 1357 736 1357 856.5 1255.5 c 128,-1,24
 977 1154 977 1154 977 994 c 0,25,26
 977 788 977 788 786 707 c 1,27,28
 893 675 893 675 953 581 c 128,-1,29
 1013 487 1013 487 1013 367 c 0,30,31
 1013 246 1013 246 948 157 c 128,-1,32
 883 68 883 68 778 25 c 128,-1,33
 673 -18 673 -18 543 -18 c 0,34,35
 428 -18 428 -18 325.5 12 c 128,-1,36
 223 42 223 42 162 94 c 1,37,-1
 239 278 l 1,38,39
 287 238 287 238 372 212.5 c 128,-1,40
 457 187 457 187 544 187 c 0,41,42
 640 187 640 187 697.5 240.5 c 128,-1,43
 755 294 755 294 755 379 c 0,0,1
EndSplineSet
EndChar

StartChar: four
Encoding: 52 52 22
Width: 1246
GlyphClass: 2
Flags: W
LayerCount: 2
Fore
SplineSet
666 1336 m 1,0,-1
 976 1336 l 1,1,-1
 976 498 l 1,2,-1
 1137 498 l 1,3,-1
 1123 296 l 1,4,-1
 976 296 l 1,5,-1
 976 0 l 1,6,-1
 722 0 l 1,7,-1
 722 296 l 1,8,-1
 138 296 l 1,9,-1
 138 473 l 1,10,-1
 666 1336 l 1,0,-1
722 494 m 1,11,-1
 722 1055 l 1,12,-1
 397 494 l 1,13,-1
 722 494 l 1,11,-1
EndSplineSet
EndChar

StartChar: five
Encoding: 53 53 23
Width: 1222
GlyphClass: 2
Flags: W
LayerCount: 2
Fore
SplineSet
589 -18 m 0,0,1
 496 -18 496 -18 395.5 11.5 c 128,-1,2
 295 41 295 41 242 68 c 128,-1,3
 189 95 189 95 172 110 c 1,4,-1
 261 292 l 1,5,6
 280 278 280 278 313 259 c 128,-1,7
 346 240 346 240 420.5 214.5 c 128,-1,8
 495 189 495 189 563 189 c 0,9,10
 688 189 688 189 751 255 c 128,-1,11
 814 321 814 321 814 430 c 0,12,13
 814 533 814 533 757 593.5 c 128,-1,14
 700 654 700 654 609 654 c 0,15,16
 498 654 498 654 411 561 c 1,17,-1
 227 590 l 1,18,-1
 264 1336 l 1,19,-1
 1028 1336 l 1,20,-1
 1011 1129 l 1,21,-1
 502 1129 l 1,22,23
 501 1109 501 1109 490 971.5 c 128,-1,24
 479 834 479 834 478 799 c 1,25,26
 600 855 600 855 648 855 c 0,27,28
 839 855 839 855 958.5 736 c 128,-1,29
 1078 617 1078 617 1078 428 c 0,30,31
 1078 227 1078 227 948.5 104.5 c 128,-1,32
 819 -18 819 -18 589 -18 c 0,0,1
EndSplineSet
EndChar

StartChar: six
Encoding: 54 54 24
Width: 1256
GlyphClass: 2
Flags: W
LayerCount: 2
Fore
SplineSet
628 -18 m 0,0,1
 409 -18 409 -18 270.5 103 c 128,-1,2
 132 224 132 224 132 422 c 0,3,4
 132 541 132 541 178 637.5 c 128,-1,5
 224 734 224 734 314 853 c 1,6,-1
 666 1336 l 1,7,-1
 982 1336 l 1,8,-1
 592 826 l 1,9,10
 636 838 636 838 669 838 c 0,11,12
 863 838 863 838 990.5 720.5 c 128,-1,13
 1118 603 1118 603 1118 417 c 0,14,15
 1118 223 1118 223 979 102.5 c 128,-1,16
 840 -18 840 -18 628 -18 c 0,0,1
618 180 m 0,17,18
 730 180 730 180 792 243.5 c 128,-1,19
 854 307 854 307 854 413 c 0,20,21
 854 525 854 525 796 587.5 c 128,-1,22
 738 650 738 650 621 650 c 0,23,24
 503 650 503 650 448 586.5 c 128,-1,25
 393 523 393 523 393 411 c 0,26,27
 393 304 393 304 451 242 c 128,-1,28
 509 180 509 180 618 180 c 0,17,18
EndSplineSet
EndChar

StartChar: seven
Encoding: 55 55 25
Width: 1057
GlyphClass: 2
Flags: W
LayerCount: 2
Fore
SplineSet
949 1336 m 1,0,-1
 949 1172 l 1,1,-1
 523 0 l 1,2,-1
 241 0 l 1,3,-1
 660 1132 l 1,4,-1
 100 1132 l 1,5,-1
 112 1336 l 1,6,-1
 949 1336 l 1,0,-1
EndSplineSet
EndChar

StartChar: eight
Encoding: 56 56 26
Width: 1261
GlyphClass: 2
Flags: W
LayerCount: 2
Fore
SplineSet
633 -18 m 0,0,1
 506 -18 506 -18 402 24.5 c 128,-1,2
 298 67 298 67 233 155 c 128,-1,3
 168 243 168 243 168 362 c 128,-1,4
 168 481 168 481 226 568 c 128,-1,5
 284 655 284 655 385 705 c 1,6,7
 193 807 193 807 193 1011 c 0,8,9
 193 1123 193 1123 254 1203 c 128,-1,10
 315 1283 315 1283 412.5 1320 c 128,-1,11
 510 1357 510 1357 632 1357 c 0,12,13
 755 1357 755 1357 852 1320 c 128,-1,14
 949 1283 949 1283 1009 1203 c 128,-1,15
 1069 1123 1069 1123 1069 1011 c 0,16,17
 1069 808 1069 808 890 705 c 1,18,19
 985 654 985 654 1039 567 c 128,-1,20
 1093 480 1093 480 1093 361 c 0,21,22
 1093 271 1093 271 1056 198 c 128,-1,23
 1019 125 1019 125 955.5 78.5 c 128,-1,24
 892 32 892 32 809.5 7 c 128,-1,25
 727 -18 727 -18 633 -18 c 0,0,1
633 154 m 0,26,27
 740 154 740 154 798.5 207.5 c 128,-1,28
 857 261 857 261 857 356 c 128,-1,29
 857 451 857 451 795.5 515.5 c 128,-1,30
 734 580 734 580 633 608 c 1,31,32
 530 580 530 580 468.5 515.5 c 128,-1,33
 407 451 407 451 407 355 c 0,34,35
 407 261 407 261 467 207.5 c 128,-1,36
 527 154 527 154 633 154 c 0,26,27
633 775 m 1,37,38
 734 799 734 799 789.5 858.5 c 128,-1,39
 845 918 845 918 845 1010 c 0,40,41
 845 1086 845 1086 785.5 1132 c 128,-1,42
 726 1178 726 1178 633 1178 c 0,43,44
 539 1178 539 1178 478.5 1131.5 c 128,-1,45
 418 1085 418 1085 418 1010 c 0,46,47
 418 918 418 918 474.5 858.5 c 128,-1,48
 531 799 531 799 633 775 c 1,37,38
EndSplineSet
EndChar

StartChar: nine
Encoding: 57 57 27
Width: 1221
GlyphClass: 2
Flags: W
LayerCount: 2
Fore
SplineSet
570 0 m 1,0,-1
 257 0 l 1,1,-1
 648 509 l 1,2,3
 605 496 605 496 571 496 c 0,4,5
 377 496 377 496 250 613 c 128,-1,6
 123 730 123 730 123 918 c 0,7,8
 123 1115 123 1115 262 1236 c 128,-1,9
 401 1357 401 1357 613 1357 c 0,10,11
 832 1357 832 1357 970.5 1236 c 128,-1,12
 1109 1115 1109 1115 1109 916 c 0,13,14
 1109 800 1109 800 1065.5 706 c 128,-1,15
 1022 612 1022 612 939 497 c 1,16,-1
 570 0 l 1,0,-1
621 681 m 0,17,18
 739 681 739 681 794 747 c 128,-1,19
 849 813 849 813 849 928 c 0,20,21
 849 1035 849 1035 791.5 1097.5 c 128,-1,22
 734 1160 734 1160 625 1160 c 0,23,24
 513 1160 513 1160 449.5 1095.5 c 128,-1,25
 386 1031 386 1031 386 924 c 0,26,27
 386 810 386 810 445 745.5 c 128,-1,28
 504 681 504 681 621 681 c 0,17,18
EndSplineSet
EndChar

StartChar: colon
Encoding: 58 58 28
Width: 638
GlyphClass: 2
Flags: W
LayerCount: 2
Fore
SplineSet
191 0 m 1,0,-1
 191 266 l 1,1,-1
 447 266 l 1,2,-1
 447 0 l 1,3,-1
 191 0 l 1,0,-1
191 761 m 1,4,-1
 191 1016 l 1,5,-1
 447 1016 l 1,6,-1
 447 761 l 1,7,-1
 191 761 l 1,4,-1
EndSplineSet
EndChar

StartChar: semicolon
Encoding: 59 59 29
Width: 636
GlyphClass: 2
Flags: W
LayerCount: 2
Fore
SplineSet
191 -287 m 1,0,-1
 241 248 l 1,1,-1
 465 248 l 1,2,-1
 349 -287 l 1,3,-1
 191 -287 l 1,0,-1
207 767 m 1,4,-1
 207 1022 l 1,5,-1
 462 1022 l 1,6,-1
 462 767 l 1,7,-1
 207 767 l 1,4,-1
EndSplineSet
EndChar

StartChar: less
Encoding: 60 60 30
Width: 1105
GlyphClass: 2
Flags: W
LayerCount: 2
Fore
SplineSet
969 952 m 1,0,-1
 364 654 l 1,1,-1
 967 384 l 1,2,3
 969 169 l 1,4,-1
 96 588 l 1,5,-1
 96 710 l 1,6,-1
 969 1157 l 1,7,-1
 969 952 l 1,0,-1
EndSplineSet
EndChar

StartChar: equal
Encoding: 61 61 31
Width: 1179
GlyphClass: 2
Flags: W
LayerCount: 2
Fore
SplineSet
130 326 m 1,0,-1
 130 518 l 1,1,-1
 1049 518 l 1,2,-1
 1049 326 l 1,3,-1
 130 326 l 1,0,-1
130 680 m 1,4,-1
 130 881 l 1,5,-1
 1049 881 l 1,6,-1
 1049 680 l 1,7,-1
 130 680 l 1,4,-1
EndSplineSet
EndChar

StartChar: greater
Encoding: 62 62 32
Width: 1105
GlyphClass: 2
Flags: W
LayerCount: 2
Fore
SplineSet
136 1158 m 1,0,-1
 1009 709 l 1,1,-1
 1009 588 l 1,2,-1
 136 171 l 1,3,-1
 136 386 l 1,4,-1
 740 654 l 1,5,-1
 136 953 l 1,6,-1
 136 1158 l 1,0,-1
EndSplineSet
EndChar

StartChar: question
Encoding: 63 63 33
Width: 969
GlyphClass: 2
Flags: W
LayerCount: 2
Fore
SplineSet
515 423 m 1,0,-1
 403 429 l 1,1,2
 412 500 412 500 440.5 573 c 128,-1,3
 469 646 469 646 503 704 c 128,-1,4
 537 762 537 762 570 816.5 c 128,-1,5
 603 871 603 871 625 923.5 c 128,-1,6
 647 976 647 976 647 1019 c 0,7,8
 646 1092 646 1092 601.5 1134.5 c 128,-1,9
 557 1177 557 1177 477 1177 c 0,10,11
 424 1177 424 1177 374 1164 c 128,-1,12
 324 1151 324 1151 298 1137.5 c 128,-1,13
 272 1124 272 1124 237 1103 c 1,14,-1
 165 1267 l 1,15,16
 309 1363 309 1363 501 1363 c 0,17,18
 551 1363 551 1363 600 1351.5 c 128,-1,19
 649 1340 649 1340 694.5 1314.5 c 128,-1,20
 740 1289 740 1289 775 1253 c 128,-1,21
 810 1217 810 1217 831 1164.5 c 128,-1,22
 852 1112 852 1112 852 1050 c 128,-1,23
 852 988 852 988 830.5 927.5 c 128,-1,24
 809 867 809 867 771 809.5 c 128,-1,25
 733 752 733 752 692 697.5 c 128,-1,26
 651 643 651 643 600.5 568.5 c 128,-1,27
 550 494 550 494 515 423 c 1,0,-1
458 -7 m 0,28,29
 398 -7 398 -7 354.5 36.5 c 128,-1,30
 311 80 311 80 311 139 c 0,31,32
 311 199 311 199 354 242.5 c 128,-1,33
 397 286 397 286 458 286 c 0,34,35
 517 286 517 286 557.5 242.5 c 128,-1,36
 598 199 598 199 598 139 c 0,37,38
 598 80 598 80 557.5 36.5 c 128,-1,39
 517 -7 517 -7 458 -7 c 0,28,29
EndSplineSet
EndChar

StartChar: at
Encoding: 64 64 34
Width: 1742
GlyphClass: 2
Flags: W
LayerCount: 2
Fore
SplineSet
855 -119 m 0,0,1
 645 -119 645 -119 481.5 -32.5 c 128,-1,2
 318 54 318 54 225 217 c 128,-1,3
 132 380 132 380 132 596 c 128,-1,4
 132 812 132 812 233.5 986.5 c 128,-1,5
 335 1161 335 1161 514 1259.5 c 128,-1,6
 693 1358 693 1358 915 1358 c 0,7,8
 1060 1358 1060 1358 1187.5 1312 c 128,-1,9
 1315 1266 1315 1266 1408.5 1183.5 c 128,-1,10
 1502 1101 1502 1101 1556 979 c 128,-1,11
 1610 857 1610 857 1610 713 c 0,12,13
 1610 622 1610 622 1589 544 c 128,-1,14
 1568 466 1568 466 1533 412 c 128,-1,15
 1498 358 1498 358 1453 319 c 128,-1,16
 1408 280 1408 280 1360 261.5 c 128,-1,17
 1312 243 1312 243 1265 243 c 0,18,19
 1187 243 1187 243 1127.5 294 c 128,-1,20
 1068 345 1068 345 1051 440 c 1,21,22
 1033 370 1033 370 956.5 307 c 128,-1,23
 880 244 880 244 796 244 c 0,24,25
 659 244 659 244 586.5 333 c 128,-1,26
 514 422 514 422 514 554 c 0,27,28
 514 634 514 634 541.5 712 c 128,-1,29
 569 790 569 790 618.5 855 c 128,-1,30
 668 920 668 920 746.5 960 c 128,-1,31
 825 1000 825 1000 918 1000 c 0,32,33
 988 1000 988 1000 1077.5 981 c 128,-1,34
 1167 962 1167 962 1221 930 c 1,35,36
 1213 874 1213 874 1196 766.5 c 128,-1,37
 1179 659 1179 659 1170.5 592 c 128,-1,38
 1162 525 1162 525 1162 476 c 0,39,40
 1162 428 1162 428 1192 398 c 128,-1,41
 1222 368 1222 368 1266 368 c 0,42,43
 1341 368 1341 368 1401 456.5 c 128,-1,44
 1461 545 1461 545 1461 721 c 0,45,46
 1461 796 1461 796 1443 865.5 c 128,-1,47
 1425 935 1425 935 1383.5 1001.5 c 128,-1,48
 1342 1068 1342 1068 1279.5 1117 c 128,-1,49
 1217 1166 1217 1166 1121.5 1195.5 c 128,-1,50
 1026 1225 1026 1225 907 1225 c 0,51,52
 791 1225 791 1225 691 1189 c 128,-1,53
 591 1153 591 1153 520 1091.5 c 128,-1,54
 449 1030 449 1030 399 948.5 c 128,-1,55
 349 867 349 867 324.5 776 c 128,-1,56
 300 685 300 685 300 590 c 0,57,58
 300 478 300 478 335 376.5 c 128,-1,59
 370 275 370 275 436.5 193.5 c 128,-1,60
 503 112 503 112 611.5 63.5 c 128,-1,61
 720 15 720 15 856 15 c 0,62,63
 969 15 969 15 1082.5 41.5 c 128,-1,64
 1196 68 1196 68 1283 118 c 1,65,-1
 1325 -3 l 1,66,67
 1241 -59 1241 -59 1114.5 -89 c 128,-1,68
 988 -119 988 -119 855 -119 c 0,0,1
813 360 m 0,69,70
 862 360 862 360 898.5 381.5 c 128,-1,71
 935 403 935 403 957.5 446 c 128,-1,72
 980 489 980 489 993.5 540.5 c 128,-1,73
 1007 592 1007 592 1016 664 c 0,74,75
 1028 758 1028 758 1040 872 c 1,76,77
 987 890 987 890 942 890 c 0,78,79
 862 890 862 890 800 840.5 c 128,-1,80
 738 791 738 791 706.5 714 c 128,-1,81
 675 637 675 637 675 549 c 0,82,83
 675 467 675 467 710 413.5 c 128,-1,84
 745 360 745 360 813 360 c 0,69,70
EndSplineSet
EndChar

StartChar: A
Encoding: 65 65 35
Width: 1477
GlyphClass: 2
Flags: W
LayerCount: 2
Fore
SplineSet
569 555 m 1,0,-1
 905 555 l 1,1,-1
 743 1093 l 1,2,-1
 569 555 l 1,0,-1
83 0 m 1,3,-1
 562 1336 l 1,4,-1
 917 1336 l 1,5,-1
 1394 0 l 1,6,-1
 1098 0 l 1,7,-1
 964 365 l 1,8,-1
 508 365 l 1,9,-1
 382 0 l 1,10,-1
 83 0 l 1,3,-1
EndSplineSet
EndChar

StartChar: B
Encoding: 66 66 36
Width: 1376
GlyphClass: 2
Flags: W
LayerCount: 2
Fore
SplineSet
180 0 m 1,0,-1
 180 1336 l 1,1,-1
 660 1336 l 2,2,3
 920 1336 920 1336 1049.5 1259.5 c 128,-1,4
 1179 1183 1179 1183 1179 1000 c 0,5,6
 1179 967 1179 967 1169.5 930.5 c 128,-1,7
 1160 894 1160 894 1140 853.5 c 128,-1,8
 1120 813 1120 813 1081.5 776 c 128,-1,9
 1043 739 1043 739 992 715 c 1,10,11
 1101 677 1101 677 1164 593 c 128,-1,12
 1227 509 1227 509 1227 393 c 0,13,14
 1227 202 1227 202 1093.5 101 c 128,-1,15
 960 0 960 0 729 0 c 2,16,-1
 180 0 l 1,0,-1
468 216 m 1,17,-1
 677 216 l 2,18,19
 812 216 812 216 875.5 261.5 c 128,-1,20
 939 307 939 307 939 412 c 128,-1,21
 939 517 939 517 875.5 560.5 c 128,-1,22
 812 604 812 604 671 604 c 2,23,-1
 468 604 l 1,24,-1
 468 216 l 1,17,-1
468 793 m 1,25,-1
 674 793 l 2,26,27
 791 793 791 793 845 830 c 128,-1,28
 899 867 899 867 899 956 c 0,29,30
 899 1055 899 1055 836 1090.5 c 128,-1,31
 773 1126 773 1126 626 1126 c 2,32,-1
 468 1126 l 1,33,-1
 468 793 l 1,25,-1
EndSplineSet
EndChar

StartChar: C
Encoding: 67 67 37
Width: 1327
GlyphClass: 2
Flags: W
LayerCount: 2
Fore
SplineSet
791 -18 m 0,0,1
 648 -18 648 -18 528 29 c 128,-1,2
 408 76 408 76 321.5 163.5 c 128,-1,3
 235 251 235 251 186.5 383 c 128,-1,4
 138 515 138 515 138 677 c 0,5,6
 138 838 138 838 186 967 c 128,-1,7
 234 1096 234 1096 319.5 1181 c 128,-1,8
 405 1266 405 1266 523 1311.5 c 128,-1,9
 641 1357 641 1357 782 1357 c 0,10,11
 992 1357 992 1357 1181 1247 c 1,12,-1
 1098 1033 l 1,13,14
 921 1135 921 1135 768 1123 c 0,15,16
 703 1118 703 1118 643.5 1087 c 128,-1,17
 584 1056 584 1056 534.5 1002 c 128,-1,18
 485 948 485 948 455.5 862 c 128,-1,19
 426 776 426 776 426 671 c 0,20,21
 426 456 426 456 528.5 337 c 128,-1,22
 631 218 631 218 810 213 c 0,23,24
 952 209 952 209 1100 293 c 1,25,-1
 1155 75 l 1,26,27
 1056 26 1056 26 975.5 4 c 128,-1,28
 895 -18 895 -18 791 -18 c 0,0,1
EndSplineSet
EndChar

StartChar: D
Encoding: 68 68 38
Width: 1509
GlyphClass: 2
Flags: W
LayerCount: 2
Fore
SplineSet
468 1126 m 1,0,-1
 468 216 l 1,1,-1
 634 216 l 2,2,3
 852 216 852 216 968 333.5 c 128,-1,4
 1084 451 1084 451 1084 671 c 0,5,6
 1084 907 1084 907 964 1016.5 c 128,-1,7
 844 1126 844 1126 608 1126 c 2,8,-1
 468 1126 l 1,0,-1
180 0 m 1,9,-1
 180 1336 l 1,10,-1
 597 1336 l 2,11,12
 768 1336 768 1336 908 1296 c 128,-1,13
 1048 1256 1048 1256 1152 1177 c 128,-1,14
 1256 1098 1256 1098 1313.5 970 c 128,-1,15
 1371 842 1371 842 1371 676 c 0,16,17
 1371 461 1371 461 1275 307 c 128,-1,18
 1179 153 1179 153 1011 76.5 c 128,-1,19
 843 0 843 0 620 0 c 2,20,-1
 180 0 l 1,9,-1
EndSplineSet
EndChar

StartChar: E
Encoding: 69 69 39
Width: 1241
GlyphClass: 2
Flags: W
LayerCount: 2
Fore
SplineSet
468 1126 m 1,0,-1
 468 805 l 1,1,-1
 1029 805 l 1,2,-1
 1029 595 l 1,3,-1
 468 595 l 1,4,-1
 468 216 l 1,5,-1
 1077 216 l 1,6,-1
 1060 0 l 1,7,-1
 180 0 l 1,8,-1
 180 1336 l 1,9,-1
 1067 1336 l 1,10,-1
 1056 1126 l 1,11,-1
 468 1126 l 1,0,-1
EndSplineSet
EndChar

StartChar: F
Encoding: 70 70 40
Width: 1175
GlyphClass: 2
Flags: W
LayerCount: 2
Fore
SplineSet
468 1116 m 1,0,-1
 468 765 l 1,1,-1
 1023 765 l 1,2,-1
 1023 556 l 1,3,-1
 468 556 l 1,4,-1
 468 0 l 1,5,-1
 180 0 l 1,6,-1
 180 1336 l 1,7,-1
 1091 1336 l 1,8,-1
 1079 1116 l 1,9,-1
 468 1116 l 1,0,-1
EndSplineSet
EndChar

StartChar: G
Encoding: 71 71 41
Width: 1437
GlyphClass: 2
Flags: W
LayerCount: 2
Fore
SplineSet
784 -18 m 0,0,1
 485 -18 485 -18 311.5 167.5 c 128,-1,2
 138 353 138 353 138 672 c 0,3,4
 138 996 138 996 315.5 1176.5 c 128,-1,5
 493 1357 493 1357 810 1357 c 0,6,7
 1038 1357 1038 1357 1246 1253 c 1,8,-1
 1157 1042 l 1,9,10
 996 1122 996 1122 815 1129 c 0,11,12
 622 1136 622 1136 524 1015.5 c 128,-1,13
 426 895 426 895 426 670 c 0,14,15
 426 449 426 449 517 331 c 128,-1,16
 608 213 608 213 795 213 c 0,17,18
 929 213 929 213 1017 245 c 1,19,-1
 1017 519 l 1,20,-1
 731 519 l 1,21,-1
 731 727 l 1,22,-1
 1264 727 l 1,23,-1
 1264 82 l 1,24,25
 1036 -18 1036 -18 784 -18 c 0,0,1
EndSplineSet
EndChar

StartChar: H
Encoding: 72 72 42
Width: 1503
GlyphClass: 2
Flags: W
LayerCount: 2
Fore
SplineSet
468 793 m 1,0,-1
 1035 793 l 1,1,-1
 1035 1336 l 1,2,-1
 1323 1336 l 1,3,-1
 1323 0 l 1,4,-1
 1035 0 l 1,5,-1
 1035 578 l 1,6,-1
 468 578 l 1,7,-1
 468 0 l 1,8,-1
 180 0 l 1,9,-1
 180 1336 l 1,10,-1
 468 1336 l 1,11,-1
 468 793 l 1,0,-1
EndSplineSet
EndChar

StartChar: I
Encoding: 73 73 43
Width: 647
GlyphClass: 2
Flags: W
LayerCount: 2
Fore
SplineSet
180 0 m 1,0,-1
 180 1336 l 1,1,-1
 468 1336 l 1,2,-1
 468 0 l 1,3,-1
 180 0 l 1,0,-1
EndSplineSet
EndChar

StartChar: J
Encoding: 74 74 44
Width: 1083
GlyphClass: 2
Flags: W
LayerCount: 2
Fore
SplineSet
123 275 m 1,0,1
 288 210 288 210 401 210 c 0,2,3
 515 210 515 210 568 269.5 c 128,-1,4
 621 329 621 329 621 416 c 2,5,-1
 621 1336 l 1,6,-1
 909 1336 l 1,7,-1
 909 354 l 2,8,9
 909 194 909 194 777 87.5 c 128,-1,10
 645 -19 645 -19 440 -19 c 0,11,12
 263 -19 263 -19 72 65 c 1,13,-1
 123 275 l 1,0,1
EndSplineSet
EndChar

StartChar: K
Encoding: 75 75 45
Width: 1400
GlyphClass: 2
Flags: W
LayerCount: 2
Fore
SplineSet
985 1336 m 1,0,-1
 1317 1336 l 1,1,-1
 812 734 l 1,2,-1
 1349 0 l 1,3,-1
 1018 0 l 1,4,-1
 586 611 l 1,5,-1
 468 507 l 1,6,-1
 468 0 l 1,7,-1
 180 0 l 1,8,-1
 180 1336 l 1,9,-1
 468 1336 l 1,10,-1
 468 745 l 1,11,-1
 985 1336 l 1,0,-1
EndSplineSet
EndChar

StartChar: L
Encoding: 76 76 46
Width: 1153
GlyphClass: 2
Flags: W
LayerCount: 2
Fore
SplineSet
1073 216 m 1,0,-1
 1059 0 l 1,1,-1
 180 0 l 1,2,-1
 180 1336 l 1,3,-1
 468 1336 l 1,4,-1
 468 216 l 1,5,-1
 1073 216 l 1,0,-1
EndSplineSet
EndChar

StartChar: M
Encoding: 77 77 47
Width: 1838
GlyphClass: 2
Flags: W
LayerCount: 2
Fore
SplineSet
1359 1336 m 1,0,-1
 1638 1336 l 1,1,-1
 1658 0 l 1,2,-1
 1385 0 l 1,3,-1
 1375 487 l 1,4,-1
 1390 876 l 1,5,-1
 1018 196 l 1,6,-1
 811 196 l 1,7,-1
 448 882 l 1,8,-1
 464 484 l 1,9,-1
 454 0 l 1,10,-1
 180 0 l 1,11,-1
 200 1336 l 1,12,-1
 484 1336 l 1,13,-1
 919 508 l 1,14,-1
 1359 1336 l 1,0,-1
EndSplineSet
EndChar

StartChar: N
Encoding: 78 78 48
Width: 1548
GlyphClass: 2
Flags: W
LayerCount: 2
Fore
SplineSet
1103 350 m 1,0,-1
 1083 795 l 1,1,-1
 1083 1336 l 1,2,-1
 1368 1336 l 1,3,-1
 1368 0 l 1,4,-1
 1050 0 l 1,5,-1
 441 961 l 1,6,-1
 465 409 l 1,7,-1
 465 0 l 1,8,-1
 180 0 l 1,9,-1
 180 1336 l 1,10,-1
 487 1336 l 1,11,-1
 1103 350 l 1,0,-1
EndSplineSet
EndChar

StartChar: O
Encoding: 79 79 49
Width: 1618
GlyphClass: 2
Flags: W
LayerCount: 2
Fore
SplineSet
810 -18 m 128,-1,1
 663 -18 663 -18 539.5 29 c 128,-1,2
 416 76 416 76 327 163 c 128,-1,3
 238 250 238 250 188 380 c 128,-1,4
 138 510 138 510 138 669 c 0,5,6
 138 830 138 830 188 960 c 128,-1,7
 238 1090 238 1090 327.5 1177 c 128,-1,8
 417 1264 417 1264 540 1310.5 c 128,-1,9
 663 1357 663 1357 810 1357 c 128,-1,10
 957 1357 957 1357 1080 1310.5 c 128,-1,11
 1203 1264 1203 1264 1292 1177 c 128,-1,12
 1381 1090 1381 1090 1430.5 960 c 128,-1,13
 1480 830 1480 830 1480 669 c 0,14,15
 1480 510 1480 510 1430.5 380 c 128,-1,16
 1381 250 1381 250 1292.5 163 c 128,-1,17
 1204 76 1204 76 1080.5 29 c 128,-1,0
 957 -18 957 -18 810 -18 c 128,-1,1
810 1127 m 128,-1,19
 639 1127 639 1127 532.5 1001 c 128,-1,20
 426 875 426 875 426 667 c 0,21,22
 426 462 426 462 532.5 336 c 128,-1,23
 639 210 639 210 810 210 c 128,-1,24
 981 210 981 210 1086.5 336 c 128,-1,25
 1192 462 1192 462 1192 667 c 0,26,27
 1192 875 1192 875 1086.5 1001 c 128,-1,18
 981 1127 981 1127 810 1127 c 128,-1,19
EndSplineSet
EndChar

StartChar: P
Encoding: 80 80 50
Width: 1318
GlyphClass: 2
Flags: W
LayerCount: 2
Fore
SplineSet
180 0 m 1,0,-1
 180 1336 l 1,1,-1
 704 1336 l 2,2,3
 818 1336 818 1336 912 1310 c 128,-1,4
 1006 1284 1006 1284 1076.5 1233.5 c 128,-1,5
 1147 1183 1147 1183 1186 1102 c 128,-1,6
 1225 1021 1225 1021 1225 916 c 0,7,8
 1225 821 1225 821 1197.5 744 c 128,-1,9
 1170 667 1170 667 1111 605 c 128,-1,10
 1052 543 1052 543 948.5 509 c 128,-1,11
 845 475 845 475 704 475 c 0,12,13
 546 475 546 475 468 482 c 1,14,-1
 468 0 l 1,15,-1
 180 0 l 1,0,-1
678 670 m 0,16,17
 737 670 737 670 782 679 c 128,-1,18
 827 688 827 688 854.5 707 c 128,-1,19
 882 726 882 726 899.5 746 c 128,-1,20
 917 766 917 766 924.5 796.5 c 128,-1,21
 932 827 932 827 934.5 850.5 c 128,-1,22
 937 874 937 874 937 908 c 0,23,24
 937 1126 937 1126 705 1126 c 2,25,-1
 468 1126 l 1,26,-1
 468 671 l 1,27,28
 496 670 496 670 678 670 c 0,16,17
EndSplineSet
EndChar

StartChar: Q
Encoding: 81 81 51
Width: 1618
GlyphClass: 2
Flags: W
LayerCount: 2
Fore
SplineSet
1329 -313 m 1,0,-1
 1160 -460 l 1,1,2
 1028 -366 1028 -366 838 -16 c 1,3,-1
 1077 43 l 1,4,5
 1078 41 1078 41 1098.5 6.5 c 128,-1,6
 1119 -28 1119 -28 1128 -42.5 c 128,-1,7
 1137 -57 1137 -57 1159.5 -92.5 c 128,-1,8
 1182 -128 1182 -128 1198.5 -151 c 128,-1,9
 1215 -174 1215 -174 1237.5 -205.5 c 128,-1,10
 1260 -237 1260 -237 1283 -263.5 c 128,-1,11
 1306 -290 1306 -290 1329 -313 c 1,0,-1
810 -18 m 128,-1,13
 663 -18 663 -18 539.5 29 c 128,-1,14
 416 76 416 76 327 163 c 128,-1,15
 238 250 238 250 188 380 c 128,-1,16
 138 510 138 510 138 669 c 0,17,18
 138 830 138 830 188 960 c 128,-1,19
 238 1090 238 1090 327.5 1177 c 128,-1,20
 417 1264 417 1264 540 1310.5 c 128,-1,21
 663 1357 663 1357 810 1357 c 128,-1,22
 957 1357 957 1357 1080 1310.5 c 128,-1,23
 1203 1264 1203 1264 1292 1177 c 128,-1,24
 1381 1090 1381 1090 1430.5 960 c 128,-1,25
 1480 830 1480 830 1480 669 c 0,26,27
 1480 510 1480 510 1430.5 380 c 128,-1,28
 1381 250 1381 250 1292.5 163 c 128,-1,29
 1204 76 1204 76 1080.5 29 c 128,-1,12
 957 -18 957 -18 810 -18 c 128,-1,13
810 1127 m 128,-1,31
 639 1127 639 1127 532.5 1001 c 128,-1,32
 426 875 426 875 426 667 c 0,33,34
 426 462 426 462 532.5 336 c 128,-1,35
 639 210 639 210 810 210 c 128,-1,36
 981 210 981 210 1086.5 336 c 128,-1,37
 1192 462 1192 462 1192 667 c 0,38,39
 1192 875 1192 875 1086.5 1001 c 128,-1,30
 981 1127 981 1127 810 1127 c 128,-1,31
EndSplineSet
EndChar

StartChar: R
Encoding: 82 82 52
Width: 1366
GlyphClass: 2
Flags: W
LayerCount: 2
Fore
SplineSet
693 742 m 2,0,1
 827 742 827 742 883 789.5 c 128,-1,2
 939 837 939 837 939 943 c 0,3,4
 939 1035 939 1035 882 1080.5 c 128,-1,5
 825 1126 825 1126 703 1126 c 2,6,-1
 468 1126 l 1,7,-1
 468 742 l 1,8,-1
 693 742 l 2,0,1
180 0 m 1,9,-1
 180 1336 l 1,10,-1
 690 1336 l 2,11,12
 787 1336 787 1336 864 1325.5 c 128,-1,13
 941 1315 941 1315 1010.5 1288.5 c 128,-1,14
 1080 1262 1080 1262 1126.5 1218.5 c 128,-1,15
 1173 1175 1173 1175 1200 1106.5 c 128,-1,16
 1227 1038 1227 1038 1227 947 c 0,17,18
 1227 820 1227 820 1156.5 727 c 128,-1,19
 1086 634 1086 634 970 587 c 1,20,21
 1010 535 1010 535 1080 391 c 1,22,-1
 1277 0 l 1,23,-1
 974 0 l 1,24,-1
 811 331 l 1,25,26
 783 391 783 391 711 530 c 1,27,28
 694 531 694 531 639 531 c 2,29,-1
 468 531 l 1,30,-1
 468 0 l 1,31,-1
 180 0 l 1,9,-1
EndSplineSet
EndChar

StartChar: S
Encoding: 83 83 53
Width: 1191
GlyphClass: 2
Flags: W
LayerCount: 2
Fore
SplineSet
580 -18 m 0,0,1
 320 -18 320 -18 135 87 c 1,2,-1
 218 303 l 1,3,4
 277 265 277 265 385 237.5 c 128,-1,5
 493 210 493 210 590 210 c 0,6,7
 697 210 697 210 748.5 252 c 128,-1,8
 800 294 800 294 800 385 c 0,9,10
 800 494 800 494 648 544 c 2,11,-1
 424 617 l 2,12,13
 298 658 298 658 228 747.5 c 128,-1,14
 158 837 158 837 158 975 c 0,15,16
 158 1159 158 1159 286.5 1258.5 c 128,-1,17
 415 1358 415 1358 623 1358 c 0,18,19
 866 1358 866 1358 1054 1251 c 1,20,-1
 972 1035 l 1,21,22
 758 1128 758 1128 634 1128 c 0,23,24
 531 1128 531 1128 479 1093 c 128,-1,25
 427 1058 427 1058 427 980 c 0,26,27
 427 885 427 885 525 853 c 2,28,-1
 733 783 l 2,29,30
 913 723 913 723 993 631.5 c 128,-1,31
 1073 540 1073 540 1073 381 c 0,32,33
 1073 189 1073 189 938 85.5 c 128,-1,34
 803 -18 803 -18 580 -18 c 0,0,1
EndSplineSet
EndChar

StartChar: T
Encoding: 84 84 54
Width: 1258
GlyphClass: 2
Flags: W
LayerCount: 2
Fore
SplineSet
1146 1336 m 1,0,-1
 1146 1126 l 1,1,-1
 775 1126 l 1,2,-1
 775 0 l 1,3,-1
 487 0 l 1,4,-1
 487 1126 l 1,5,-1
 112 1126 l 1,6,-1
 112 1336 l 1,7,-1
 1146 1336 l 1,0,-1
EndSplineSet
EndChar

StartChar: U
Encoding: 85 85 55
Width: 1448
GlyphClass: 2
Flags: W
LayerCount: 2
Fore
SplineSet
724 -18 m 0,0,1
 463 -18 463 -18 315.5 115.5 c 128,-1,2
 168 249 168 249 168 485 c 2,3,-1
 168 1336 l 1,4,-1
 456 1336 l 1,5,-1
 456 504 l 2,6,7
 456 213 456 213 724 213 c 0,8,9
 860 213 860 213 926 285.5 c 128,-1,10
 992 358 992 358 992 505 c 2,11,-1
 992 1336 l 1,12,-1
 1280 1336 l 1,13,-1
 1280 484 l 2,14,15
 1280 250 1280 250 1132 116 c 128,-1,16
 984 -18 984 -18 724 -18 c 0,0,1
EndSplineSet
EndChar

StartChar: V
Encoding: 86 86 56
Width: 1478
GlyphClass: 2
Flags: W
LayerCount: 2
Fore
SplineSet
902 0 m 1,0,-1
 574 0 l 1,1,-1
 122 1336 l 1,2,-1
 430 1336 l 1,3,-1
 661 586 l 1,4,-1
 743 307 l 1,5,-1
 823 587 l 1,6,-1
 1050 1336 l 1,7,-1
 1356 1336 l 1,8,-1
 902 0 l 1,0,-1
EndSplineSet
EndChar

StartChar: W
Encoding: 87 87 57
Width: 1942
GlyphClass: 2
Flags: W
LayerCount: 2
Fore
SplineSet
842 1330 m 1,0,-1
 1101 1330 l 1,1,-1
 1367 373 l 1,2,-1
 1611 1336 l 1,3,-1
 1892 1336 l 1,4,-1
 1509 0 l 1,5,-1
 1237 0 l 1,6,-1
 972 963 l 1,7,-1
 686 0 l 1,8,-1
 416 0 l 1,9,-1
 50 1336 l 1,10,-1
 332 1336 l 1,11,-1
 563 376 l 1,12,-1
 842 1330 l 1,0,-1
EndSplineSet
EndChar

StartChar: X
Encoding: 88 88 58
Width: 1382
GlyphClass: 2
Flags: W
LayerCount: 2
Fore
SplineSet
851 682 m 1,0,-1
 1309 0 l 1,1,-1
 997 0 l 1,2,-1
 687 456 l 1,3,-1
 369 0 l 1,4,-1
 73 0 l 1,5,-1
 532 687 l 1,6,-1
 105 1336 l 1,7,-1
 410 1336 l 1,8,-1
 699 880 l 1,9,-1
 996 1336 l 1,10,-1
 1287 1336 l 1,11,-1
 851 682 l 1,0,-1
EndSplineSet
EndChar

StartChar: Y
Encoding: 89 89 59
Width: 1353
GlyphClass: 2
Flags: W
LayerCount: 2
Fore
SplineSet
676 749 m 1,0,-1
 963 1336 l 1,1,-1
 1261 1336 l 1,2,-1
 817 499 l 1,3,-1
 817 0 l 1,4,-1
 535 0 l 1,5,-1
 535 495 l 1,6,-1
 92 1336 l 1,7,-1
 395 1336 l 1,8,-1
 676 749 l 1,0,-1
EndSplineSet
EndChar

StartChar: Z
Encoding: 90 90 60
Width: 1249
GlyphClass: 2
Flags: W
LayerCount: 2
Fore
SplineSet
170 1336 m 1,0,-1
 1092 1336 l 1,1,-1
 1092 1150 l 1,2,-1
 533 216 l 1,3,-1
 1101 216 l 1,4,-1
 1101 0 l 1,5,-1
 163 0 l 1,6,-1
 163 172 l 1,7,-1
 752 1126 l 1,8,-1
 170 1126 l 1,9,-1
 170 1336 l 1,0,-1
EndSplineSet
EndChar

StartChar: bracketleft
Encoding: 91 91 61
Width: 756
GlyphClass: 2
Flags: W
LayerCount: 2
Fore
SplineSet
443 1254 m 1,0,-1
 443 73 l 1,1,-1
 630 73 l 1,2,-1
 630 -108 l 1,3,-1
 198 -108 l 1,4,-1
 198 1434 l 1,5,-1
 630 1434 l 1,6,-1
 630 1254 l 1,7,-1
 443 1254 l 1,0,-1
EndSplineSet
EndChar

StartChar: backslash
Encoding: 92 92 62
Width: 843
GlyphClass: 2
Flags: W
LayerCount: 2
Fore
SplineSet
539 0 m 1,0,-1
 98 1336 l 1,1,-1
 329 1336 l 1,2,-1
 765 0 l 1,3,-1
 539 0 l 1,0,-1
EndSplineSet
EndChar

StartChar: bracketright
Encoding: 93 93 63
Width: 756
GlyphClass: 2
Flags: W
LayerCount: 2
Fore
SplineSet
313 72 m 1,0,-1
 313 1253 l 1,1,-1
 126 1253 l 1,2,-1
 126 1434 l 1,3,-1
 558 1434 l 1,4,-1
 558 -108 l 1,5,-1
 126 -108 l 1,6,-1
 126 72 l 1,7,-1
 313 72 l 1,0,-1
EndSplineSet
EndChar

StartChar: asciicircum
Encoding: 94 94 64
Width: 1081
GlyphClass: 2
Flags: W
LayerCount: 2
Fore
SplineSet
46 491 m 1,0,-1
 465 1347 l 1,1,-1
 590 1347 l 1,2,-1
 1035 491 l 1,3,-1
 826 491 l 1,4,-1
 529 1075 l 1,5,-1
 255 491 l 1,6,-1
 46 491 l 1,0,-1
EndSplineSet
EndChar

StartChar: underscore
Encoding: 95 95 65
Width: 1012
GlyphClass: 2
Flags: W
LayerCount: 2
Fore
SplineSet
49 -175 m 1,0,-1
 49 0 l 1,1,-1
 963 0 l 1,2,-1
 963 -175 l 1,3,-1
 49 -175 l 1,0,-1
EndSplineSet
EndChar

StartChar: grave
Encoding: 96 96 66
Width: 447
GlyphClass: 2
Flags: W
LayerCount: 2
Fore
SplineSet
291 1081 m 1,0,-1
 -20 1442 l 1,1,-1
 279 1442 l 1,2,-1
 456 1081 l 1,3,-1
 291 1081 l 1,0,-1
EndSplineSet
EndChar

StartChar: a
Encoding: 97 97 67
Width: 1132
GlyphClass: 2
Flags: W
LayerCount: 2
Fore
SplineSet
473 -18 m 0,0,1
 333 -18 333 -18 243.5 59 c 128,-1,2
 154 136 154 136 154 284 c 0,3,4
 154 444 154 444 258 522 c 128,-1,5
 362 600 362 600 564 621 c 0,6,7
 584 623 584 623 643 629.5 c 128,-1,8
 702 636 702 636 739 641 c 1,9,-1
 739 689 l 2,10,11
 739 775 739 775 700.5 813.5 c 128,-1,12
 662 852 662 852 583 852 c 0,13,14
 519 852 519 852 424.5 830 c 128,-1,15
 330 808 330 808 252 776 c 1,16,-1
 192 953 l 1,17,18
 401 1041 401 1041 614 1041 c 0,19,20
 813 1041 813 1041 903.5 950.5 c 128,-1,21
 994 860 994 860 994 660 c 2,22,-1
 994 0 l 1,23,-1
 804 0 l 1,24,25
 804 2 804 2 789 67 c 128,-1,26
 774 132 774 132 769 153 c 1,27,28
 653 -18 653 -18 473 -18 c 0,0,1
535 162 m 0,29,30
 607 162 607 162 664 202.5 c 128,-1,31
 721 243 721 243 738 281 c 1,32,-1
 738 482 l 1,33,-1
 659 473 l 1,34,35
 529 462 529 462 469.5 418 c 128,-1,36
 410 374 410 374 410 287 c 0,37,38
 410 227 410 227 441.5 194.5 c 128,-1,39
 473 162 473 162 535 162 c 0,29,30
EndSplineSet
EndChar

StartChar: b
Encoding: 98 98 68
Width: 1236
GlyphClass: 2
Flags: W
LayerCount: 2
Fore
SplineSet
705 -18 m 0,0,1
 611 -18 611 -18 536 23 c 128,-1,2
 461 64 461 64 417 127 c 1,3,-1
 397 1 l 1,4,-1
 176 1 l 1,5,-1
 176 1376 l 1,6,-1
 432 1393 l 1,7,-1
 432 1079 l 2,8,9
 432 1050 432 1050 429.5 989.5 c 128,-1,10
 427 929 427 929 426 908 c 1,11,12
 537 1041 537 1041 709 1041 c 0,13,14
 899 1041 899 1041 1008.5 895.5 c 128,-1,15
 1118 750 1118 750 1118 519 c 0,16,17
 1118 279 1118 279 1005.5 130.5 c 128,-1,18
 893 -18 893 -18 705 -18 c 0,0,1
648 179 m 0,19,20
 745 179 745 179 803.5 265.5 c 128,-1,21
 862 352 862 352 862 516 c 0,22,23
 862 681 862 681 805.5 763 c 128,-1,24
 749 845 749 845 651 845 c 0,25,26
 430 845 430 845 427 527 c 1,27,28
 427 344 427 344 482.5 261.5 c 128,-1,29
 538 179 538 179 648 179 c 0,19,20
EndSplineSet
EndChar

StartChar: c
Encoding: 99 99 69
Width: 1024
GlyphClass: 2
Flags: W
LayerCount: 2
Fore
SplineSet
612 -18 m 0,0,1
 386 -18 386 -18 252 121.5 c 128,-1,2
 118 261 118 261 118 516 c 0,3,4
 118 640 118 640 156.5 740.5 c 128,-1,5
 195 841 195 841 262.5 906.5 c 128,-1,6
 330 972 330 972 420 1006.5 c 128,-1,7
 510 1041 510 1041 615 1041 c 0,8,9
 796 1041 796 1041 916 959 c 1,10,-1
 856 781 l 1,11,12
 758 840 758 840 645 840 c 0,13,14
 529 840 529 840 451.5 755.5 c 128,-1,15
 374 671 374 671 374 513 c 128,-1,16
 374 355 374 355 448 272 c 128,-1,17
 522 189 522 189 638 183 c 0,18,19
 749 177 749 177 873 247 c 1,20,-1
 906 64 l 1,21,22
 885 49 885 49 870 40.5 c 128,-1,23
 855 32 855 32 818.5 15.5 c 128,-1,24
 782 -1 782 -1 729.5 -9.5 c 128,-1,25
 677 -18 677 -18 612 -18 c 0,0,1
EndSplineSet
EndChar

StartChar: d
Encoding: 100 100 70
Width: 1236
GlyphClass: 2
Flags: W
LayerCount: 2
Fore
SplineSet
539 -17 m 0,0,1
 345 -17 345 -17 231.5 130 c 128,-1,2
 118 277 118 277 118 517 c 0,3,4
 118 752 118 752 231.5 896.5 c 128,-1,5
 345 1041 345 1041 539 1041 c 0,6,7
 720 1041 720 1041 812 920 c 1,8,9
 804 1006 804 1006 804 1052 c 2,10,-1
 804 1376 l 1,11,-1
 1060 1393 l 1,12,-1
 1060 0 l 1,13,-1
 840 0 l 1,14,-1
 816 117 l 1,15,16
 792 80 792 80 764 53.5 c 128,-1,17
 736 27 736 27 677 5 c 128,-1,18
 618 -17 618 -17 539 -17 c 0,0,1
595 179 m 0,19,20
 703 179 703 179 758.5 254 c 128,-1,21
 814 329 814 329 815 497 c 1,22,23
 815 681 815 681 760 762 c 128,-1,24
 705 843 705 843 593 843 c 0,25,26
 494 843 494 843 434 760 c 128,-1,27
 374 677 374 677 374 512 c 0,28,29
 374 348 374 348 434.5 263.5 c 128,-1,30
 495 179 495 179 595 179 c 0,19,20
EndSplineSet
EndChar

StartChar: e
Encoding: 101 101 71
Width: 1196
GlyphClass: 2
Flags: W
LayerCount: 2
Fore
SplineSet
383 613 m 1,0,-1
 824 613 l 1,1,2
 821 723 821 723 765 788.5 c 128,-1,3
 709 854 709 854 621 854 c 0,4,5
 537 854 537 854 466.5 790.5 c 128,-1,6
 396 727 396 727 383 613 c 1,0,-1
657 -18 m 0,7,8
 417 -18 417 -18 267.5 125.5 c 128,-1,9
 118 269 118 269 118 512 c 0,10,11
 118 748 118 748 259 894 c 128,-1,12
 400 1040 400 1040 619 1041 c 0,13,14
 825 1041 825 1041 944.5 907 c 128,-1,15
 1064 773 1064 773 1064 558 c 1,16,-1
 1057 448 l 1,17,-1
 377 448 l 1,18,19
 387 318 387 318 468.5 246 c 128,-1,20
 550 174 550 174 681 174 c 0,21,22
 834 174 834 174 1002 250 c 1,23,-1
 1037 70 l 1,24,25
 899 -18 899 -18 657 -18 c 0,7,8
EndSplineSet
EndChar

StartChar: f
Encoding: 102 102 72
Width: 864
GlyphClass: 2
Flags: W
LayerCount: 2
Fore
SplineSet
279 0 m 1,0,-1
 279 839 l 1,1,-1
 133 839 l 1,2,-1
 138 998 l 1,3,-1
 279 1015 l 1,4,-1
 279 1061 l 2,5,6
 279 1166 279 1166 304 1238.5 c 128,-1,7
 329 1311 329 1311 377 1349.5 c 128,-1,8
 425 1388 425 1388 483.5 1404 c 128,-1,9
 542 1420 542 1420 620 1420 c 0,10,11
 710 1420 710 1420 808 1401 c 1,12,-1
 785 1208 l 1,13,14
 719 1219 719 1219 666 1219 c 0,15,16
 597 1219 597 1219 566 1191 c 128,-1,17
 535 1163 535 1163 535 1074 c 2,18,-1
 535 1016 l 1,19,-1
 763 1016 l 1,20,-1
 763 839 l 1,21,-1
 535 839 l 1,22,-1
 535 0 l 1,23,-1
 279 0 l 1,0,-1
EndSplineSet
EndChar

StartChar: g
Encoding: 103 103 73
Width: 1216
GlyphClass: 2
Flags: W
LayerCount: 2
Fore
SplineSet
589 195 m 0,0,1
 651 195 651 195 693.5 217 c 128,-1,2
 736 239 736 239 759.5 282.5 c 128,-1,3
 783 326 783 326 793 380 c 128,-1,4
 803 434 803 434 804 508 c 1,5,-1
 804 536 l 2,6,7
 804 687 804 687 755.5 764.5 c 128,-1,8
 707 842 707 842 602 843 c 1,9,10
 374 843 374 843 374 526 c 0,11,12
 374 431 374 431 396 358.5 c 128,-1,13
 418 286 418 286 467.5 240.5 c 128,-1,14
 517 195 517 195 589 195 c 0,0,1
526 -439 m 0,15,16
 373 -439 373 -439 274 -402 c 1,17,-1
 290 -207 l 1,18,19
 308 -209 308 -209 343.5 -217.5 c 128,-1,20
 379 -226 379 -226 417.5 -231.5 c 128,-1,21
 456 -237 456 -237 501 -237 c 0,22,23
 580 -237 580 -237 639.5 -211 c 128,-1,24
 699 -185 699 -185 733.5 -139 c 128,-1,25
 768 -93 768 -93 784.5 -36.5 c 128,-1,26
 801 20 801 20 801 87 c 0,27,28
 801 130 801 130 798 156 c 1,29,30
 768 87 768 87 697.5 43.5 c 128,-1,31
 627 0 627 0 528 0 c 0,32,33
 336 0 336 0 227 142.5 c 128,-1,34
 118 285 118 285 118 519 c 0,35,36
 118 763 118 763 236.5 902 c 128,-1,37
 355 1041 355 1041 537 1041 c 0,38,39
 640 1041 640 1041 704 1007.5 c 128,-1,40
 768 974 768 974 809 893 c 1,41,-1
 822 1017 l 1,42,-1
 1049 1017 l 1,43,-1
 1049 185 l 2,44,45
 1049 49 1049 49 1020 -61.5 c 128,-1,46
 991 -172 991 -172 930.5 -258 c 128,-1,47
 870 -344 870 -344 767 -391.5 c 128,-1,48
 664 -439 664 -439 526 -439 c 0,15,16
EndSplineSet
EndChar

StartChar: h
Encoding: 104 104 74
Width: 1206
GlyphClass: 2
Flags: W
LayerCount: 2
Fore
SplineSet
176 1376 m 1,0,-1
 432 1393 l 1,1,-1
 432 1102 l 2,2,3
 432 1100 432 1100 425 918 c 1,4,5
 542 1041 542 1041 715 1041 c 0,6,7
 881 1041 881 1041 974.5 942 c 128,-1,8
 1068 843 1068 843 1068 641 c 2,9,-1
 1068 0 l 1,10,-1
 812 0 l 1,11,-1
 812 618 l 2,12,13
 812 738 812 738 778 791 c 128,-1,14
 744 844 744 844 659 844 c 0,15,16
 604 844 604 844 563 827 c 128,-1,17
 522 810 522 810 496.5 780.5 c 128,-1,18
 471 751 471 751 455.5 705 c 128,-1,19
 440 659 440 659 434.5 608 c 128,-1,20
 429 557 429 557 429 491 c 2,21,-1
 429 0 l 1,22,-1
 176 0 l 1,23,-1
 176 1376 l 1,0,-1
EndSplineSet
EndChar

StartChar: i
Encoding: 105 105 75
Width: 592
GlyphClass: 2
Flags: W
LayerCount: 2
Fore
SplineSet
168 0 m 1,0,-1
 168 1016 l 1,1,-1
 424 1016 l 1,2,-1
 424 0 l 1,3,-1
 168 0 l 1,0,-1
168 1157 m 1,4,-1
 168 1375 l 1,5,-1
 424 1375 l 1,6,-1
 424 1157 l 1,7,-1
 168 1157 l 1,4,-1
EndSplineSet
EndChar

StartChar: j
Encoding: 106 106 76
Width: 591
GlyphClass: 2
Flags: W
LayerCount: 2
Fore
SplineSet
218 1157 m 1,0,-1
 218 1375 l 1,1,-1
 471 1375 l 1,2,-1
 471 1157 l 1,3,-1
 218 1157 l 1,0,-1
31 -379 m 1,4,-1
 2 -187 l 1,5,-1
 64 -187 l 2,6,7
 107 -187 107 -187 134 -181.5 c 128,-1,8
 161 -176 161 -176 178.5 -165 c 128,-1,9
 196 -154 196 -154 204.5 -130.5 c 128,-1,10
 213 -107 213 -107 215.5 -79.5 c 128,-1,11
 218 -52 218 -52 218 -4 c 2,12,-1
 218 1017 l 1,13,-1
 471 1017 l 1,14,-1
 471 40 l 2,15,16
 471 -49 471 -49 462 -111.5 c 128,-1,17
 453 -174 453 -174 429 -227.5 c 128,-1,18
 405 -281 405 -281 362.5 -312.5 c 128,-1,19
 320 -344 320 -344 253 -361.5 c 128,-1,20
 186 -379 186 -379 91 -379 c 2,21,-1
 31 -379 l 1,4,-1
EndSplineSet
EndChar

StartChar: k
Encoding: 107 107 77
Width: 1185
GlyphClass: 2
Flags: W
LayerCount: 2
Fore
SplineSet
176 1376 m 1,0,-1
 432 1392 l 1,1,-1
 432 785 l 1,2,-1
 427 582 l 1,3,-1
 789 1016 l 1,4,-1
 1112 1016 l 1,5,-1
 723 555 l 1,6,-1
 1136 0 l 1,7,-1
 835 0 l 1,8,-1
 516 432 l 1,9,-1
 432 354 l 1,10,-1
 432 0 l 1,11,-1
 176 0 l 1,12,-1
 176 1376 l 1,0,-1
EndSplineSet
EndChar

StartChar: l
Encoding: 108 108 78
Width: 647
GlyphClass: 2
Flags: W
LayerCount: 2
Fore
SplineSet
514 -13 m 0,0,1
 431 -13 431 -13 372 4 c 128,-1,2
 313 21 313 21 274.5 52.5 c 128,-1,3
 236 84 236 84 214 136 c 128,-1,4
 192 188 192 188 183 251 c 128,-1,5
 174 314 174 314 174 401 c 2,6,-1
 174 1376 l 1,7,-1
 430 1393 l 1,8,-1
 430 404 l 2,9,10
 430 306 430 306 443.5 256.5 c 128,-1,11
 457 207 457 207 480.5 192.5 c 128,-1,12
 504 178 504 178 550 178 c 0,13,14
 567 178 567 178 599.5 182.5 c 128,-1,15
 632 187 632 187 633 187 c 2,16,-1
 627 7 l 1,17,18
 580 -13 580 -13 514 -13 c 0,0,1
EndSplineSet
EndChar

StartChar: m
Encoding: 109 109 79
Width: 1765
GlyphClass: 2
Flags: W
LayerCount: 2
Fore
SplineSet
432 494 m 2,0,-1
 432 0 l 1,1,-1
 176 0 l 1,2,-1
 176 1016 l 1,3,-1
 384 1016 l 1,4,-1
 408 903 l 1,5,6
 432 931 432 931 453.5 950.5 c 128,-1,7
 475 970 475 970 511.5 993 c 128,-1,8
 548 1016 548 1016 599.5 1028.5 c 128,-1,9
 651 1041 651 1041 714 1041 c 0,10,11
 907 1041 907 1041 988 892 c 1,12,13
 1102 1041 1102 1041 1289 1041 c 0,14,15
 1627 1041 1627 1041 1627 646 c 2,16,-1
 1627 0 l 1,17,-1
 1371 0 l 1,18,-1
 1371 579 l 2,19,20
 1371 723 1371 723 1341.5 783.5 c 128,-1,21
 1312 844 1312 844 1229 844 c 0,22,23
 1178 844 1178 844 1141.5 826 c 128,-1,24
 1105 808 1105 808 1083.5 772.5 c 128,-1,25
 1062 737 1062 737 1050.5 695.5 c 128,-1,26
 1039 654 1039 654 1032 596 c 1,27,-1
 1032 0 l 1,28,-1
 776 0 l 1,29,-1
 776 590 l 2,30,31
 776 725 776 725 748.5 784.5 c 128,-1,32
 721 844 721 844 639 844 c 0,33,34
 585 844 585 844 547 826 c 128,-1,35
 509 808 509 808 486.5 779 c 128,-1,36
 464 750 464 750 452 702.5 c 128,-1,37
 440 655 440 655 436 608 c 128,-1,38
 432 561 432 561 432 494 c 2,0,-1
EndSplineSet
EndChar

StartChar: n
Encoding: 110 110 80
Width: 1243
GlyphClass: 2
Flags: W
LayerCount: 2
Fore
SplineSet
176 0 m 1,0,-1
 176 1016 l 1,1,-1
 384 1016 l 1,2,-1
 408 902 l 1,3,4
 472 963 472 963 564 1002 c 128,-1,5
 656 1041 656 1041 757 1041 c 0,6,7
 930 1041 930 1041 1017.5 936.5 c 128,-1,8
 1105 832 1105 832 1105 640 c 2,9,-1
 1105 0 l 1,10,-1
 849 0 l 1,11,-1
 849 612 l 1,12,13
 848 732 848 732 815 788 c 128,-1,14
 782 844 782 844 692 844 c 0,15,16
 552 844 552 844 492 754.5 c 128,-1,17
 432 665 432 665 432 496 c 2,18,-1
 432 0 l 1,19,-1
 176 0 l 1,0,-1
EndSplineSet
EndChar

StartChar: o
Encoding: 111 111 81
Width: 1236
GlyphClass: 2
Flags: W
LayerCount: 2
Fore
SplineSet
618 -18 m 0,0,1
 395 -18 395 -18 256.5 127 c 128,-1,2
 118 272 118 272 118 512 c 0,3,4
 118 759 118 759 252 900 c 128,-1,5
 386 1041 386 1041 618 1041 c 0,6,7
 842 1041 842 1041 980 897 c 128,-1,8
 1118 753 1118 753 1118 512 c 0,9,10
 1118 267 1118 267 983.5 124.5 c 128,-1,11
 849 -18 849 -18 618 -18 c 0,0,1
618 178 m 128,-1,13
 733 178 733 178 797.5 263 c 128,-1,14
 862 348 862 348 862 512 c 0,15,16
 862 673 862 673 797.5 758.5 c 128,-1,17
 733 844 733 844 618 844 c 0,18,19
 504 844 504 844 439 758.5 c 128,-1,20
 374 673 374 673 374 512 c 0,21,22
 374 349 374 349 438.5 263.5 c 128,-1,12
 503 178 503 178 618 178 c 128,-1,13
EndSplineSet
EndChar

StartChar: p
Encoding: 112 112 82
Width: 1236
GlyphClass: 2
Flags: W
LayerCount: 2
Fore
SplineSet
176 1016 m 1,0,-1
 397 1016 l 1,1,-1
 419 906 l 1,2,3
 467 963 467 963 548.5 1002 c 128,-1,4
 630 1041 630 1041 721 1041 c 0,5,6
 842 1041 842 1041 933 970 c 128,-1,7
 1024 899 1024 899 1071 779.5 c 128,-1,8
 1118 660 1118 660 1118 513 c 0,9,10
 1118 360 1118 360 1068.5 240 c 128,-1,11
 1019 120 1019 120 923 51 c 128,-1,12
 827 -18 827 -18 700 -18 c 0,13,14
 537 -18 537 -18 427 99 c 1,15,16
 432 24 432 24 432 -15 c 2,17,-1
 432 -395 l 1,18,-1
 176 -408 l 1,19,-1
 176 1016 l 1,0,-1
652 179 m 0,20,21
 749 179 749 179 805.5 265 c 128,-1,22
 862 351 862 351 862 515 c 0,23,24
 862 682 862 682 805 763 c 128,-1,25
 748 844 748 844 648 844 c 0,26,27
 542 844 542 844 486.5 769 c 128,-1,28
 431 694 431 694 430 530 c 1,29,30
 430 345 430 345 485.5 262 c 128,-1,31
 541 179 541 179 652 179 c 0,20,21
EndSplineSet
EndChar

StartChar: q
Encoding: 113 113 83
Width: 1236
GlyphClass: 2
Flags: W
LayerCount: 2
Fore
SplineSet
1060 1016 m 1,0,-1
 1060 -393 l 1,1,-1
 804 -408 l 1,2,-1
 804 16 l 2,3,4
 804 53 804 53 807 107 c 1,5,6
 717 -18 717 -18 545 -18 c 0,7,8
 352 -18 352 -18 235 130 c 128,-1,9
 118 278 118 278 118 513 c 0,10,11
 118 666 118 666 166.5 784.5 c 128,-1,12
 215 903 215 903 311.5 972 c 128,-1,13
 408 1041 408 1041 541 1041 c 0,14,15
 717 1041 717 1041 819 907 c 1,16,-1
 835 1016 l 1,17,-1
 1060 1016 l 1,0,-1
591 177 m 0,18,19
 699 177 699 177 755.5 252 c 128,-1,20
 812 327 812 327 814 495 c 1,21,22
 814 678 814 678 757 760.5 c 128,-1,23
 700 843 700 843 588 843 c 0,24,25
 488 843 488 843 431 761 c 128,-1,26
 374 679 374 679 374 511 c 0,27,28
 374 344 374 344 431 260.5 c 128,-1,29
 488 177 488 177 591 177 c 0,18,19
EndSplineSet
EndChar

StartChar: r
Encoding: 114 114 84
Width: 864
GlyphClass: 2
Flags: W
LayerCount: 2
Fore
SplineSet
176 1016 m 1,0,-1
 392 1016 l 1,1,-1
 420 860 l 1,2,3
 468 929 468 929 552.5 975 c 128,-1,4
 637 1021 637 1021 724 1021 c 0,5,6
 768 1021 768 1021 795 1015 c 1,7,-1
 791 799 l 1,8,9
 747 807 747 807 707 807 c 0,10,11
 579 807 579 807 505.5 738 c 128,-1,12
 432 669 432 669 432 551 c 2,13,-1
 432 0 l 1,14,-1
 176 0 l 1,15,-1
 176 1016 l 1,0,-1
EndSplineSet
EndChar

StartChar: s
Encoding: 115 115 85
Width: 993
GlyphClass: 2
Flags: W
LayerCount: 2
Fore
SplineSet
519 -17 m 0,0,1
 451 -17 451 -17 385 -2 c 128,-1,2
 319 13 319 13 271.5 35.5 c 128,-1,3
 224 58 224 58 198 73.5 c 128,-1,4
 172 89 172 89 159 99 c 1,5,-1
 204 277 l 1,6,7
 269 234 269 234 359.5 199.5 c 128,-1,8
 450 165 450 165 519 167 c 0,9,10
 590 169 590 169 620 195 c 128,-1,11
 650 221 650 221 652 275 c 0,12,13
 652 289 652 289 649 300 c 128,-1,14
 646 311 646 311 636 322 c 128,-1,15
 626 333 626 333 618 340.5 c 128,-1,16
 610 348 610 348 589.5 359.5 c 128,-1,17
 569 371 569 371 557 377 c 128,-1,18
 545 383 545 383 514.5 398 c 128,-1,19
 484 413 484 413 467 421 c 2,20,-1
 415 447 l 1,21,22
 323 490 323 490 274.5 525 c 128,-1,23
 226 560 226 560 197.5 614.5 c 128,-1,24
 169 669 169 669 169 748 c 0,25,26
 169 890 169 890 263 965.5 c 128,-1,27
 357 1041 357 1041 527 1041 c 0,28,29
 688 1041 688 1041 862 953 c 1,30,-1
 804 781 l 1,31,32
 658 854 658 854 536 854 c 0,33,34
 396 854 396 854 396 768 c 0,35,36
 396 742 396 742 413 723 c 128,-1,37
 430 704 430 704 452 692 c 128,-1,38
 474 680 474 680 536 652 c 0,39,40
 557 642 557 642 569 637 c 2,41,-1
 624 612 l 2,42,43
 693 581 693 581 738 554 c 128,-1,44
 783 527 783 527 821 491 c 128,-1,45
 859 455 859 455 876.5 410 c 128,-1,46
 894 365 894 365 894 306 c 0,47,48
 894 151 894 151 796 67 c 128,-1,49
 698 -17 698 -17 519 -17 c 0,0,1
EndSplineSet
EndChar

StartChar: t
Encoding: 116 116 86
Width: 909
GlyphClass: 2
Flags: W
LayerCount: 2
Fore
SplineSet
641 -13 m 0,0,1
 446 -13 446 -13 362 86.5 c 128,-1,2
 278 186 278 186 277 392 c 1,3,-1
 277 853 l 1,4,-1
 116 853 l 1,5,-1
 130 1004 l 1,6,-1
 293 1016 l 1,7,-1
 351 1268 l 1,8,-1
 533 1268 l 1,9,-1
 533 1016 l 1,10,-1
 808 1016 l 1,11,-1
 808 852 l 1,12,-1
 533 852 l 1,13,-1
 533 386 l 2,14,15
 533 269 533 269 574 220.5 c 128,-1,16
 615 172 615 172 694 172 c 0,17,18
 721 172 721 172 750.5 176 c 128,-1,19
 780 180 780 180 797 184.5 c 128,-1,20
 814 189 814 189 817 191 c 1,21,-1
 850 20 l 1,22,23
 841 16 841 16 816 9.5 c 128,-1,24
 791 3 791 3 739.5 -5 c 128,-1,25
 688 -13 688 -13 641 -13 c 0,0,1
EndSplineSet
EndChar

StartChar: u
Encoding: 117 117 87
Width: 1206
GlyphClass: 2
Flags: W
LayerCount: 2
Fore
SplineSet
1030 1016 m 1,0,-1
 1030 0 l 1,1,-1
 826 0 l 1,2,-1
 802 125 l 1,3,4
 669 -24 669 -24 486 -24 c 0,5,6
 313 -24 313 -24 225.5 80.5 c 128,-1,7
 138 185 138 185 138 377 c 2,8,-1
 138 1016 l 1,9,-1
 394 1016 l 1,10,-1
 394 404 l 2,11,12
 394 283 394 283 427.5 227.5 c 128,-1,13
 461 172 461 172 551 172 c 0,14,15
 609 172 609 172 650 188.5 c 128,-1,16
 691 205 691 205 715 232 c 128,-1,17
 739 259 739 259 752.5 305.5 c 128,-1,18
 766 352 766 352 770 400.5 c 128,-1,19
 774 449 774 449 774 520 c 2,20,-1
 774 1016 l 1,21,-1
 1030 1016 l 1,0,-1
EndSplineSet
EndChar

StartChar: v
Encoding: 118 118 88
Width: 1126
GlyphClass: 2
Flags: W
LayerCount: 2
Fore
SplineSet
451 0 m 1,0,-1
 54 1016 l 1,1,-1
 325 1016 l 1,2,-1
 515 472 l 2,3,4
 533 422 533 422 577 275 c 1,5,6
 622 457 622 457 628 471 c 1,7,-1
 804 1016 l 1,8,-1
 1072 1016 l 1,9,-1
 697 0 l 1,10,-1
 451 0 l 1,0,-1
EndSplineSet
EndChar

StartChar: w
Encoding: 119 119 89
Width: 1605
GlyphClass: 2
Flags: W
LayerCount: 2
Fore
SplineSet
52 1016 m 1,0,-1
 301 1016 l 1,1,-1
 480 298 l 1,2,-1
 679 1016 l 1,3,-1
 933 1016 l 1,4,5
 933 1008 933 1008 1008.5 722.5 c 128,-1,6
 1084 437 1084 437 1122 300 c 1,7,-1
 1307 1016 l 1,8,-1
 1553 1016 l 1,9,-1
 1250 0 l 1,10,-1
 1004 0 l 1,11,12
 919 332 919 332 802 749 c 1,13,-1
 587 0 l 1,14,-1
 343 0 l 1,15,-1
 52 1016 l 1,0,-1
EndSplineSet
EndChar

StartChar: x
Encoding: 120 120 90
Width: 1135
GlyphClass: 2
Flags: W
LayerCount: 2
Fore
SplineSet
568 688 m 1,0,-1
 784 1016 l 1,1,-1
 1068 1016 l 1,2,-1
 729 521 l 1,3,-1
 1079 0 l 1,4,-1
 788 0 l 1,5,-1
 568 355 l 1,6,-1
 343 0 l 1,7,-1
 56 0 l 1,8,-1
 409 520 l 1,9,-1
 73 1016 l 1,10,-1
 361 1016 l 1,11,-1
 568 688 l 1,0,-1
EndSplineSet
EndChar

StartChar: y
Encoding: 121 121 91
Width: 1120
GlyphClass: 2
Flags: W
LayerCount: 2
Fore
SplineSet
323 -345 m 1,0,-1
 467 28 l 1,1,-1
 81 1016 l 1,2,-1
 346 1016 l 1,3,-1
 587 297 l 1,4,-1
 801 1016 l 1,5,-1
 1067 1016 l 1,6,-1
 558 -376 l 1,7,-1
 323 -345 l 1,0,-1
EndSplineSet
EndChar

StartChar: z
Encoding: 122 122 92
Width: 1024
GlyphClass: 2
Flags: W
LayerCount: 2
Fore
SplineSet
169 1016 m 1,0,-1
 901 1016 l 1,1,-1
 901 840 l 1,2,-1
 459 192 l 1,3,-1
 917 192 l 1,4,-1
 917 0 l 1,5,-1
 147 0 l 1,6,-1
 147 158 l 1,7,-1
 614 832 l 1,8,-1
 169 832 l 1,9,-1
 169 1016 l 1,0,-1
EndSplineSet
EndChar

StartChar: braceleft
Encoding: 123 123 93
Width: 691
GlyphClass: 2
Flags: W
LayerCount: 2
Fore
SplineSet
240 277 m 2,0,1
 240 381 240 381 201.5 419.5 c 128,-1,2
 163 458 163 458 49 458 c 2,3,-1
 39 458 l 1,4,-1
 39 671 l 1,5,-1
 49 671 l 1,6,7
 168 672 168 672 204 707.5 c 128,-1,8
 240 743 240 743 240 849 c 2,9,-1
 240 1112 l 2,10,11
 240 1265 240 1265 334.5 1324 c 128,-1,12
 429 1383 429 1383 630 1383 c 2,13,-1
 640 1383 l 1,14,-1
 640 1183 l 1,15,-1
 630 1183 l 1,16,17
 538 1182 538 1182 511.5 1153 c 128,-1,18
 485 1124 485 1124 485 1037 c 2,19,-1
 485 796 l 1,20,21
 484 708 484 708 444.5 654.5 c 128,-1,22
 405 601 405 601 318 564 c 1,23,24
 485 515 485 515 485 340 c 2,25,-1
 485 97 l 2,26,27
 485 10 485 10 511 -18 c 128,-1,28
 537 -46 537 -46 630 -47 c 1,29,-1
 640 -47 l 1,30,-1
 640 -245 l 1,31,-1
 630 -245 l 2,32,33
 427 -245 427 -245 333.5 -185.5 c 128,-1,34
 240 -126 240 -126 240 30 c 2,35,-1
 240 277 l 2,0,1
EndSplineSet
EndChar

StartChar: bar
Encoding: 124 124 94
Width: 605
GlyphClass: 2
Flags: W
LayerCount: 2
Fore
SplineSet
213 -256 m 1,0,-1
 213 1456 l 1,1,-1
 414 1456 l 1,2,-1
 414 -256 l 1,3,-1
 213 -256 l 1,0,-1
EndSplineSet
EndChar

StartChar: braceright
Encoding: 125 125 95
Width: 691
GlyphClass: 2
Flags: W
LayerCount: 2
Fore
SplineSet
80 -245 m 1,0,-1
 80 -47 l 1,1,2
 172 -46 172 -46 198 -18.5 c 128,-1,3
 224 9 224 9 224 97 c 2,4,-1
 224 340 l 2,5,6
 224 429 224 429 265.5 481.5 c 128,-1,7
 307 534 307 534 392 564 c 1,8,9
 308 595 308 595 266.5 650.5 c 128,-1,10
 225 706 225 706 224 796 c 1,11,-1
 224 1037 l 2,12,13
 224 1125 224 1125 198.5 1153.5 c 128,-1,14
 173 1182 173 1182 80 1183 c 1,15,-1
 80 1383 l 1,16,17
 181 1383 181 1383 249.5 1370.5 c 128,-1,18
 318 1358 318 1358 369.5 1327 c 128,-1,19
 421 1296 421 1296 445 1241 c 128,-1,20
 469 1186 469 1186 469 1104 c 2,21,-1
 469 848 l 2,22,23
 469 744 469 744 506 708 c 128,-1,24
 543 672 543 672 661 671 c 1,25,-1
 661 458 l 1,26,27
 546 458 546 458 507.5 420.5 c 128,-1,28
 469 383 469 383 469 277 c 2,29,-1
 469 22 l 2,30,31
 469 -130 469 -130 376.5 -187.5 c 128,-1,32
 284 -245 284 -245 80 -245 c 1,0,-1
EndSplineSet
EndChar

StartChar: asciitilde
Encoding: 126 126 96
Width: 1139
GlyphClass: 2
Flags: W
LayerCount: 2
Fore
SplineSet
196 433 m 1,0,-1
 112 571 l 1,1,2
 200 750 200 750 375 750 c 0,3,4
 474 750 474 750 610 691 c 1,5,6
 736 635 736 635 797 635 c 0,7,8
 894 635 894 635 999 753 c 1,9,-1
 1077 620 l 1,10,11
 1038 547 1038 547 957.5 495 c 128,-1,12
 877 443 877 443 783 443 c 0,13,14
 724 443 724 443 674 458.5 c 128,-1,15
 624 474 624 474 547 508 c 1,16,17
 489 536 489 536 450 548.5 c 128,-1,18
 411 561 411 561 367 561 c 0,19,20
 265 561 265 561 196 433 c 1,0,-1
EndSplineSet
EndChar

StartChar: exclamdown
Encoding: 161 161 98
Width: 386
GlyphClass: 2
Flags: W
LayerCount: 2
Fore
SplineSet
324 203 m 1,0,-1
 324 -4 l 1,1,-1
 89 -4 l 1,2,-1
 89 203 l 1,3,-1
 152 913 l 1,4,-1
 266 913 l 1,5,-1
 324 203 l 1,0,-1
202 1046 m 0,6,7
 140 1046 140 1046 97.5 1089.5 c 128,-1,8
 55 1133 55 1133 55 1193 c 128,-1,9
 55 1253 55 1253 97.5 1295.5 c 128,-1,10
 140 1338 140 1338 202 1338 c 128,-1,11
 264 1338 264 1338 306 1295.5 c 128,-1,12
 348 1253 348 1253 348 1193 c 128,-1,13
 348 1133 348 1133 305.5 1089.5 c 128,-1,14
 263 1046 263 1046 202 1046 c 0,6,7
EndSplineSet
EndChar

StartChar: cent
Encoding: 162 162 99
Width: 945
GlyphClass: 2
Flags: W
LayerCount: 2
Fore
SplineSet
500 -183 m 1,0,-1
 500 47 l 1,1,2
 303 65 303 65 185 203.5 c 128,-1,3
 67 342 67 342 67 574 c 1,4,5
 68 795 68 795 190.5 925 c 128,-1,6
 313 1055 313 1055 500 1070 c 1,7,-1
 500 1266 l 1,8,-1
 605 1266 l 1,9,-1
 605 1068 l 1,10,11
 740 1055 740 1055 833 985 c 1,12,-1
 781 815 l 1,13,14
 710 865 710 865 605 880 c 1,15,-1
 605 235 l 1,16,17
 703 246 703 246 784 304 c 1,18,-1
 842 132 l 1,19,20
 737 58 737 58 605 47 c 1,21,-1
 605 -183 l 1,22,-1
 500 -183 l 1,0,-1
500 250 m 1,23,-1
 500 885 l 1,24,25
 412 866 412 866 359.5 789 c 128,-1,26
 307 712 307 712 307 576 c 0,27,28
 307 436 307 436 357.5 354.5 c 128,-1,29
 408 273 408 273 500 250 c 1,23,-1
EndSplineSet
EndChar

StartChar: sterling
Encoding: 163 163 100
Width: 1006
GlyphClass: 2
Flags: W
LayerCount: 2
Fore
SplineSet
71 19 m 1,0,-1
 62 208 l 1,1,2
 150 245 150 245 184 295.5 c 128,-1,3
 218 346 218 346 218 446 c 2,4,-1
 218 605 l 1,5,-1
 53 605 l 1,6,-1
 53 785 l 1,7,-1
 218 785 l 1,8,-1
 218 869 l 2,9,10
 218 979 218 979 240.5 1066.5 c 128,-1,11
 263 1154 263 1154 310 1221 c 128,-1,12
 357 1288 357 1288 436.5 1324.5 c 128,-1,13
 516 1361 516 1361 623 1361 c 0,14,15
 821 1361 821 1361 971 1234 c 1,16,-1
 867 1069 l 1,17,18
 742 1155 742 1155 633 1155 c 0,19,20
 541 1155 541 1155 499 1099 c 128,-1,21
 457 1043 457 1043 457 934 c 2,22,-1
 457 785 l 1,23,-1
 800 785 l 1,24,-1
 800 606 l 1,25,-1
 457 606 l 1,26,-1
 457 481 l 2,27,28
 457 315 457 315 374 229 c 1,29,30
 384 229 384 229 400 229.5 c 128,-1,31
 416 230 416 230 428.5 230 c 128,-1,32
 441 230 441 230 442 230 c 2,33,-1
 989 230 l 1,34,-1
 983 19 l 1,35,-1
 71 19 l 1,0,-1
EndSplineSet
EndChar

StartChar: currency
Encoding: 164 164 101
Width: 1017
GlyphClass: 2
Flags: W
LayerCount: 2
Fore
SplineSet
999 308 m 1,0,-1
 906 210 l 1,1,-1
 739 366 l 1,2,3
 638 291 638 291 519 291 c 0,4,5
 393 291 393 291 296 365 c 1,6,-1
 136 211 l 1,7,-1
 38 306 l 1,8,-1
 203 464 l 1,9,10
 139 564 139 564 139 675 c 128,-1,11
 139 786 139 786 203 887 c 1,12,-1
 37 1046 l 1,13,-1
 136 1142 l 1,14,-1
 298 987 l 1,15,16
 397 1060 397 1060 519 1060 c 128,-1,17
 641 1060 641 1060 739 985 c 1,18,-1
 906 1142 l 1,19,-1
 1000 1045 l 1,20,-1
 835 887 l 1,21,22
 899 787 899 787 899 675 c 0,23,24
 899 562 899 562 836 464 c 1,25,-1
 999 308 l 1,0,-1
519 434 m 0,26,27
 618 434 618 434 687.5 504.5 c 128,-1,28
 757 575 757 575 757 675 c 128,-1,29
 757 775 757 775 687 846 c 128,-1,30
 617 917 617 917 519 917 c 0,31,32
 422 917 422 917 352.5 846 c 128,-1,33
 283 775 283 775 283 675 c 128,-1,34
 283 575 283 575 352 504.5 c 128,-1,35
 421 434 421 434 519 434 c 0,26,27
EndSplineSet
EndChar

StartChar: yen
Encoding: 165 165 102
Width: 1046
GlyphClass: 2
Flags: W
LayerCount: 2
Fore
SplineSet
413 422 m 1,0,-1
 413 527 l 1,1,-1
 108 527 l 1,2,-1
 108 683 l 1,3,-1
 337 683 l 1,4,-1
 -51 1336 l 1,5,-1
 226 1336 l 1,6,-1
 537 784 l 1,7,-1
 847 1336 l 1,8,-1
 1119 1336 l 1,9,-1
 738 683 l 1,10,-1
 975 683 l 1,11,-1
 975 527 l 1,12,-1
 666 527 l 1,13,-1
 666 422 l 1,14,-1
 975 422 l 1,15,-1
 975 257 l 1,16,-1
 666 257 l 1,17,-1
 666 0 l 1,18,-1
 413 0 l 1,19,-1
 413 257 l 1,20,-1
 108 257 l 1,21,-1
 108 422 l 1,22,-1
 413 422 l 1,0,-1
EndSplineSet
EndChar

StartChar: brokenbar
Encoding: 166 166 103
Width: 718
GlyphClass: 2
Flags: W
LayerCount: 2
Fore
SplineSet
266 -337 m 1,0,-1
 266 331 l 1,1,-1
 467 331 l 1,2,-1
 467 -337 l 1,3,-1
 266 -337 l 1,0,-1
266 739 m 1,4,-1
 266 1406 l 1,5,-1
 467 1406 l 1,6,-1
 467 739 l 1,7,-1
 266 739 l 1,4,-1
EndSplineSet
EndChar

StartChar: dieresis
Encoding: 168 168 104
Width: 679
GlyphClass: 2
Flags: W
LayerCount: 2
Fore
SplineSet
63 1119 m 1,0,-1
 63 1364 l 1,1,-1
 257 1364 l 1,2,-1
 257 1119 l 1,3,-1
 63 1119 l 1,0,-1
439 1119 m 1,4,-1
 439 1364 l 1,5,-1
 632 1364 l 1,6,-1
 632 1119 l 1,7,-1
 439 1119 l 1,4,-1
EndSplineSet
EndChar

StartChar: copyright
Encoding: 169 169 105
Width: 1533
GlyphClass: 2
Flags: W
LayerCount: 2
Fore
SplineSet
759 236 m 0,0,1
 579 236 579 236 460.5 361.5 c 128,-1,2
 342 487 342 487 342 679 c 0,3,4
 342 870 342 870 459 999.5 c 128,-1,5
 576 1129 576 1129 758 1129 c 0,6,7
 923 1129 923 1129 1034 1054 c 1,8,-1
 981 946 l 1,9,10
 885 1003 885 1003 769 1003 c 0,11,12
 642 1003 642 1003 566.5 914.5 c 128,-1,13
 491 826 491 826 491 679 c 0,14,15
 491 535 491 535 567 448 c 128,-1,16
 643 361 643 361 772 361 c 0,17,18
 890 361 890 361 986 419 c 1,19,-1
 1035 310 l 1,20,21
 922 236 922 236 759 236 c 0,0,1
771 108 m 0,22,23
 936 108 936 108 1069 186 c 128,-1,24
 1202 264 1202 264 1276 396 c 128,-1,25
 1350 528 1350 528 1350 687 c 128,-1,26
 1350 846 1350 846 1276 978.5 c 128,-1,27
 1202 1111 1202 1111 1068 1189.5 c 128,-1,28
 934 1268 934 1268 770 1268 c 0,29,30
 608 1268 608 1268 475.5 1190 c 128,-1,31
 343 1112 343 1112 269 979 c 128,-1,32
 195 846 195 846 195 688 c 0,33,34
 195 529 195 529 269 396.5 c 128,-1,35
 343 264 343 264 475.5 186 c 128,-1,36
 608 108 608 108 771 108 c 0,22,23
771 0 m 0,37,38
 632 0 632 0 504 51.5 c 128,-1,39
 376 103 376 103 280.5 192.5 c 128,-1,40
 185 282 185 282 128.5 411 c 128,-1,41
 72 540 72 540 72 688 c 128,-1,42
 72 836 72 836 128.5 965.5 c 128,-1,43
 185 1095 185 1095 280 1184.5 c 128,-1,44
 375 1274 375 1274 503 1325.5 c 128,-1,45
 631 1377 631 1377 770 1377 c 0,46,47
 910 1377 910 1377 1038.5 1325.5 c 128,-1,48
 1167 1274 1167 1274 1263 1184 c 128,-1,49
 1359 1094 1359 1094 1415.5 964.5 c 128,-1,50
 1472 835 1472 835 1472 688 c 0,51,52
 1472 492 1472 492 1376 333 c 128,-1,53
 1280 174 1280 174 1120 87 c 128,-1,54
 960 0 960 0 771 0 c 0,37,38
EndSplineSet
EndChar

StartChar: ordfeminine
Encoding: 170 170 106
Width: 664
GlyphClass: 2
Flags: W
LayerCount: 2
Fore
SplineSet
269 686 m 0,0,1
 180 686 180 686 120 738.5 c 128,-1,2
 60 791 60 791 60 885 c 0,3,4
 60 939 60 939 85 979 c 128,-1,5
 110 1019 110 1019 140 1040.5 c 128,-1,6
 170 1062 170 1062 230 1078.5 c 128,-1,7
 290 1095 290 1095 323.5 1099.5 c 128,-1,8
 357 1104 357 1104 426 1112 c 0,9,10
 437 1113 437 1113 443 1114 c 1,11,-1
 443 1134 l 1,12,13
 442 1199 442 1199 419 1224.5 c 128,-1,14
 396 1250 396 1250 343 1250 c 0,15,16
 247 1250 247 1250 125 1200 c 1,17,-1
 79 1315 l 1,18,19
 211 1384 211 1384 358 1384 c 0,20,21
 469 1384 469 1384 539 1329.5 c 128,-1,22
 609 1275 609 1275 609 1156 c 2,23,-1
 609 813 l 1,24,-1
 611 698 l 1,25,-1
 472 698 l 1,26,-1
 459 762 l 1,27,28
 428 729 428 729 374 707.5 c 128,-1,29
 320 686 320 686 269 686 c 0,0,1
94 486 m 1,30,-1
 94 611 l 1,31,-1
 613 611 l 1,32,-1
 613 486 l 1,33,-1
 94 486 l 1,30,-1
286 813 m 0,34,35
 376 813 376 813 443 909 c 1,36,-1
 443 996 l 1,37,38
 323 980 323 980 271 957.5 c 128,-1,39
 219 935 219 935 219 883 c 0,40,41
 219 848 219 848 237.5 830.5 c 128,-1,42
 256 813 256 813 286 813 c 0,34,35
EndSplineSet
EndChar

StartChar: guillemotleft
Encoding: 171 171 107
Width: 948
GlyphClass: 2
Flags: W
LayerCount: 2
Fore
SplineSet
547 866 m 1,0,-1
 299 519 l 1,1,-1
 544 173 l 1,2,-1
 344 120 l 1,3,-1
 59 504 l 1,4,-1
 70 547 l 1,5,-1
 347 918 l 1,6,-1
 547 866 l 1,0,-1
669 519 m 1,7,-1
 914 173 l 1,8,-1
 715 120 l 1,9,-1
 424 516 l 1,10,-1
 717 918 l 1,11,-1
 918 866 l 1,12,-1
 669 519 l 1,7,-1
EndSplineSet
EndChar

StartChar: logicalnot
Encoding: 172 172 108
Width: 1129
GlyphClass: 2
Flags: W
LayerCount: 2
Fore
SplineSet
1031 771 m 1,0,-1
 1031 229 l 1,1,-1
 841 229 l 1,2,-1
 841 580 l 1,3,-1
 112 580 l 1,4,-1
 112 771 l 1,5,-1
 1031 771 l 1,0,-1
EndSplineSet
EndChar

StartChar: uni00AD
Encoding: 173 173 109
Width: 652
GlyphClass: 2
Flags: W
LayerCount: 2
Fore
SplineSet
61 349 m 1,0,-1
 61 551 l 1,1,-1
 608 551 l 1,2,-1
 608 349 l 1,3,-1
 61 349 l 1,0,-1
EndSplineSet
EndChar

StartChar: registered
Encoding: 174 174 110
Width: 1526
GlyphClass: 2
Flags: W
LayerCount: 2
Fore
SplineSet
487 251 m 1,0,-1
 487 1119 l 1,1,-1
 774 1119 l 2,2,3
 920 1119 920 1119 1003 1061 c 128,-1,4
 1086 1003 1086 1003 1086 877 c 0,5,6
 1086 779 1086 779 1044 722.5 c 128,-1,7
 1002 666 1002 666 904 641 c 1,8,9
 928 609 928 609 984 511.5 c 128,-1,10
 1040 414 1040 414 1084 332 c 2,11,-1
 1128 251 l 1,12,-1
 959 251 l 1,13,14
 788 590 788 590 758 620 c 1,15,-1
 637 620 l 1,16,-1
 637 251 l 1,17,-1
 487 251 l 1,0,-1
636 988 m 1,18,-1
 636 752 l 1,19,-1
 744 752 l 2,20,21
 846 752 846 752 890.5 776 c 128,-1,22
 935 800 935 800 935 875 c 0,23,24
 935 907 935 907 926.5 928.5 c 128,-1,25
 918 950 918 950 905.5 962 c 128,-1,26
 893 974 893 974 864.5 979.5 c 128,-1,27
 836 985 836 985 810.5 986.5 c 128,-1,28
 785 988 785 988 736 988 c 2,29,-1
 636 988 l 1,18,-1
770 108 m 0,30,31
 934 108 934 108 1066.5 186 c 128,-1,32
 1199 264 1199 264 1272.5 396 c 128,-1,33
 1346 528 1346 528 1346 687 c 128,-1,34
 1346 846 1346 846 1272.5 978.5 c 128,-1,35
 1199 1111 1199 1111 1066 1189.5 c 128,-1,36
 933 1268 933 1268 769 1268 c 0,37,38
 647 1268 647 1268 540 1222 c 128,-1,39
 433 1176 433 1176 357.5 1098 c 128,-1,40
 282 1020 282 1020 238.5 913 c 128,-1,41
 195 806 195 806 195 688 c 0,42,43
 195 529 195 529 269 396 c 128,-1,44
 343 263 343 263 475.5 185.5 c 128,-1,45
 608 108 608 108 770 108 c 0,30,31
770 0 m 0,46,47
 631 0 631 0 503 51.5 c 128,-1,48
 375 103 375 103 280 192.5 c 128,-1,49
 185 282 185 282 128.5 411 c 128,-1,50
 72 540 72 540 72 688 c 128,-1,51
 72 836 72 836 128.5 965.5 c 128,-1,52
 185 1095 185 1095 280 1184.5 c 128,-1,53
 375 1274 375 1274 502.5 1325.5 c 128,-1,54
 630 1377 630 1377 769 1377 c 0,55,56
 909 1377 909 1377 1037 1325.5 c 128,-1,57
 1165 1274 1165 1274 1260.5 1184 c 128,-1,58
 1356 1094 1356 1094 1412.5 964.5 c 128,-1,59
 1469 835 1469 835 1469 688 c 0,60,61
 1469 492 1469 492 1373 333 c 128,-1,62
 1277 174 1277 174 1117.5 87 c 128,-1,63
 958 0 958 0 770 0 c 0,46,47
EndSplineSet
EndChar

StartChar: macron
Encoding: 175 175 111
Width: 801
GlyphClass: 2
Flags: W
LayerCount: 2
Fore
SplineSet
89 1239 m 1,0,-1
 89 1398 l 1,1,-1
 738 1398 l 1,2,-1
 738 1239 l 1,3,-1
 89 1239 l 1,0,-1
EndSplineSet
EndChar

StartChar: degree
Encoding: 176 176 112
Width: 748
GlyphClass: 2
Flags: W
LayerCount: 2
Fore
SplineSet
384 908 m 0,0,1
 439 908 439 908 479 947.5 c 128,-1,2
 519 987 519 987 519 1052 c 0,3,4
 519 1116 519 1116 479.5 1153.5 c 128,-1,5
 440 1191 440 1191 385 1191 c 0,6,7
 329 1191 329 1191 288 1153.5 c 128,-1,8
 247 1116 247 1116 247 1052 c 0,9,10
 247 987 247 987 287.5 947.5 c 128,-1,11
 328 908 328 908 384 908 c 0,0,1
384 774 m 0,12,13
 250 774 250 774 171.5 858 c 128,-1,14
 93 942 93 942 93 1057 c 128,-1,15
 93 1172 93 1172 172 1252 c 128,-1,16
 251 1332 251 1332 384 1332 c 0,17,18
 515 1332 515 1332 594 1252 c 128,-1,19
 673 1172 673 1172 673 1057 c 0,20,21
 673 943 673 943 595 858.5 c 128,-1,22
 517 774 517 774 384 774 c 0,12,13
EndSplineSet
EndChar

StartChar: plusminus
Encoding: 177 177 113
Width: 1131
GlyphClass: 2
Flags: W
LayerCount: 2
Fore
SplineSet
477 775 m 1,0,-1
 477 1101 l 1,1,-1
 670 1101 l 1,2,-1
 670 775 l 1,3,-1
 1006 775 l 1,4,-1
 1006 575 l 1,5,-1
 671 575 l 1,6,-1
 671 241 l 1,7,-1
 477 241 l 1,8,-1
 477 575 l 1,9,-1
 142 575 l 1,10,-1
 142 775 l 1,11,-1
 477 775 l 1,0,-1
142 0 m 1,12,-1
 142 177 l 1,13,-1
 1006 177 l 1,14,-1
 1006 0 l 1,15,-1
 142 0 l 1,12,-1
EndSplineSet
EndChar

StartChar: uni00B3
Encoding: 179 179 114
Width: 704
GlyphClass: 2
Flags: W
LayerCount: 2
Fore
SplineSet
155 747 m 1,0,-1
 165 738 l 1,1,2
 193 711 193 711 245.5 694 c 128,-1,3
 298 677 298 677 342 677 c 0,4,5
 399 677 399 677 431 705 c 128,-1,6
 463 733 463 733 463 789 c 0,7,8
 463 841 463 841 422 867.5 c 128,-1,9
 381 894 381 894 305 894 c 2,10,-1
 226 893 l 1,11,-1
 226 1033 l 1,12,-1
 307 1033 l 2,13,14
 436 1033 436 1033 436 1120 c 0,15,16
 436 1158 436 1158 413.5 1181 c 128,-1,17
 391 1204 391 1204 344 1204 c 0,18,19
 299 1204 299 1204 249 1188 c 128,-1,20
 199 1172 199 1172 170 1151 c 1,21,-1
 161 1143 l 1,22,-1
 110 1259 l 1,23,-1
 115 1264 l 1,24,25
 216 1346 216 1346 353 1346 c 0,26,27
 460 1346 460 1346 533 1289.5 c 128,-1,28
 606 1233 606 1233 606 1122 c 1,29,30
 603 1016 603 1016 508 971 c 1,31,32
 557 944 557 944 590 895.5 c 128,-1,33
 623 847 623 847 623 788 c 0,34,35
 623 669 623 669 542 602.5 c 128,-1,36
 461 536 461 536 343 536 c 0,37,38
 214 536 214 536 110 611 c 1,39,-1
 104 615 l 1,40,-1
 155 747 l 1,0,-1
EndSplineSet
EndChar

StartChar: acute
Encoding: 180 180 115
Width: 541
GlyphClass: 2
Flags: W
LayerCount: 2
Fore
SplineSet
163 1081 m 1,0,-1
 323 1442 l 1,1,-1
 615 1442 l 1,2,-1
 320 1081 l 1,3,-1
 163 1081 l 1,0,-1
EndSplineSet
EndChar

StartChar: paragraph
Encoding: 182 182 116
Width: 1054
GlyphClass: 2
Flags: W
LayerCount: 2
Fore
SplineSet
555 -134 m 1,0,-1
 367 -134 l 1,1,-1
 367 705 l 1,2,3
 232 719 232 719 148 811.5 c 128,-1,4
 64 904 64 904 64 1036 c 0,5,6
 64 1123 64 1123 101 1187.5 c 128,-1,7
 138 1252 138 1252 204.5 1288.5 c 128,-1,8
 271 1325 271 1325 354.5 1342.5 c 128,-1,9
 438 1360 438 1360 541 1360 c 2,10,-1
 920 1360 l 1,11,-1
 920 1188 l 1,12,-1
 847 1188 l 1,13,-1
 847 -134 l 1,14,-1
 679 -134 l 1,15,-1
 679 1188 l 1,16,-1
 555 1188 l 1,17,-1
 555 -134 l 1,0,-1
EndSplineSet
EndChar

StartChar: cedilla
Encoding: 184 184 117
Width: 514
GlyphClass: 2
Flags: W
LayerCount: 2
Fore
SplineSet
46 -297 m 1,0,-1
 162 60 l 1,1,-1
 309 60 l 1,2,-1
 255 -297 l 1,3,-1
 46 -297 l 1,0,-1
EndSplineSet
EndChar

StartChar: uni00B9
Encoding: 185 185 118
Width: 655
GlyphClass: 2
Flags: W
LayerCount: 2
Fore
SplineSet
129 534 m 1,0,-1
 129 686 l 1,1,-1
 255 686 l 1,2,-1
 255 1163 l 1,3,4
 136 1107 136 1107 126 1102 c 2,5,-1
 112 1095 l 1,6,-1
 112 1257 l 1,7,-1
 117 1260 l 1,8,9
 132 1267 132 1267 210.5 1307 c 128,-1,10
 289 1347 289 1347 299 1354 c 1,11,-1
 302 1359 l 1,12,-1
 445 1358 l 1,13,-1
 445 686 l 1,14,-1
 570 686 l 1,15,-1
 570 534 l 1,16,-1
 129 534 l 1,0,-1
EndSplineSet
EndChar

StartChar: guillemotright
Encoding: 187 187 119
Width: 1025
GlyphClass: 2
Flags: W
LayerCount: 2
Fore
SplineSet
292 918 m 1,0,-1
 584 522 l 1,1,-1
 291 120 l 1,2,-1
 91 173 l 1,3,-1
 340 519 l 1,4,-1
 93 866 l 1,5,-1
 292 918 l 1,0,-1
674 918 m 1,6,-1
 966 522 l 1,7,-1
 671 120 l 1,8,-1
 473 173 l 1,9,-1
 719 519 l 1,10,-1
 477 866 l 1,11,-1
 674 918 l 1,6,-1
EndSplineSet
EndChar

StartChar: onequarter
Encoding: 188 188 120
Width: 1525
GlyphClass: 2
Flags: W
LayerCount: 2
Fore
SplineSet
87 544 m 1,0,-1
 87 696 l 1,1,-1
 214 696 l 1,2,-1
 214 1171 l 1,3,4
 200 1164 200 1164 168.5 1149.5 c 128,-1,5
 137 1135 137 1135 112 1123.5 c 128,-1,6
 87 1112 87 1112 85 1111 c 2,7,-1
 70 1103 l 1,8,-1
 70 1257 l 1,9,-1
 75 1260 l 2,10,11
 76 1261 76 1261 162 1304 c 128,-1,12
 248 1347 248 1347 258 1354 c 1,13,-1
 261 1359 l 1,14,-1
 402 1358 l 1,15,-1
 402 696 l 1,16,-1
 527 696 l 1,17,-1
 527 544 l 1,18,-1
 87 544 l 1,0,-1
459 0 m 1,19,-1
 258 0 l 1,20,-1
 1174 1347 l 1,21,-1
 1370 1347 l 1,22,-1
 459 0 l 1,19,-1
1382 9 m 1,23,-1
 1223 9 l 1,24,-1
 1223 161 l 1,25,-1
 866 161 l 1,26,-1
 866 305 l 1,27,-1
 1213 798 l 1,28,-1
 1384 798 l 1,29,-1
 1384 301 l 1,30,-1
 1485 301 l 1,31,-1
 1488 161 l 1,32,-1
 1383 161 l 1,33,-1
 1382 9 l 1,23,-1
1064 301 m 1,34,-1
 1221 301 l 1,35,-1
 1221 560 l 1,36,-1
 1064 301 l 1,34,-1
EndSplineSet
EndChar

StartChar: onehalf
Encoding: 189 189 121
Width: 1593
GlyphClass: 2
Flags: W
LayerCount: 2
Fore
SplineSet
232 1186 m 1,0,1
 108 1115 108 1115 102 1112 c 2,2,-1
 89 1105 l 1,3,-1
 89 1258 l 1,4,-1
 94 1261 l 1,5,6
 105 1266 105 1266 177.5 1309 c 128,-1,7
 250 1352 250 1352 254 1356 c 2,8,-1
 257 1359 l 1,9,-1
 421 1358 l 1,10,-1
 421 691 l 1,11,-1
 545 691 l 1,12,-1
 545 553 l 1,13,-1
 106 553 l 1,14,-1
 106 691 l 1,15,-1
 232 691 l 1,16,-1
 232 1186 l 1,0,1
464 19 m 1,17,-1
 262 19 l 1,18,-1
 1178 1347 l 1,19,-1
 1378 1347 l 1,20,-1
 464 19 l 1,17,-1
1514 -26 m 1,21,-1
 1002 -26 l 1,22,-1
 1003 113 l 1,23,-1
 1006 115 l 1,24,25
 1039 143 1039 143 1108 200.5 c 128,-1,26
 1177 258 1177 258 1209.5 287.5 c 128,-1,27
 1242 317 1242 317 1283.5 360 c 128,-1,28
 1325 403 1325 403 1342.5 439 c 128,-1,29
 1360 475 1360 475 1360 510 c 0,30,31
 1360 559 1360 559 1325.5 588.5 c 128,-1,32
 1291 618 1291 618 1246 618 c 0,33,34
 1196 618 1196 618 1146.5 596.5 c 128,-1,35
 1097 575 1097 575 1068 535 c 2,36,-1
 1059 523 l 1,37,-1
 991 646 l 1,38,-1
 994 651 l 1,39,40
 1077 772 1077 772 1265 772 c 0,41,42
 1374 772 1374 772 1452.5 702 c 128,-1,43
 1531 632 1531 632 1531 515 c 0,44,45
 1531 467 1531 467 1517.5 423 c 128,-1,46
 1504 379 1504 379 1483 344.5 c 128,-1,47
 1462 310 1462 310 1426 272 c 128,-1,48
 1390 234 1390 234 1355.5 203.5 c 128,-1,49
 1321 173 1321 173 1270 130 c 1,50,51
 1266 128 1266 128 1264.5 126.5 c 128,-1,52
 1263 125 1263 125 1260 122.5 c 128,-1,53
 1257 120 1257 120 1254.5 118 c 128,-1,54
 1252 116 1252 116 1250 114 c 1,55,-1
 1531 114 l 1,56,-1
 1514 -26 l 1,21,-1
EndSplineSet
EndChar

StartChar: threequarters
Encoding: 190 190 122
Width: 1482
GlyphClass: 2
Flags: W
LayerCount: 2
Fore
SplineSet
310 562 m 0,0,1
 178 562 178 562 77 636 c 1,2,-1
 133 759 l 1,3,4
 160 735 160 735 209 720.5 c 128,-1,5
 258 706 258 706 303 706 c 0,6,7
 423 706 423 706 423 810 c 0,8,9
 423 903 423 903 272 903 c 1,10,-1
 193 902 l 1,11,-1
 193 1043 l 1,12,-1
 273 1043 l 2,13,14
 402 1043 402 1043 402 1126 c 0,15,16
 402 1201 402 1201 308 1201 c 0,17,18
 262 1201 262 1201 213 1186 c 128,-1,19
 164 1171 164 1171 136 1151 c 1,20,-1
 69 1261 l 1,21,22
 116 1301 116 1301 183.5 1323.5 c 128,-1,23
 251 1346 251 1346 321 1346 c 0,24,25
 426 1346 426 1346 501 1291 c 128,-1,26
 576 1236 576 1236 576 1132 c 0,27,28
 576 1116 576 1116 571.5 1094.5 c 128,-1,29
 567 1073 567 1073 544 1038.5 c 128,-1,30
 521 1004 521 1004 483 986 c 1,31,32
 531 960 531 960 562.5 913 c 128,-1,33
 594 866 594 866 594 808 c 0,34,35
 594 729 594 729 553 672 c 128,-1,36
 512 615 512 615 448.5 588.5 c 128,-1,37
 385 562 385 562 310 562 c 0,0,1
1179 19 m 1,38,-1
 1179 179 l 1,39,-1
 823 179 l 1,40,-1
 823 317 l 1,41,-1
 1169 820 l 1,42,-1
 1340 820 l 1,43,-1
 1340 318 l 1,44,-1
 1442 318 l 1,45,-1
 1444 179 l 1,46,-1
 1339 179 l 1,47,-1
 1338 19 l 1,48,-1
 1179 19 l 1,38,-1
235 19 m 1,49,-1
 1149 1347 l 1,50,-1
 1347 1347 l 1,51,-1
 439 19 l 1,52,-1
 235 19 l 1,49,-1
1019 318 m 1,53,-1
 1177 318 l 1,54,-1
 1177 575 l 1,55,-1
 1019 318 l 1,53,-1
EndSplineSet
EndChar

StartChar: questiondown
Encoding: 191 191 123
Width: 901
GlyphClass: 2
Flags: W
LayerCount: 2
Fore
SplineSet
370 1177 m 0,0,1
 370 1236 370 1236 410.5 1279.5 c 128,-1,2
 451 1323 451 1323 510 1323 c 0,3,4
 570 1323 570 1323 613.5 1279.5 c 128,-1,5
 657 1236 657 1236 657 1177 c 0,6,7
 657 1117 657 1117 614 1073.5 c 128,-1,8
 571 1030 571 1030 510 1030 c 0,9,10
 451 1030 451 1030 410.5 1073.5 c 128,-1,11
 370 1117 370 1117 370 1177 c 0,0,1
491 139 m 0,12,13
 544 139 544 139 594 152 c 128,-1,14
 644 165 644 165 670 178.5 c 128,-1,15
 696 192 696 192 731 213 c 1,16,-1
 740 218 l 1,17,-1
 810 53 l 1,18,-1
 803 49 l 1,19,20
 659 -47 659 -47 467 -47 c 0,21,22
 417 -47 417 -47 368 -35.5 c 128,-1,23
 319 -24 319 -24 273.5 1.5 c 128,-1,24
 228 27 228 27 193 63 c 128,-1,25
 158 99 158 99 137 151.5 c 128,-1,26
 116 204 116 204 116 266 c 128,-1,27
 116 328 116 328 137.5 388.5 c 128,-1,28
 159 449 159 449 197 506.5 c 128,-1,29
 235 564 235 564 276 618.5 c 128,-1,30
 317 673 317 673 367.5 747.5 c 128,-1,31
 418 822 418 822 453 893 c 1,32,-1
 456 898 l 1,33,-1
 567 898 l 1,34,-1
 565 887 l 1,35,36
 556 816 556 816 527.5 743 c 128,-1,37
 499 670 499 670 465 612 c 128,-1,38
 431 554 431 554 398 499.5 c 128,-1,39
 365 445 365 445 343 392.5 c 128,-1,40
 321 340 321 340 321 297 c 0,41,42
 322 224 322 224 366.5 181.5 c 128,-1,43
 411 139 411 139 491 139 c 0,12,13
EndSplineSet
EndChar

StartChar: Agrave
Encoding: 192 192 124
Width: 1427
GlyphClass: 2
Flags: W
LayerCount: 2
Fore
SplineSet
556 555 m 1,0,-1
 868 555 l 1,1,-1
 718 1093 l 1,2,-1
 556 555 l 1,0,-1
90 0 m 1,3,-1
 545 1336 l 1,4,-1
 883 1336 l 1,5,-1
 1337 0 l 1,6,-1
 1051 0 l 1,7,-1
 924 365 l 1,8,-1
 498 365 l 1,9,-1
 378 0 l 1,10,-1
 90 0 l 1,3,-1
631 1479 m 1,11,-1
 320 1840 l 1,12,-1
 619 1840 l 1,13,-1
 796 1479 l 1,14,-1
 631 1479 l 1,11,-1
EndSplineSet
EndChar

StartChar: Aacute
Encoding: 193 193 125
Width: 1427
GlyphClass: 2
Flags: W
LayerCount: 2
Fore
SplineSet
556 555 m 1,0,-1
 868 555 l 1,1,-1
 718 1093 l 1,2,-1
 556 555 l 1,0,-1
90 0 m 1,3,-1
 545 1336 l 1,4,-1
 883 1336 l 1,5,-1
 1337 0 l 1,6,-1
 1051 0 l 1,7,-1
 924 365 l 1,8,-1
 498 365 l 1,9,-1
 378 0 l 1,10,-1
 90 0 l 1,3,-1
635 1479 m 1,11,-1
 795 1840 l 1,12,-1
 1087 1840 l 1,13,-1
 792 1479 l 1,14,-1
 635 1479 l 1,11,-1
EndSplineSet
EndChar

StartChar: Acircumflex
Encoding: 194 194 126
Width: 1427
GlyphClass: 2
Flags: W
LayerCount: 2
Fore
SplineSet
556 555 m 1,0,-1
 868 555 l 1,1,-1
 718 1093 l 1,2,-1
 556 555 l 1,0,-1
90 0 m 1,3,-1
 545 1336 l 1,4,-1
 883 1336 l 1,5,-1
 1337 0 l 1,6,-1
 1051 0 l 1,7,-1
 924 365 l 1,8,-1
 498 365 l 1,9,-1
 378 0 l 1,10,-1
 90 0 l 1,3,-1
380 1479 m 1,11,-1
 615 1847 l 1,12,-1
 811 1847 l 1,13,-1
 1047 1479 l 1,14,-1
 861 1479 l 1,15,-1
 703 1673 l 1,16,-1
 561 1479 l 1,17,-1
 380 1479 l 1,11,-1
EndSplineSet
EndChar

StartChar: Atilde
Encoding: 195 195 127
Width: 1427
GlyphClass: 2
Flags: W
LayerCount: 2
Fore
SplineSet
556 555 m 1,0,-1
 868 555 l 1,1,-1
 718 1093 l 1,2,-1
 556 555 l 1,0,-1
90 0 m 1,3,-1
 545 1336 l 1,4,-1
 883 1336 l 1,5,-1
 1337 0 l 1,6,-1
 1051 0 l 1,7,-1
 924 365 l 1,8,-1
 498 365 l 1,9,-1
 378 0 l 1,10,-1
 90 0 l 1,3,-1
398 1489 m 1,11,12
 398 1523 398 1523 400.5 1550 c 128,-1,13
 403 1577 403 1577 412.5 1610.5 c 128,-1,14
 422 1644 422 1644 438.5 1667 c 128,-1,15
 455 1690 455 1690 486.5 1705.5 c 128,-1,16
 518 1721 518 1721 560 1721 c 0,17,18
 613 1721 613 1721 677.5 1699.5 c 128,-1,19
 742 1678 742 1678 789.5 1657 c 128,-1,20
 837 1636 837 1636 847 1636 c 0,21,22
 856 1636 856 1636 864 1657.5 c 128,-1,23
 872 1679 872 1679 876 1700 c 2,24,-1
 879 1721 l 1,25,-1
 1029 1721 l 1,26,27
 1029 1711 1029 1711 1027 1695 c 128,-1,28
 1025 1679 1025 1679 1015.5 1637 c 128,-1,29
 1006 1595 1006 1595 991 1563 c 128,-1,30
 976 1531 976 1531 944 1505 c 128,-1,31
 912 1479 912 1479 871 1479 c 0,32,33
 815 1479 815 1479 709 1524 c 128,-1,34
 603 1569 603 1569 580 1569 c 0,35,36
 571 1569 571 1569 562 1546.5 c 128,-1,37
 553 1524 553 1524 549 1502 c 2,38,-1
 545 1479 l 1,39,-1
 398 1489 l 1,11,12
EndSplineSet
EndChar

StartChar: Adieresis
Encoding: 196 196 128
Width: 1427
GlyphClass: 2
Flags: W
LayerCount: 2
Fore
SplineSet
556 555 m 1,0,-1
 868 555 l 1,1,-1
 718 1093 l 1,2,-1
 556 555 l 1,0,-1
90 0 m 1,3,-1
 545 1336 l 1,4,-1
 883 1336 l 1,5,-1
 1337 0 l 1,6,-1
 1051 0 l 1,7,-1
 924 365 l 1,8,-1
 498 365 l 1,9,-1
 378 0 l 1,10,-1
 90 0 l 1,3,-1
429 1479 m 1,11,-1
 429 1724 l 1,12,-1
 623 1724 l 1,13,-1
 623 1479 l 1,14,-1
 429 1479 l 1,11,-1
805 1479 m 1,15,-1
 805 1724 l 1,16,-1
 998 1724 l 1,17,-1
 998 1479 l 1,18,-1
 805 1479 l 1,15,-1
EndSplineSet
EndChar

StartChar: Aring
Encoding: 197 197 129
Width: 1427
GlyphClass: 2
Flags: W
LayerCount: 2
Fore
SplineSet
556 555 m 1,0,-1
 868 555 l 1,1,-1
 718 1093 l 1,2,-1
 556 555 l 1,0,-1
90 0 m 1,3,-1
 545 1336 l 1,4,-1
 883 1336 l 1,5,-1
 1337 0 l 1,6,-1
 1051 0 l 1,7,-1
 924 365 l 1,8,-1
 498 365 l 1,9,-1
 378 0 l 1,10,-1
 90 0 l 1,3,-1
714 1445 m 0,11,12
 754 1445 754 1445 777 1472.5 c 128,-1,13
 800 1500 800 1500 800 1540 c 0,14,15
 800 1579 800 1579 776.5 1607 c 128,-1,16
 753 1635 753 1635 714 1635 c 0,17,18
 676 1635 676 1635 652 1606.5 c 128,-1,19
 628 1578 628 1578 628 1540 c 0,20,21
 628 1499 628 1499 650.5 1472 c 128,-1,22
 673 1445 673 1445 714 1445 c 0,11,12
714 1344 m 128,-1,24
 621 1344 621 1344 564.5 1401.5 c 128,-1,25
 508 1459 508 1459 508 1540 c 128,-1,26
 508 1621 508 1621 564 1678 c 128,-1,27
 620 1735 620 1735 714 1735 c 128,-1,28
 808 1735 808 1735 864 1678 c 128,-1,29
 920 1621 920 1621 920 1540 c 128,-1,30
 920 1459 920 1459 863.5 1401.5 c 128,-1,23
 807 1344 807 1344 714 1344 c 128,-1,24
EndSplineSet
EndChar

StartChar: AE
Encoding: 198 198 130
Width: 1781
GlyphClass: 2
Flags: W
LayerCount: 2
Fore
SplineSet
1141 1161 m 1,0,-1
 1168 785 l 1,1,-1
 1655 785 l 1,2,-1
 1655 592 l 1,3,-1
 1188 592 l 1,4,-1
 1221 194 l 1,5,-1
 1723 194 l 1,6,-1
 1709 0 l 1,7,-1
 971 0 l 1,8,-1
 944 334 l 1,9,-1
 495 334 l 1,10,-1
 316 0 l 1,11,-1
 23 0 l 1,12,-1
 781 1355 l 1,13,-1
 1692 1355 l 1,14,-1
 1676 1161 l 1,15,-1
 1141 1161 l 1,0,-1
928 538 m 1,16,-1
 887 1087 l 1,17,-1
 589 538 l 1,18,-1
 928 538 l 1,16,-1
EndSplineSet
EndChar

StartChar: Ccedilla
Encoding: 199 199 131
Width: 1253
GlyphClass: 2
Flags: W
LayerCount: 2
Fore
SplineSet
464 -363 m 1,0,-1
 580 -6 l 1,1,-1
 649 -6 l 1,2,3
 698 -14 698 -14 726 -16 c 1,4,-1
 673 -363 l 1,5,-1
 464 -363 l 1,0,-1
649 -6 m 1,6,7
 412 36 412 36 272 215 c 128,-1,8
 132 394 132 394 132 677 c 0,9,10
 132 838 132 838 180.5 967 c 128,-1,11
 229 1096 229 1096 315 1181 c 128,-1,12
 401 1266 401 1266 519.5 1311.5 c 128,-1,13
 638 1357 638 1357 779 1357 c 0,14,15
 986 1357 986 1357 1175 1247 c 1,16,-1
 1092 1033 l 1,17,18
 915 1134 915 1134 765 1123 c 0,19,20
 700 1118 700 1118 640 1087 c 128,-1,21
 580 1056 580 1056 530 1002 c 128,-1,22
 480 948 480 948 450 862 c 128,-1,23
 420 776 420 776 420 671 c 0,24,25
 420 456 420 456 522 337 c 128,-1,26
 624 218 624 218 803 213 c 0,27,28
 946 209 946 209 1094 293 c 1,29,-1
 1149 75 l 1,30,31
 1050 25 1050 25 970.5 3.5 c 128,-1,32
 891 -18 891 -18 788 -18 c 0,33,34
 746 -18 746 -18 726 -16 c 1,35,-1
 727 -6 l 1,36,-1
 649 -6 l 1,6,7
EndSplineSet
EndChar

StartChar: Egrave
Encoding: 200 200 132
Width: 1164
GlyphClass: 2
Flags: W
LayerCount: 2
Fore
SplineSet
490 1126 m 1,0,-1
 490 805 l 1,1,-1
 994 805 l 1,2,-1
 994 595 l 1,3,-1
 490 595 l 1,4,-1
 490 216 l 1,5,-1
 1042 216 l 1,6,-1
 1025 0 l 1,7,-1
 202 0 l 1,8,-1
 202 1336 l 1,9,-1
 1032 1336 l 1,10,-1
 1021 1126 l 1,11,-1
 490 1126 l 1,0,-1
540 1479 m 1,12,-1
 228 1840 l 1,13,-1
 528 1840 l 1,14,-1
 704 1479 l 1,15,-1
 540 1479 l 1,12,-1
EndSplineSet
EndChar

StartChar: Eacute
Encoding: 201 201 133
Width: 1164
GlyphClass: 2
Flags: W
LayerCount: 2
Fore
SplineSet
490 1126 m 1,0,-1
 490 805 l 1,1,-1
 994 805 l 1,2,-1
 994 595 l 1,3,-1
 490 595 l 1,4,-1
 490 216 l 1,5,-1
 1042 216 l 1,6,-1
 1025 0 l 1,7,-1
 202 0 l 1,8,-1
 202 1336 l 1,9,-1
 1032 1336 l 1,10,-1
 1021 1126 l 1,11,-1
 490 1126 l 1,0,-1
544 1479 m 1,12,-1
 704 1840 l 1,13,-1
 996 1840 l 1,14,-1
 700 1479 l 1,15,-1
 544 1479 l 1,12,-1
EndSplineSet
EndChar

StartChar: Ecircumflex
Encoding: 202 202 134
Width: 1164
GlyphClass: 2
Flags: W
LayerCount: 2
Fore
SplineSet
490 1126 m 1,0,-1
 490 805 l 1,1,-1
 994 805 l 1,2,-1
 994 595 l 1,3,-1
 490 595 l 1,4,-1
 490 216 l 1,5,-1
 1042 216 l 1,6,-1
 1025 0 l 1,7,-1
 202 0 l 1,8,-1
 202 1336 l 1,9,-1
 1032 1336 l 1,10,-1
 1021 1126 l 1,11,-1
 490 1126 l 1,0,-1
288 1479 m 1,12,-1
 524 1847 l 1,13,-1
 720 1847 l 1,14,-1
 956 1479 l 1,15,-1
 770 1479 l 1,16,-1
 612 1673 l 1,17,-1
 470 1479 l 1,18,-1
 288 1479 l 1,12,-1
EndSplineSet
EndChar

StartChar: Edieresis
Encoding: 203 203 135
Width: 1164
GlyphClass: 2
Flags: W
LayerCount: 2
Fore
SplineSet
490 1126 m 1,0,-1
 490 805 l 1,1,-1
 994 805 l 1,2,-1
 994 595 l 1,3,-1
 490 595 l 1,4,-1
 490 216 l 1,5,-1
 1042 216 l 1,6,-1
 1025 0 l 1,7,-1
 202 0 l 1,8,-1
 202 1336 l 1,9,-1
 1032 1336 l 1,10,-1
 1021 1126 l 1,11,-1
 490 1126 l 1,0,-1
338 1479 m 1,12,-1
 338 1724 l 1,13,-1
 532 1724 l 1,14,-1
 532 1479 l 1,15,-1
 338 1479 l 1,12,-1
714 1479 m 1,16,-1
 714 1724 l 1,17,-1
 906 1724 l 1,18,-1
 906 1479 l 1,19,-1
 714 1479 l 1,16,-1
EndSplineSet
EndChar

StartChar: Igrave
Encoding: 204 204 136
Width: 692
GlyphClass: 2
Flags: W
LayerCount: 2
Fore
SplineSet
202 0 m 1,0,-1
 202 1336 l 1,1,-1
 490 1336 l 1,2,-1
 490 0 l 1,3,-1
 202 0 l 1,0,-1
264 1479 m 1,4,-1
 -48 1840 l 1,5,-1
 252 1840 l 1,6,-1
 428 1479 l 1,7,-1
 264 1479 l 1,4,-1
EndSplineSet
EndChar

StartChar: Iacute
Encoding: 205 205 137
Width: 692
GlyphClass: 2
Flags: W
LayerCount: 2
Fore
SplineSet
202 0 m 1,0,-1
 202 1336 l 1,1,-1
 490 1336 l 1,2,-1
 490 0 l 1,3,-1
 202 0 l 1,0,-1
268 1479 m 1,4,-1
 428 1840 l 1,5,-1
 720 1840 l 1,6,-1
 424 1479 l 1,7,-1
 268 1479 l 1,4,-1
EndSplineSet
EndChar

StartChar: Icircumflex
Encoding: 206 206 138
Width: 692
GlyphClass: 2
Flags: W
LayerCount: 2
Fore
SplineSet
202 0 m 1,0,-1
 202 1336 l 1,1,-1
 490 1336 l 1,2,-1
 490 0 l 1,3,-1
 202 0 l 1,0,-1
12 1479 m 1,4,-1
 248 1847 l 1,5,-1
 444 1847 l 1,6,-1
 680 1479 l 1,7,-1
 494 1479 l 1,8,-1
 336 1673 l 1,9,-1
 194 1479 l 1,10,-1
 12 1479 l 1,4,-1
EndSplineSet
EndChar

StartChar: Idieresis
Encoding: 207 207 139
Width: 692
GlyphClass: 2
Flags: W
LayerCount: 2
Fore
SplineSet
202 0 m 1,0,-1
 202 1336 l 1,1,-1
 490 1336 l 1,2,-1
 490 0 l 1,3,-1
 202 0 l 1,0,-1
62 1479 m 1,4,-1
 62 1724 l 1,5,-1
 256 1724 l 1,6,-1
 256 1479 l 1,7,-1
 62 1479 l 1,4,-1
438 1479 m 1,8,-1
 438 1724 l 1,9,-1
 630 1724 l 1,10,-1
 630 1479 l 1,11,-1
 438 1479 l 1,8,-1
EndSplineSet
EndChar

StartChar: Eth
Encoding: 208 208 140
Width: 1340
GlyphClass: 2
Flags: W
LayerCount: 2
Fore
SplineSet
367 590 m 1,0,-1
 367 211 l 1,1,-1
 565 211 l 2,2,3
 788 211 788 211 907.5 329 c 128,-1,4
 1027 447 1027 447 1027 669 c 0,5,6
 1027 801 1027 801 993.5 891.5 c 128,-1,7
 960 982 960 982 889 1035.5 c 128,-1,8
 818 1089 818 1089 720.5 1112 c 128,-1,9
 623 1135 623 1135 484 1135 c 2,10,-1
 367 1135 l 1,11,-1
 367 772 l 1,12,-1
 542 772 l 1,13,-1
 542 590 l 1,14,-1
 367 590 l 1,0,-1
110 768 m 1,15,-1
 110 1340 l 1,16,-1
 467 1340 l 2,17,18
 615 1340 615 1340 737.5 1318 c 128,-1,19
 860 1296 860 1296 963.5 1246 c 128,-1,20
 1067 1196 1067 1196 1138 1119 c 128,-1,21
 1209 1042 1209 1042 1248.5 928 c 128,-1,22
 1288 814 1288 814 1288 668 c 0,23,24
 1288 454 1288 454 1193.5 302 c 128,-1,25
 1099 150 1099 150 934 75.5 c 128,-1,26
 769 1 769 1 549 1 c 2,27,-1
 110 1 l 1,28,-1
 110 586 l 1,29,-1
 -1 586 l 1,30,-1
 -1 768 l 1,31,-1
 110 768 l 1,15,-1
EndSplineSet
EndChar

StartChar: Ntilde
Encoding: 209 209 141
Width: 1541
GlyphClass: 2
Flags: W
LayerCount: 2
Fore
SplineSet
1087 350 m 1,0,1
 1068 787 1068 787 1068 795 c 2,2,-1
 1068 1336 l 1,3,-1
 1339 1336 l 1,4,-1
 1339 0 l 1,5,-1
 1036 0 l 1,6,-1
 451 961 l 1,7,8
 479 430 479 430 479 409 c 2,9,-1
 479 0 l 1,10,-1
 202 0 l 1,11,-1
 202 1336 l 1,12,-1
 494 1336 l 1,13,-1
 1087 350 l 1,0,1
455 1489 m 1,14,15
 455 1523 455 1523 457.5 1550 c 128,-1,16
 460 1577 460 1577 469.5 1610.5 c 128,-1,17
 479 1644 479 1644 495.5 1667 c 128,-1,18
 512 1690 512 1690 543.5 1705.5 c 128,-1,19
 575 1721 575 1721 617 1721 c 0,20,21
 670 1721 670 1721 734.5 1699.5 c 128,-1,22
 799 1678 799 1678 846.5 1657 c 128,-1,23
 894 1636 894 1636 904 1636 c 0,24,25
 913 1636 913 1636 921 1657.5 c 128,-1,26
 929 1679 929 1679 932 1700 c 2,27,-1
 936 1721 l 1,28,-1
 1086 1721 l 1,29,30
 1086 1711 1086 1711 1084 1695 c 128,-1,31
 1082 1679 1082 1679 1072.5 1637 c 128,-1,32
 1063 1595 1063 1595 1048 1563 c 128,-1,33
 1033 1531 1033 1531 1001 1505 c 128,-1,34
 969 1479 969 1479 928 1479 c 0,35,36
 872 1479 872 1479 766 1524 c 128,-1,37
 660 1569 660 1569 637 1569 c 0,38,39
 628 1569 628 1569 619 1546.5 c 128,-1,40
 610 1524 610 1524 606 1502 c 2,41,-1
 602 1479 l 1,42,-1
 455 1489 l 1,14,15
EndSplineSet
EndChar

StartChar: Ograve
Encoding: 210 210 142
Width: 1566
GlyphClass: 2
Flags: W
LayerCount: 2
Fore
SplineSet
784 -18 m 128,-1,1
 486 -18 486 -18 309 165 c 128,-1,2
 132 348 132 348 132 669 c 0,3,4
 132 992 132 992 309.5 1174.5 c 128,-1,5
 487 1357 487 1357 784 1357 c 128,-1,6
 1081 1357 1081 1357 1257.5 1174.5 c 128,-1,7
 1434 992 1434 992 1434 669 c 0,8,9
 1434 348 1434 348 1258 165 c 128,-1,0
 1082 -18 1082 -18 784 -18 c 128,-1,1
784 1127 m 128,-1,11
 615 1127 615 1127 517.5 1002.5 c 128,-1,12
 420 878 420 878 420 667 c 0,13,14
 420 459 420 459 517.5 334.5 c 128,-1,15
 615 210 615 210 784 210 c 128,-1,16
 953 210 953 210 1049.5 334.5 c 128,-1,17
 1146 459 1146 459 1146 667 c 0,18,19
 1146 878 1146 878 1049.5 1002.5 c 128,-1,10
 953 1127 953 1127 784 1127 c 128,-1,11
700 1479 m 1,20,-1
 390 1840 l 1,21,-1
 688 1840 l 1,22,-1
 866 1479 l 1,23,-1
 700 1479 l 1,20,-1
EndSplineSet
EndChar

StartChar: Oacute
Encoding: 211 211 143
Width: 1566
GlyphClass: 2
Flags: W
LayerCount: 2
Fore
SplineSet
784 -18 m 128,-1,1
 486 -18 486 -18 309 165 c 128,-1,2
 132 348 132 348 132 669 c 0,3,4
 132 992 132 992 309.5 1174.5 c 128,-1,5
 487 1357 487 1357 784 1357 c 128,-1,6
 1081 1357 1081 1357 1257.5 1174.5 c 128,-1,7
 1434 992 1434 992 1434 669 c 0,8,9
 1434 348 1434 348 1258 165 c 128,-1,0
 1082 -18 1082 -18 784 -18 c 128,-1,1
784 1127 m 128,-1,11
 615 1127 615 1127 517.5 1002.5 c 128,-1,12
 420 878 420 878 420 667 c 0,13,14
 420 459 420 459 517.5 334.5 c 128,-1,15
 615 210 615 210 784 210 c 128,-1,16
 953 210 953 210 1049.5 334.5 c 128,-1,17
 1146 459 1146 459 1146 667 c 0,18,19
 1146 878 1146 878 1049.5 1002.5 c 128,-1,10
 953 1127 953 1127 784 1127 c 128,-1,11
704 1479 m 1,20,-1
 864 1840 l 1,21,-1
 1156 1840 l 1,22,-1
 862 1479 l 1,23,-1
 704 1479 l 1,20,-1
EndSplineSet
EndChar

StartChar: Ocircumflex
Encoding: 212 212 144
Width: 1566
GlyphClass: 2
Flags: W
LayerCount: 2
Fore
SplineSet
784 -18 m 128,-1,1
 486 -18 486 -18 309 165 c 128,-1,2
 132 348 132 348 132 669 c 0,3,4
 132 992 132 992 309.5 1174.5 c 128,-1,5
 487 1357 487 1357 784 1357 c 128,-1,6
 1081 1357 1081 1357 1257.5 1174.5 c 128,-1,7
 1434 992 1434 992 1434 669 c 0,8,9
 1434 348 1434 348 1258 165 c 128,-1,0
 1082 -18 1082 -18 784 -18 c 128,-1,1
784 1127 m 128,-1,11
 615 1127 615 1127 517.5 1002.5 c 128,-1,12
 420 878 420 878 420 667 c 0,13,14
 420 459 420 459 517.5 334.5 c 128,-1,15
 615 210 615 210 784 210 c 128,-1,16
 953 210 953 210 1049.5 334.5 c 128,-1,17
 1146 459 1146 459 1146 667 c 0,18,19
 1146 878 1146 878 1049.5 1002.5 c 128,-1,10
 953 1127 953 1127 784 1127 c 128,-1,11
450 1479 m 1,20,-1
 684 1847 l 1,21,-1
 880 1847 l 1,22,-1
 1116 1479 l 1,23,-1
 930 1479 l 1,24,-1
 772 1673 l 1,25,-1
 630 1479 l 1,26,-1
 450 1479 l 1,20,-1
EndSplineSet
EndChar

StartChar: Otilde
Encoding: 213 213 145
Width: 1566
GlyphClass: 2
Flags: W
LayerCount: 2
Fore
SplineSet
784 -18 m 128,-1,1
 486 -18 486 -18 309 165 c 128,-1,2
 132 348 132 348 132 669 c 0,3,4
 132 992 132 992 309.5 1174.5 c 128,-1,5
 487 1357 487 1357 784 1357 c 128,-1,6
 1081 1357 1081 1357 1257.5 1174.5 c 128,-1,7
 1434 992 1434 992 1434 669 c 0,8,9
 1434 348 1434 348 1258 165 c 128,-1,0
 1082 -18 1082 -18 784 -18 c 128,-1,1
784 1127 m 128,-1,11
 615 1127 615 1127 517.5 1002.5 c 128,-1,12
 420 878 420 878 420 667 c 0,13,14
 420 459 420 459 517.5 334.5 c 128,-1,15
 615 210 615 210 784 210 c 128,-1,16
 953 210 953 210 1049.5 334.5 c 128,-1,17
 1146 459 1146 459 1146 667 c 0,18,19
 1146 878 1146 878 1049.5 1002.5 c 128,-1,10
 953 1127 953 1127 784 1127 c 128,-1,11
468 1489 m 1,20,21
 468 1523 468 1523 470.5 1550 c 128,-1,22
 473 1577 473 1577 482.5 1610.5 c 128,-1,23
 492 1644 492 1644 508.5 1667 c 128,-1,24
 525 1690 525 1690 556.5 1705.5 c 128,-1,25
 588 1721 588 1721 630 1721 c 0,26,27
 683 1721 683 1721 747.5 1699.5 c 128,-1,28
 812 1678 812 1678 859 1657 c 128,-1,29
 906 1636 906 1636 916 1636 c 0,30,31
 925 1636 925 1636 933 1657.5 c 128,-1,32
 941 1679 941 1679 944 1700 c 2,33,-1
 948 1721 l 1,34,-1
 1098 1721 l 1,35,36
 1098 1711 1098 1711 1096 1695 c 128,-1,37
 1094 1679 1094 1679 1084.5 1637 c 128,-1,38
 1075 1595 1075 1595 1060 1563 c 128,-1,39
 1045 1531 1045 1531 1013 1505 c 128,-1,40
 981 1479 981 1479 940 1479 c 0,41,42
 884 1479 884 1479 778.5 1524 c 128,-1,43
 673 1569 673 1569 650 1569 c 0,44,45
 641 1569 641 1569 632 1546.5 c 128,-1,46
 623 1524 623 1524 618 1502 c 1,47,-1
 614 1479 l 1,48,-1
 468 1489 l 1,20,21
EndSplineSet
EndChar

StartChar: Odieresis
Encoding: 214 214 146
Width: 1566
GlyphClass: 2
Flags: W
LayerCount: 2
Fore
SplineSet
784 -18 m 128,-1,1
 486 -18 486 -18 309 165 c 128,-1,2
 132 348 132 348 132 669 c 0,3,4
 132 992 132 992 309.5 1174.5 c 128,-1,5
 487 1357 487 1357 784 1357 c 128,-1,6
 1081 1357 1081 1357 1257.5 1174.5 c 128,-1,7
 1434 992 1434 992 1434 669 c 0,8,9
 1434 348 1434 348 1258 165 c 128,-1,0
 1082 -18 1082 -18 784 -18 c 128,-1,1
784 1127 m 128,-1,11
 615 1127 615 1127 517.5 1002.5 c 128,-1,12
 420 878 420 878 420 667 c 0,13,14
 420 459 420 459 517.5 334.5 c 128,-1,15
 615 210 615 210 784 210 c 128,-1,16
 953 210 953 210 1049.5 334.5 c 128,-1,17
 1146 459 1146 459 1146 667 c 0,18,19
 1146 878 1146 878 1049.5 1002.5 c 128,-1,10
 953 1127 953 1127 784 1127 c 128,-1,11
498 1479 m 1,20,-1
 498 1724 l 1,21,-1
 692 1724 l 1,22,-1
 692 1479 l 1,23,-1
 498 1479 l 1,20,-1
874 1479 m 1,24,-1
 874 1724 l 1,25,-1
 1068 1724 l 1,26,-1
 1068 1479 l 1,27,-1
 874 1479 l 1,24,-1
EndSplineSet
EndChar

StartChar: multiply
Encoding: 215 215 147
Width: 1230
GlyphClass: 2
Flags: W
LayerCount: 2
Fore
SplineSet
499 538 m 1,0,-1
 241 810 l 1,1,-1
 373 947 l 1,2,-1
 639 678 l 1,3,-1
 902 947 l 1,4,-1
 1038 809 l 1,5,-1
 777 538 l 1,6,7
 1038 272 l 1,8,-1
 903 130 l 1,9,-1
 639 397 l 1,10,-1
 373 130 l 1,11,-1
 241 271 l 1,12,-1
 499 538 l 1,0,-1
EndSplineSet
EndChar

StartChar: Oslash
Encoding: 216 216 148
Width: 1435
GlyphClass: 2
Flags: W
LayerCount: 2
Fore
SplineSet
429 -179 m 1,0,-1
 324 -134 l 1,1,-1
 405 54 l 1,2,3
 245 136 245 136 155 297.5 c 128,-1,4
 65 459 65 459 65 678 c 0,5,6
 65 839 65 839 114.5 971 c 128,-1,7
 164 1103 164 1103 252 1192 c 128,-1,8
 340 1281 340 1281 462 1329 c 128,-1,9
 584 1377 584 1377 729 1377 c 0,10,11
 848 1377 848 1377 954 1344 c 1,12,-1
 1034 1530 l 1,13,-1
 1145 1486 l 1,14,-1
 1065 1296 l 1,15,16
 1218 1212 1218 1212 1303 1053 c 128,-1,17
 1388 894 1388 894 1388 676 c 0,18,19
 1388 358 1388 358 1205 170 c 128,-1,20
 1022 -18 1022 -18 725 -18 c 0,21,22
 611 -18 611 -18 512 10 c 1,23,-1
 429 -179 l 1,0,-1
496 278 m 1,24,-1
 866 1137 l 1,25,26
 805 1158 805 1158 728 1158 c 0,27,28
 534 1158 534 1158 431.5 1028 c 128,-1,29
 329 898 329 898 329 682 c 0,30,31
 329 399 329 399 496 278 c 1,24,-1
728 194 m 0,32,33
 923 194 923 194 1025.5 321.5 c 128,-1,34
 1128 449 1128 449 1128 666 c 0,35,36
 1128 942 1128 942 971 1065 c 1,37,-1
 601 212 l 1,38,39
 658 194 658 194 728 194 c 0,32,33
EndSplineSet
EndChar

StartChar: Ugrave
Encoding: 217 217 149
Width: 1440
GlyphClass: 2
Flags: W
LayerCount: 2
Fore
SplineSet
720 -18 m 0,0,1
 460 -18 460 -18 314.5 115 c 128,-1,2
 169 248 169 248 169 485 c 2,3,-1
 169 1336 l 1,4,-1
 457 1336 l 1,5,-1
 457 504 l 2,6,7
 457 213 457 213 720 213 c 0,8,9
 855 213 855 213 919 285 c 128,-1,10
 983 357 983 357 983 505 c 2,11,-1
 983 1336 l 1,12,-1
 1271 1336 l 1,13,-1
 1271 484 l 2,14,15
 1271 249 1271 249 1125 115.5 c 128,-1,16
 979 -18 979 -18 720 -18 c 0,0,1
638 1479 m 1,17,-1
 326 1840 l 1,18,-1
 626 1840 l 1,19,-1
 802 1479 l 1,20,-1
 638 1479 l 1,17,-1
EndSplineSet
EndChar

StartChar: Uacute
Encoding: 218 218 150
Width: 1440
GlyphClass: 2
Flags: W
LayerCount: 2
Fore
SplineSet
720 -18 m 0,0,1
 460 -18 460 -18 314.5 115 c 128,-1,2
 169 248 169 248 169 485 c 2,3,-1
 169 1336 l 1,4,-1
 457 1336 l 1,5,-1
 457 504 l 2,6,7
 457 213 457 213 720 213 c 0,8,9
 855 213 855 213 919 285 c 128,-1,10
 983 357 983 357 983 505 c 2,11,-1
 983 1336 l 1,12,-1
 1271 1336 l 1,13,-1
 1271 484 l 2,14,15
 1271 249 1271 249 1125 115.5 c 128,-1,16
 979 -18 979 -18 720 -18 c 0,0,1
642 1479 m 1,17,-1
 802 1840 l 1,18,-1
 1094 1840 l 1,19,-1
 798 1479 l 1,20,-1
 642 1479 l 1,17,-1
EndSplineSet
EndChar

StartChar: Ucircumflex
Encoding: 219 219 151
Width: 1440
GlyphClass: 2
Flags: W
LayerCount: 2
Fore
SplineSet
720 -18 m 0,0,1
 460 -18 460 -18 314.5 115 c 128,-1,2
 169 248 169 248 169 485 c 2,3,-1
 169 1336 l 1,4,-1
 457 1336 l 1,5,-1
 457 504 l 2,6,7
 457 213 457 213 720 213 c 0,8,9
 855 213 855 213 919 285 c 128,-1,10
 983 357 983 357 983 505 c 2,11,-1
 983 1336 l 1,12,-1
 1271 1336 l 1,13,-1
 1271 484 l 2,14,15
 1271 249 1271 249 1125 115.5 c 128,-1,16
 979 -18 979 -18 720 -18 c 0,0,1
386 1479 m 1,17,-1
 622 1847 l 1,18,-1
 818 1847 l 1,19,-1
 1054 1479 l 1,20,-1
 868 1479 l 1,21,-1
 710 1673 l 1,22,-1
 568 1479 l 1,23,-1
 386 1479 l 1,17,-1
EndSplineSet
EndChar

StartChar: Udieresis
Encoding: 220 220 152
Width: 1440
GlyphClass: 2
Flags: W
LayerCount: 2
Fore
SplineSet
720 -18 m 0,0,1
 460 -18 460 -18 314.5 115 c 128,-1,2
 169 248 169 248 169 485 c 2,3,-1
 169 1336 l 1,4,-1
 457 1336 l 1,5,-1
 457 504 l 2,6,7
 457 213 457 213 720 213 c 0,8,9
 855 213 855 213 919 285 c 128,-1,10
 983 357 983 357 983 505 c 2,11,-1
 983 1336 l 1,12,-1
 1271 1336 l 1,13,-1
 1271 484 l 2,14,15
 1271 249 1271 249 1125 115.5 c 128,-1,16
 979 -18 979 -18 720 -18 c 0,0,1
436 1479 m 1,17,-1
 436 1724 l 1,18,-1
 630 1724 l 1,19,-1
 630 1479 l 1,20,-1
 436 1479 l 1,17,-1
812 1479 m 1,21,-1
 812 1724 l 1,22,-1
 1004 1724 l 1,23,-1
 1004 1479 l 1,24,-1
 812 1479 l 1,21,-1
EndSplineSet
EndChar

StartChar: Yacute
Encoding: 221 221 153
Width: 1231
GlyphClass: 2
Flags: W
LayerCount: 2
Fore
SplineSet
623 749 m 1,0,-1
 910 1336 l 1,1,-1
 1208 1336 l 1,2,-1
 764 499 l 1,3,-1
 764 0 l 1,4,-1
 482 0 l 1,5,-1
 482 495 l 1,6,-1
 39 1336 l 1,7,-1
 342 1336 l 1,8,-1
 623 749 l 1,0,-1
545 1479 m 1,9,-1
 705 1840 l 1,10,-1
 997 1840 l 1,11,-1
 702 1479 l 1,12,-1
 545 1479 l 1,9,-1
EndSplineSet
EndChar

StartChar: Thorn
Encoding: 222 222 154
Width: 1164
GlyphClass: 2
Flags: W
LayerCount: 2
Fore
SplineSet
370 1326 m 1,0,-1
 370 1126 l 1,1,-1
 613 1126 l 2,2,3
 704 1126 704 1126 781.5 1112.5 c 128,-1,4
 859 1099 859 1099 926 1068 c 128,-1,5
 993 1037 993 1037 1040 991 c 128,-1,6
 1087 945 1087 945 1113.5 876 c 128,-1,7
 1140 807 1140 807 1140 720 c 0,8,9
 1140 527 1140 527 1001 418.5 c 128,-1,10
 862 310 862 310 645 310 c 2,11,-1
 621 310 l 2,12,13
 597 310 597 310 562 310 c 128,-1,14
 527 310 527 310 489.5 310.5 c 128,-1,15
 452 311 452 311 418.5 311 c 128,-1,16
 385 311 385 311 370 311 c 1,17,-1
 370 16 l 1,18,-1
 153 16 l 1,19,-1
 153 1326 l 1,20,-1
 370 1326 l 1,0,-1
370 946 m 1,21,-1
 371 505 l 1,22,-1
 657 505 l 2,23,24
 784 505 784 505 852.5 562.5 c 128,-1,25
 921 620 921 620 921 725 c 0,26,27
 921 841 921 841 849.5 893.5 c 128,-1,28
 778 946 778 946 632 946 c 2,29,-1
 370 946 l 1,21,-1
EndSplineSet
EndChar

StartChar: germandbls
Encoding: 223 223 155
Width: 1104
GlyphClass: 2
Flags: W
LayerCount: 2
Fore
SplineSet
462 172 m 1,0,-1
 463 180 l 1,1,-1
 680 180 l 2,2,3
 750 180 750 180 787.5 217 c 128,-1,4
 825 254 825 254 825 320 c 0,5,6
 825 360 825 360 807 393.5 c 128,-1,7
 789 427 789 427 753 456 c 128,-1,8
 717 485 717 485 684.5 505 c 128,-1,9
 652 525 652 525 600 553.5 c 128,-1,10
 548 582 548 582 520 600 c 0,11,12
 438 651 438 651 438 722 c 0,13,14
 438 780 438 780 505 835 c 1,15,16
 520 846 520 846 555 870.5 c 128,-1,17
 590 895 590 895 607 909 c 128,-1,18
 624 923 624 923 646 946 c 128,-1,19
 668 969 668 969 677.5 993 c 128,-1,20
 687 1017 687 1017 687 1046 c 0,21,22
 687 1106 687 1106 641 1140.5 c 128,-1,23
 595 1175 595 1175 519 1175 c 0,24,25
 413 1175 413 1175 375.5 1115 c 128,-1,26
 338 1055 338 1055 338 929 c 2,27,-1
 338 0 l 1,28,-1
 89 0 l 1,29,-1
 89 934 l 2,30,31
 89 1137 89 1137 201 1250 c 128,-1,32
 313 1363 313 1363 519 1363 c 0,33,34
 630 1363 630 1363 720.5 1329.5 c 128,-1,35
 811 1296 811 1296 869 1222.5 c 128,-1,36
 927 1149 927 1149 927 1046 c 0,37,38
 927 999 927 999 911.5 957 c 128,-1,39
 896 915 896 915 876.5 886.5 c 128,-1,40
 857 858 857 858 819 825.5 c 128,-1,41
 781 793 781 793 757.5 777 c 128,-1,42
 734 761 734 761 690 733 c 1,43,44
 706 724 706 724 749.5 700 c 128,-1,45
 793 676 793 676 815.5 663 c 128,-1,46
 838 650 838 650 878 624 c 128,-1,47
 918 598 918 598 941 578 c 128,-1,48
 964 558 964 558 993 527 c 128,-1,49
 1022 496 1022 496 1037.5 466.5 c 128,-1,50
 1053 437 1053 437 1064.5 399 c 128,-1,51
 1076 361 1076 361 1076 320 c 0,52,53
 1076 162 1076 162 972.5 81 c 128,-1,54
 869 0 869 0 704 0 c 2,55,-1
 445 0 l 1,56,-1
 439 11 l 1,57,-1
 440 13 l 1,58,-1
 462 172 l 1,0,-1
EndSplineSet
EndChar

StartChar: agrave
Encoding: 224 224 156
Width: 1137
GlyphClass: 2
Flags: W
LayerCount: 2
Fore
SplineSet
464 -18 m 0,0,1
 324 -18 324 -18 234.5 59 c 128,-1,2
 145 136 145 136 145 284 c 0,3,4
 145 445 145 445 248.5 522.5 c 128,-1,5
 352 600 352 600 553 621 c 1,6,7
 697 638 697 638 723 641 c 1,8,-1
 723 689 l 2,9,10
 723 776 723 776 686.5 814 c 128,-1,11
 650 852 650 852 572 852 c 0,12,13
 509 852 509 852 415 830 c 128,-1,14
 321 808 321 808 243 776 c 1,15,16
 241 780 241 780 227 823 c 128,-1,17
 213 866 213 866 199.5 906.5 c 128,-1,18
 186 947 186 947 183 953 c 1,19,20
 392 1041 392 1041 598 1041 c 0,21,22
 797 1041 797 1041 887.5 950.5 c 128,-1,23
 978 860 978 860 978 660 c 2,24,-1
 978 0 l 1,25,-1
 788 0 l 1,26,27
 788 2 788 2 773 67 c 128,-1,28
 758 132 758 132 753 153 c 1,29,30
 699 73 699 73 631 27.5 c 128,-1,31
 563 -18 563 -18 464 -18 c 0,0,1
524 162 m 0,32,33
 596 162 596 162 650.5 202 c 128,-1,34
 705 242 705 242 722 281 c 1,35,-1
 722 482 l 1,36,-1
 643 473 l 1,37,38
 514 462 514 462 457.5 418.5 c 128,-1,39
 401 375 401 375 401 287 c 0,40,41
 401 162 401 162 524 162 c 0,32,33
479 1163 m 1,42,-1
 168 1524 l 1,43,-1
 467 1524 l 1,44,-1
 644 1163 l 1,45,-1
 479 1163 l 1,42,-1
EndSplineSet
EndChar

StartChar: aacute
Encoding: 225 225 157
Width: 1137
GlyphClass: 2
Flags: W
LayerCount: 2
Fore
SplineSet
464 -18 m 0,0,1
 324 -18 324 -18 234.5 59 c 128,-1,2
 145 136 145 136 145 284 c 0,3,4
 145 445 145 445 248.5 522.5 c 128,-1,5
 352 600 352 600 553 621 c 1,6,7
 697 638 697 638 723 641 c 1,8,-1
 723 689 l 2,9,10
 723 776 723 776 686.5 814 c 128,-1,11
 650 852 650 852 572 852 c 0,12,13
 509 852 509 852 415 830 c 128,-1,14
 321 808 321 808 243 776 c 1,15,16
 241 780 241 780 227 823 c 128,-1,17
 213 866 213 866 199.5 906.5 c 128,-1,18
 186 947 186 947 183 953 c 1,19,20
 392 1041 392 1041 598 1041 c 0,21,22
 797 1041 797 1041 887.5 950.5 c 128,-1,23
 978 860 978 860 978 660 c 2,24,-1
 978 0 l 1,25,-1
 788 0 l 1,26,27
 788 2 788 2 773 67 c 128,-1,28
 758 132 758 132 753 153 c 1,29,30
 699 73 699 73 631 27.5 c 128,-1,31
 563 -18 563 -18 464 -18 c 0,0,1
524 162 m 0,32,33
 596 162 596 162 650.5 202 c 128,-1,34
 705 242 705 242 722 281 c 1,35,-1
 722 482 l 1,36,-1
 643 473 l 1,37,38
 514 462 514 462 457.5 418.5 c 128,-1,39
 401 375 401 375 401 287 c 0,40,41
 401 162 401 162 524 162 c 0,32,33
483 1163 m 1,42,-1
 643 1524 l 1,43,-1
 935 1524 l 1,44,-1
 640 1163 l 1,45,-1
 483 1163 l 1,42,-1
EndSplineSet
EndChar

StartChar: acircumflex
Encoding: 226 226 158
Width: 1137
GlyphClass: 2
Flags: W
LayerCount: 2
Fore
SplineSet
464 -18 m 0,0,1
 324 -18 324 -18 234.5 59 c 128,-1,2
 145 136 145 136 145 284 c 0,3,4
 145 445 145 445 248.5 522.5 c 128,-1,5
 352 600 352 600 553 621 c 1,6,7
 697 638 697 638 723 641 c 1,8,-1
 723 689 l 2,9,10
 723 776 723 776 686.5 814 c 128,-1,11
 650 852 650 852 572 852 c 0,12,13
 509 852 509 852 415 830 c 128,-1,14
 321 808 321 808 243 776 c 1,15,16
 241 780 241 780 227 823 c 128,-1,17
 213 866 213 866 199.5 906.5 c 128,-1,18
 186 947 186 947 183 953 c 1,19,20
 392 1041 392 1041 598 1041 c 0,21,22
 797 1041 797 1041 887.5 950.5 c 128,-1,23
 978 860 978 860 978 660 c 2,24,-1
 978 0 l 1,25,-1
 788 0 l 1,26,27
 788 2 788 2 773 67 c 128,-1,28
 758 132 758 132 753 153 c 1,29,30
 699 73 699 73 631 27.5 c 128,-1,31
 563 -18 563 -18 464 -18 c 0,0,1
524 162 m 0,32,33
 596 162 596 162 650.5 202 c 128,-1,34
 705 242 705 242 722 281 c 1,35,-1
 722 482 l 1,36,-1
 643 473 l 1,37,38
 514 462 514 462 457.5 418.5 c 128,-1,39
 401 375 401 375 401 287 c 0,40,41
 401 162 401 162 524 162 c 0,32,33
228 1163 m 1,42,-1
 463 1531 l 1,43,-1
 659 1531 l 1,44,-1
 895 1163 l 1,45,-1
 709 1163 l 1,46,-1
 551 1357 l 1,47,-1
 409 1163 l 1,48,-1
 228 1163 l 1,42,-1
EndSplineSet
EndChar

StartChar: atilde
Encoding: 227 227 159
Width: 1137
GlyphClass: 2
Flags: W
LayerCount: 2
Fore
SplineSet
464 -18 m 0,0,1
 324 -18 324 -18 234.5 59 c 128,-1,2
 145 136 145 136 145 284 c 0,3,4
 145 445 145 445 248.5 522.5 c 128,-1,5
 352 600 352 600 553 621 c 1,6,7
 697 638 697 638 723 641 c 1,8,-1
 723 689 l 2,9,10
 723 776 723 776 686.5 814 c 128,-1,11
 650 852 650 852 572 852 c 0,12,13
 509 852 509 852 415 830 c 128,-1,14
 321 808 321 808 243 776 c 1,15,16
 241 780 241 780 227 823 c 128,-1,17
 213 866 213 866 199.5 906.5 c 128,-1,18
 186 947 186 947 183 953 c 1,19,20
 392 1041 392 1041 598 1041 c 0,21,22
 797 1041 797 1041 887.5 950.5 c 128,-1,23
 978 860 978 860 978 660 c 2,24,-1
 978 0 l 1,25,-1
 788 0 l 1,26,27
 788 2 788 2 773 67 c 128,-1,28
 758 132 758 132 753 153 c 1,29,30
 699 73 699 73 631 27.5 c 128,-1,31
 563 -18 563 -18 464 -18 c 0,0,1
524 162 m 0,32,33
 596 162 596 162 650.5 202 c 128,-1,34
 705 242 705 242 722 281 c 1,35,-1
 722 482 l 1,36,-1
 643 473 l 1,37,38
 514 462 514 462 457.5 418.5 c 128,-1,39
 401 375 401 375 401 287 c 0,40,41
 401 162 401 162 524 162 c 0,32,33
246 1173 m 1,42,43
 246 1207 246 1207 248.5 1234 c 128,-1,44
 251 1261 251 1261 260.5 1294.5 c 128,-1,45
 270 1328 270 1328 286.5 1351 c 128,-1,46
 303 1374 303 1374 334.5 1389.5 c 128,-1,47
 366 1405 366 1405 408 1405 c 0,48,49
 461 1405 461 1405 525.5 1383.5 c 128,-1,50
 590 1362 590 1362 637.5 1341 c 128,-1,51
 685 1320 685 1320 695 1320 c 0,52,53
 704 1320 704 1320 712 1341.5 c 128,-1,54
 720 1363 720 1363 724 1384 c 2,55,-1
 727 1405 l 1,56,-1
 877 1405 l 1,57,58
 877 1395 877 1395 875 1379 c 128,-1,59
 873 1363 873 1363 863.5 1321 c 128,-1,60
 854 1279 854 1279 839 1247 c 128,-1,61
 824 1215 824 1215 792 1189 c 128,-1,62
 760 1163 760 1163 719 1163 c 0,63,64
 663 1163 663 1163 557 1208 c 128,-1,65
 451 1253 451 1253 428 1253 c 0,66,67
 419 1253 419 1253 410 1230.5 c 128,-1,68
 401 1208 401 1208 397 1186 c 2,69,-1
 393 1163 l 1,70,-1
 246 1173 l 1,42,43
EndSplineSet
EndChar

StartChar: adieresis
Encoding: 228 228 160
Width: 1137
GlyphClass: 2
Flags: W
LayerCount: 2
Fore
SplineSet
464 -18 m 0,0,1
 324 -18 324 -18 234.5 59 c 128,-1,2
 145 136 145 136 145 284 c 0,3,4
 145 445 145 445 248.5 522.5 c 128,-1,5
 352 600 352 600 553 621 c 1,6,7
 697 638 697 638 723 641 c 1,8,-1
 723 689 l 2,9,10
 723 776 723 776 686.5 814 c 128,-1,11
 650 852 650 852 572 852 c 0,12,13
 509 852 509 852 415 830 c 128,-1,14
 321 808 321 808 243 776 c 1,15,16
 241 780 241 780 227 823 c 128,-1,17
 213 866 213 866 199.5 906.5 c 128,-1,18
 186 947 186 947 183 953 c 1,19,20
 392 1041 392 1041 598 1041 c 0,21,22
 797 1041 797 1041 887.5 950.5 c 128,-1,23
 978 860 978 860 978 660 c 2,24,-1
 978 0 l 1,25,-1
 788 0 l 1,26,27
 788 2 788 2 773 67 c 128,-1,28
 758 132 758 132 753 153 c 1,29,30
 699 73 699 73 631 27.5 c 128,-1,31
 563 -18 563 -18 464 -18 c 0,0,1
524 162 m 0,32,33
 596 162 596 162 650.5 202 c 128,-1,34
 705 242 705 242 722 281 c 1,35,-1
 722 482 l 1,36,-1
 643 473 l 1,37,38
 514 462 514 462 457.5 418.5 c 128,-1,39
 401 375 401 375 401 287 c 0,40,41
 401 162 401 162 524 162 c 0,32,33
277 1163 m 1,42,-1
 277 1408 l 1,43,-1
 471 1408 l 1,44,-1
 471 1163 l 1,45,-1
 277 1163 l 1,42,-1
653 1163 m 1,46,-1
 653 1408 l 1,47,-1
 846 1408 l 1,48,-1
 846 1163 l 1,49,-1
 653 1163 l 1,46,-1
EndSplineSet
EndChar

StartChar: aring
Encoding: 229 229 161
Width: 1137
GlyphClass: 2
Flags: W
LayerCount: 2
Fore
SplineSet
464 -18 m 0,0,1
 324 -18 324 -18 234.5 59 c 128,-1,2
 145 136 145 136 145 284 c 0,3,4
 145 445 145 445 248.5 522.5 c 128,-1,5
 352 600 352 600 553 621 c 1,6,7
 697 638 697 638 723 641 c 1,8,-1
 723 689 l 2,9,10
 723 776 723 776 686.5 814 c 128,-1,11
 650 852 650 852 572 852 c 0,12,13
 509 852 509 852 415 830 c 128,-1,14
 321 808 321 808 243 776 c 1,15,16
 241 780 241 780 227 823 c 128,-1,17
 213 866 213 866 199.5 906.5 c 128,-1,18
 186 947 186 947 183 953 c 1,19,20
 392 1041 392 1041 598 1041 c 0,21,22
 797 1041 797 1041 887.5 950.5 c 128,-1,23
 978 860 978 860 978 660 c 2,24,-1
 978 0 l 1,25,-1
 788 0 l 1,26,27
 788 2 788 2 773 67 c 128,-1,28
 758 132 758 132 753 153 c 1,29,30
 699 73 699 73 631 27.5 c 128,-1,31
 563 -18 563 -18 464 -18 c 0,0,1
524 162 m 0,32,33
 596 162 596 162 650.5 202 c 128,-1,34
 705 242 705 242 722 281 c 1,35,-1
 722 482 l 1,36,-1
 643 473 l 1,37,38
 514 462 514 462 457.5 418.5 c 128,-1,39
 401 375 401 375 401 287 c 0,40,41
 401 162 401 162 524 162 c 0,32,33
562 1264 m 0,42,43
 602 1264 602 1264 625 1291.5 c 128,-1,44
 648 1319 648 1319 648 1359 c 0,45,46
 648 1398 648 1398 624.5 1426 c 128,-1,47
 601 1454 601 1454 562 1454 c 0,48,49
 524 1454 524 1454 500 1425.5 c 128,-1,50
 476 1397 476 1397 476 1359 c 0,51,52
 476 1318 476 1318 498.5 1291 c 128,-1,53
 521 1264 521 1264 562 1264 c 0,42,43
562 1163 m 128,-1,55
 469 1163 469 1163 412.5 1220.5 c 128,-1,56
 356 1278 356 1278 356 1359 c 128,-1,57
 356 1440 356 1440 412 1497 c 128,-1,58
 468 1554 468 1554 562 1554 c 128,-1,59
 656 1554 656 1554 712 1497 c 128,-1,60
 768 1440 768 1440 768 1359 c 128,-1,61
 768 1278 768 1278 711.5 1220.5 c 128,-1,54
 655 1163 655 1163 562 1163 c 128,-1,55
EndSplineSet
EndChar

StartChar: ae
Encoding: 230 230 162
Width: 1478
GlyphClass: 2
Flags: W
LayerCount: 2
Fore
SplineSet
368 -19 m 0,0,1
 228 -19 228 -19 143.5 71 c 128,-1,2
 59 161 59 161 59 297 c 0,3,4
 59 331 59 331 64 359.5 c 128,-1,5
 69 388 69 388 82 411.5 c 128,-1,6
 95 435 95 435 108.5 454 c 128,-1,7
 122 473 122 473 146.5 488 c 128,-1,8
 171 503 171 503 191.5 514.5 c 128,-1,9
 212 526 212 526 247.5 535.5 c 128,-1,10
 283 545 283 545 309.5 551 c 128,-1,11
 336 557 336 557 381 563.5 c 128,-1,12
 426 570 426 570 457.5 574 c 128,-1,13
 489 578 489 578 542 584 c 2,14,-1
 608 591 l 1,15,-1
 608 687 l 2,16,17
 608 777 608 777 575.5 817 c 128,-1,18
 543 857 543 857 453 861 c 1,19,20
 346 861 346 861 170 792 c 1,21,-1
 160 788 l 1,22,-1
 112 969 l 1,23,-1
 119 973 l 1,24,25
 268 1044 268 1044 459 1049 c 0,26,27
 569 1051 569 1051 647 1012.5 c 128,-1,28
 725 974 725 974 757 901 c 1,29,30
 810 967 810 967 892.5 1008 c 128,-1,31
 975 1049 975 1049 1073 1049 c 0,32,33
 1169 1049 1169 1049 1242 1010 c 128,-1,34
 1315 971 1315 971 1357.5 903.5 c 128,-1,35
 1400 836 1400 836 1421 753 c 128,-1,36
 1442 670 1442 670 1442 573 c 0,37,38
 1442 490 1442 490 1293 485 c 0,39,40
 1281 484 1281 484 1093.5 469.5 c 128,-1,41
 906 455 906 455 848 451 c 1,42,43
 863 171 863 171 1095 168 c 1,44,45
 1173 168 1173 168 1239 189.5 c 128,-1,46
 1305 211 1305 211 1342 240 c 1,47,-1
 1352 247 l 1,48,-1
 1424 84 l 1,49,-1
 1418 79 l 1,50,51
 1284 -18 1284 -18 1079 -18 c 0,52,53
 857 -18 857 -18 744 119 c 1,54,55
 589 -19 589 -19 368 -19 c 0,0,1
402 153 m 0,56,57
 516 153 516 153 650 256 c 1,58,59
 619 333 619 333 613 421 c 1,60,61
 559 412 559 412 544 412 c 2,62,-1
 543 412 l 1,63,64
 401 396 401 396 344 370 c 128,-1,65
 287 344 287 344 287 281 c 0,66,67
 287 153 287 153 402 153 c 0,56,57
849 614 m 1,68,-1
 1215 646 l 1,69,-1
 1215 665 l 2,70,71
 1215 859 1215 859 1071 859 c 0,72,73
 988 859 988 859 925 802 c 128,-1,74
 862 745 862 745 849 614 c 1,68,-1
EndSplineSet
EndChar

StartChar: ccedilla
Encoding: 231 231 163
Width: 993
GlyphClass: 2
Flags: W
LayerCount: 2
Fore
SplineSet
601 -18 m 2,0,1
 584 -18 l 1,2,-1
 532 -363 l 1,3,-1
 322 -363 l 1,4,-1
 438 -6 l 1,5,-1
 479 -6 l 1,6,7
 308 29 308 29 213.5 163 c 128,-1,8
 119 297 119 297 119 516 c 0,9,10
 119 764 119 764 254 902.5 c 128,-1,11
 389 1041 389 1041 604 1041 c 0,12,13
 774 1041 774 1041 905 959 c 1,14,-1
 845 781 l 1,15,16
 837 784 837 784 815 796.5 c 128,-1,17
 793 809 793 809 775 817 c 128,-1,18
 757 825 757 825 719 832.5 c 128,-1,19
 681 840 681 840 634 840 c 1,20,21
 518 834 518 834 446.5 752.5 c 128,-1,22
 375 671 375 671 375 513 c 0,23,24
 375 354 375 354 443.5 271.5 c 128,-1,25
 512 189 512 189 627 183 c 0,26,27
 738 177 738 177 862 247 c 1,28,-1
 895 64 l 1,29,30
 891 62 891 62 870 48.5 c 128,-1,31
 849 35 849 35 829.5 26 c 128,-1,32
 810 17 810 17 777.5 5.5 c 128,-1,33
 745 -6 745 -6 700 -12 c 128,-1,34
 655 -18 655 -18 601 -18 c 2,0,1
EndSplineSet
EndChar

StartChar: egrave
Encoding: 232 232 164
Width: 1119
GlyphClass: 2
Flags: W
LayerCount: 2
Fore
SplineSet
384 613 m 1,0,-1
 778 613 l 1,1,2
 775 724 775 724 724.5 789 c 128,-1,3
 674 854 674 854 587 854 c 0,4,5
 507 854 507 854 452.5 792 c 128,-1,6
 398 730 398 730 384 613 c 1,0,-1
623 -18 m 0,7,8
 387 -18 387 -18 253 123.5 c 128,-1,9
 119 265 119 265 119 512 c 0,10,11
 119 752 119 752 245 896 c 128,-1,12
 371 1040 371 1040 586 1041 c 0,13,14
 791 1041 791 1041 904.5 908 c 128,-1,15
 1018 775 1018 775 1018 558 c 1,16,-1
 1011 448 l 1,17,-1
 378 448 l 1,18,19
 398 174 398 174 647 174 c 0,20,21
 677 174 677 174 705.5 176.5 c 128,-1,22
 734 179 734 179 756 182 c 128,-1,23
 778 185 778 185 802 191 c 128,-1,24
 826 197 826 197 840.5 201 c 128,-1,25
 855 205 855 205 875 213 c 128,-1,26
 895 221 895 221 902 224 c 128,-1,27
 909 227 909 227 926 235 c 128,-1,28
 943 243 943 243 944 243 c 2,29,-1
 979 63 l 1,30,31
 909 18 909 18 826 0 c 128,-1,32
 743 -18 743 -18 623 -18 c 0,7,8
486 1163 m 1,33,-1
 175 1524 l 1,34,-1
 474 1524 l 1,35,-1
 651 1163 l 1,36,-1
 486 1163 l 1,33,-1
EndSplineSet
EndChar

StartChar: eacute
Encoding: 233 233 165
Width: 1119
GlyphClass: 2
Flags: W
LayerCount: 2
Fore
SplineSet
384 613 m 1,0,-1
 778 613 l 1,1,2
 775 724 775 724 724.5 789 c 128,-1,3
 674 854 674 854 587 854 c 0,4,5
 507 854 507 854 452.5 792 c 128,-1,6
 398 730 398 730 384 613 c 1,0,-1
623 -18 m 0,7,8
 387 -18 387 -18 253 123.5 c 128,-1,9
 119 265 119 265 119 512 c 0,10,11
 119 752 119 752 245 896 c 128,-1,12
 371 1040 371 1040 586 1041 c 0,13,14
 791 1041 791 1041 904.5 908 c 128,-1,15
 1018 775 1018 775 1018 558 c 1,16,-1
 1011 448 l 1,17,-1
 378 448 l 1,18,19
 398 174 398 174 647 174 c 0,20,21
 677 174 677 174 705.5 176.5 c 128,-1,22
 734 179 734 179 756 182 c 128,-1,23
 778 185 778 185 802 191 c 128,-1,24
 826 197 826 197 840.5 201 c 128,-1,25
 855 205 855 205 875 213 c 128,-1,26
 895 221 895 221 902 224 c 128,-1,27
 909 227 909 227 926 235 c 128,-1,28
 943 243 943 243 944 243 c 2,29,-1
 979 63 l 1,30,31
 909 18 909 18 826 0 c 128,-1,32
 743 -18 743 -18 623 -18 c 0,7,8
490 1163 m 1,33,-1
 650 1524 l 1,34,-1
 942 1524 l 1,35,-1
 647 1163 l 1,36,-1
 490 1163 l 1,33,-1
EndSplineSet
EndChar

StartChar: ecircumflex
Encoding: 234 234 166
Width: 1119
GlyphClass: 2
Flags: W
LayerCount: 2
Fore
SplineSet
384 613 m 1,0,-1
 778 613 l 1,1,2
 775 724 775 724 724.5 789 c 128,-1,3
 674 854 674 854 587 854 c 0,4,5
 507 854 507 854 452.5 792 c 128,-1,6
 398 730 398 730 384 613 c 1,0,-1
623 -18 m 0,7,8
 387 -18 387 -18 253 123.5 c 128,-1,9
 119 265 119 265 119 512 c 0,10,11
 119 752 119 752 245 896 c 128,-1,12
 371 1040 371 1040 586 1041 c 0,13,14
 791 1041 791 1041 904.5 908 c 128,-1,15
 1018 775 1018 775 1018 558 c 1,16,-1
 1011 448 l 1,17,-1
 378 448 l 1,18,19
 398 174 398 174 647 174 c 0,20,21
 677 174 677 174 705.5 176.5 c 128,-1,22
 734 179 734 179 756 182 c 128,-1,23
 778 185 778 185 802 191 c 128,-1,24
 826 197 826 197 840.5 201 c 128,-1,25
 855 205 855 205 875 213 c 128,-1,26
 895 221 895 221 902 224 c 128,-1,27
 909 227 909 227 926 235 c 128,-1,28
 943 243 943 243 944 243 c 2,29,-1
 979 63 l 1,30,31
 909 18 909 18 826 0 c 128,-1,32
 743 -18 743 -18 623 -18 c 0,7,8
235 1163 m 1,33,-1
 470 1531 l 1,34,-1
 666 1531 l 1,35,-1
 902 1163 l 1,36,-1
 716 1163 l 1,37,-1
 558 1357 l 1,38,-1
 416 1163 l 1,39,-1
 235 1163 l 1,33,-1
EndSplineSet
EndChar

StartChar: edieresis
Encoding: 235 235 167
Width: 1119
GlyphClass: 2
Flags: W
LayerCount: 2
Fore
SplineSet
384 613 m 1,0,-1
 778 613 l 1,1,2
 775 724 775 724 724.5 789 c 128,-1,3
 674 854 674 854 587 854 c 0,4,5
 507 854 507 854 452.5 792 c 128,-1,6
 398 730 398 730 384 613 c 1,0,-1
623 -18 m 0,7,8
 387 -18 387 -18 253 123.5 c 128,-1,9
 119 265 119 265 119 512 c 0,10,11
 119 752 119 752 245 896 c 128,-1,12
 371 1040 371 1040 586 1041 c 0,13,14
 791 1041 791 1041 904.5 908 c 128,-1,15
 1018 775 1018 775 1018 558 c 1,16,-1
 1011 448 l 1,17,-1
 378 448 l 1,18,19
 398 174 398 174 647 174 c 0,20,21
 677 174 677 174 705.5 176.5 c 128,-1,22
 734 179 734 179 756 182 c 128,-1,23
 778 185 778 185 802 191 c 128,-1,24
 826 197 826 197 840.5 201 c 128,-1,25
 855 205 855 205 875 213 c 128,-1,26
 895 221 895 221 902 224 c 128,-1,27
 909 227 909 227 926 235 c 128,-1,28
 943 243 943 243 944 243 c 2,29,-1
 979 63 l 1,30,31
 909 18 909 18 826 0 c 128,-1,32
 743 -18 743 -18 623 -18 c 0,7,8
284 1163 m 1,33,-1
 284 1408 l 1,34,-1
 478 1408 l 1,35,-1
 478 1163 l 1,36,-1
 284 1163 l 1,33,-1
660 1163 m 1,37,-1
 660 1408 l 1,38,-1
 853 1408 l 1,39,-1
 853 1163 l 1,40,-1
 660 1163 l 1,37,-1
EndSplineSet
EndChar

StartChar: igrave
Encoding: 236 236 168
Width: 480
GlyphClass: 2
Flags: W
LayerCount: 2
Fore
SplineSet
109 0 m 1,0,-1
 109 1016 l 1,1,-1
 356 1016 l 1,2,-1
 356 0 l 1,3,-1
 109 0 l 1,0,-1
150 1163 m 1,4,-1
 -161 1524 l 1,5,-1
 138 1524 l 1,6,-1
 315 1163 l 1,7,-1
 150 1163 l 1,4,-1
EndSplineSet
EndChar

StartChar: iacute
Encoding: 237 237 169
Width: 480
GlyphClass: 2
Flags: W
LayerCount: 2
Fore
SplineSet
109 0 m 1,0,-1
 109 1016 l 1,1,-1
 356 1016 l 1,2,-1
 356 0 l 1,3,-1
 109 0 l 1,0,-1
154 1163 m 1,4,-1
 314 1524 l 1,5,-1
 606 1524 l 1,6,-1
 311 1163 l 1,7,-1
 154 1163 l 1,4,-1
EndSplineSet
EndChar

StartChar: icircumflex
Encoding: 238 238 170
Width: 480
GlyphClass: 2
Flags: W
LayerCount: 2
Fore
SplineSet
109 0 m 1,0,-1
 109 1016 l 1,1,-1
 356 1016 l 1,2,-1
 356 0 l 1,3,-1
 109 0 l 1,0,-1
-101 1163 m 1,4,-1
 134 1531 l 1,5,-1
 330 1531 l 1,6,-1
 566 1163 l 1,7,-1
 380 1163 l 1,8,-1
 222 1357 l 1,9,-1
 80 1163 l 1,10,-1
 -101 1163 l 1,4,-1
EndSplineSet
EndChar

StartChar: idieresis
Encoding: 239 239 171
Width: 480
GlyphClass: 2
Flags: W
LayerCount: 2
Fore
SplineSet
109 0 m 1,0,-1
 109 1016 l 1,1,-1
 356 1016 l 1,2,-1
 356 0 l 1,3,-1
 109 0 l 1,0,-1
-52 1163 m 1,4,-1
 -52 1408 l 1,5,-1
 142 1408 l 1,6,-1
 142 1163 l 1,7,-1
 -52 1163 l 1,4,-1
324 1163 m 1,8,-1
 324 1408 l 1,9,-1
 517 1408 l 1,10,-1
 517 1163 l 1,11,-1
 324 1163 l 1,8,-1
EndSplineSet
EndChar

StartChar: eth
Encoding: 240 240 172
Width: 1075
GlyphClass: 2
Flags: W
LayerCount: 2
Fore
SplineSet
557 -17 m 0,0,1
 340 -17 340 -17 204.5 108 c 128,-1,2
 69 233 69 233 69 433 c 0,3,4
 69 626 69 626 191.5 744 c 128,-1,5
 314 862 314 862 515 862 c 0,6,7
 565 862 565 862 633 842 c 1,8,9
 566 926 566 926 476 1025 c 1,10,-1
 253 936 l 1,11,-1
 192 1105 l 1,12,-1
 350 1169 l 1,13,-1
 165 1377 l 1,14,-1
 454 1377 l 1,15,-1
 558 1255 l 1,16,-1
 798 1353 l 1,17,-1
 861 1183 l 1,18,-1
 680 1110 l 1,19,20
 750 1030 750 1030 782 992.5 c 128,-1,21
 814 955 814 955 863.5 890 c 128,-1,22
 913 825 913 825 947 770 c 1,23,24
 1040 613 1040 613 1041 424 c 1,25,26
 1041 217 1041 217 910.5 100 c 128,-1,27
 780 -17 780 -17 557 -17 c 0,0,1
564 179 m 0,28,29
 684 179 684 179 751 247 c 128,-1,30
 818 315 818 315 818 430 c 0,31,32
 818 546 818 546 749 617 c 128,-1,33
 680 688 680 688 558 688 c 128,-1,34
 436 688 436 688 369 620 c 128,-1,35
 302 552 302 552 302 434 c 0,36,37
 302 320 302 320 372 249.5 c 128,-1,38
 442 179 442 179 564 179 c 0,28,29
EndSplineSet
EndChar

StartChar: ntilde
Encoding: 241 241 173
Width: 1203
GlyphClass: 2
Flags: W
LayerCount: 2
Fore
SplineSet
159 0 m 1,0,-1
 159 1016 l 1,1,-1
 367 1016 l 1,2,-1
 391 902 l 1,3,4
 535 1041 535 1041 712 1041 c 0,5,6
 885 1041 885 1041 972.5 936.5 c 128,-1,7
 1060 832 1060 832 1060 640 c 2,8,-1
 1060 0 l 1,9,-1
 804 0 l 1,10,-1
 804 612 l 1,11,12
 803 732 803 732 770 788 c 128,-1,13
 737 844 737 844 647 844 c 0,14,15
 576 844 576 844 529 820.5 c 128,-1,16
 482 797 482 797 457.5 748.5 c 128,-1,17
 433 700 433 700 424 641.5 c 128,-1,18
 415 583 415 583 415 496 c 2,19,-1
 415 0 l 1,20,-1
 159 0 l 1,0,-1
294 1173 m 1,21,22
 294 1207 294 1207 296.5 1234 c 128,-1,23
 299 1261 299 1261 308.5 1294.5 c 128,-1,24
 318 1328 318 1328 334.5 1351 c 128,-1,25
 351 1374 351 1374 382.5 1389.5 c 128,-1,26
 414 1405 414 1405 456 1405 c 0,27,28
 509 1405 509 1405 573.5 1383.5 c 128,-1,29
 638 1362 638 1362 685.5 1341 c 128,-1,30
 733 1320 733 1320 743 1320 c 0,31,32
 752 1320 752 1320 760 1341.5 c 128,-1,33
 768 1363 768 1363 772 1384 c 2,34,-1
 775 1405 l 1,35,-1
 925 1405 l 1,36,37
 925 1395 925 1395 923 1379 c 128,-1,38
 921 1363 921 1363 911.5 1321 c 128,-1,39
 902 1279 902 1279 887 1247 c 128,-1,40
 872 1215 872 1215 840 1189 c 128,-1,41
 808 1163 808 1163 767 1163 c 0,42,43
 711 1163 711 1163 605 1208 c 128,-1,44
 499 1253 499 1253 476 1253 c 0,45,46
 467 1253 467 1253 458 1230.5 c 128,-1,47
 449 1208 449 1208 445 1186 c 2,48,-1
 441 1163 l 1,49,-1
 294 1173 l 1,21,22
EndSplineSet
EndChar

StartChar: ograve
Encoding: 242 242 174
Width: 1198
GlyphClass: 2
Flags: W
LayerCount: 2
Fore
SplineSet
599 -18 m 0,0,1
 378 -18 378 -18 248.5 126 c 128,-1,2
 119 270 119 270 119 512 c 0,3,4
 119 762 119 762 244 901.5 c 128,-1,5
 369 1041 369 1041 599 1041 c 0,6,7
 821 1041 821 1041 950 898 c 128,-1,8
 1079 755 1079 755 1079 512 c 0,9,10
 1079 264 1079 264 953.5 123 c 128,-1,11
 828 -18 828 -18 599 -18 c 0,0,1
599 178 m 128,-1,13
 823 178 823 178 823 512 c 0,14,15
 823 844 823 844 599 844 c 128,-1,16
 375 844 375 844 375 511 c 128,-1,12
 375 178 375 178 599 178 c 128,-1,13
516 1163 m 1,17,-1
 206 1524 l 1,18,-1
 504 1524 l 1,19,-1
 682 1163 l 1,20,-1
 516 1163 l 1,17,-1
EndSplineSet
EndChar

StartChar: oacute
Encoding: 243 243 175
Width: 1198
GlyphClass: 2
Flags: W
LayerCount: 2
Fore
SplineSet
599 -18 m 0,0,1
 378 -18 378 -18 248.5 126 c 128,-1,2
 119 270 119 270 119 512 c 0,3,4
 119 762 119 762 244 901.5 c 128,-1,5
 369 1041 369 1041 599 1041 c 0,6,7
 821 1041 821 1041 950 898 c 128,-1,8
 1079 755 1079 755 1079 512 c 0,9,10
 1079 264 1079 264 953.5 123 c 128,-1,11
 828 -18 828 -18 599 -18 c 0,0,1
599 178 m 128,-1,13
 823 178 823 178 823 512 c 0,14,15
 823 844 823 844 599 844 c 128,-1,16
 375 844 375 844 375 511 c 128,-1,12
 375 178 375 178 599 178 c 128,-1,13
520 1163 m 1,17,-1
 680 1524 l 1,18,-1
 972 1524 l 1,19,-1
 678 1163 l 1,20,-1
 520 1163 l 1,17,-1
EndSplineSet
EndChar

StartChar: ocircumflex
Encoding: 244 244 176
Width: 1198
GlyphClass: 2
Flags: W
LayerCount: 2
Fore
SplineSet
599 -18 m 0,0,1
 378 -18 378 -18 248.5 126 c 128,-1,2
 119 270 119 270 119 512 c 0,3,4
 119 762 119 762 244 901.5 c 128,-1,5
 369 1041 369 1041 599 1041 c 0,6,7
 821 1041 821 1041 950 898 c 128,-1,8
 1079 755 1079 755 1079 512 c 0,9,10
 1079 264 1079 264 953.5 123 c 128,-1,11
 828 -18 828 -18 599 -18 c 0,0,1
599 178 m 128,-1,13
 823 178 823 178 823 512 c 0,14,15
 823 844 823 844 599 844 c 128,-1,16
 375 844 375 844 375 511 c 128,-1,12
 375 178 375 178 599 178 c 128,-1,13
266 1163 m 1,17,-1
 500 1531 l 1,18,-1
 696 1531 l 1,19,-1
 932 1163 l 1,20,-1
 746 1163 l 1,21,-1
 588 1357 l 1,22,-1
 446 1163 l 1,23,-1
 266 1163 l 1,17,-1
EndSplineSet
EndChar

StartChar: otilde
Encoding: 245 245 177
Width: 1198
GlyphClass: 2
Flags: W
LayerCount: 2
Fore
SplineSet
599 -18 m 0,0,1
 378 -18 378 -18 248.5 126 c 128,-1,2
 119 270 119 270 119 512 c 0,3,4
 119 762 119 762 244 901.5 c 128,-1,5
 369 1041 369 1041 599 1041 c 0,6,7
 821 1041 821 1041 950 898 c 128,-1,8
 1079 755 1079 755 1079 512 c 0,9,10
 1079 264 1079 264 953.5 123 c 128,-1,11
 828 -18 828 -18 599 -18 c 0,0,1
599 178 m 128,-1,13
 823 178 823 178 823 512 c 0,14,15
 823 844 823 844 599 844 c 128,-1,16
 375 844 375 844 375 511 c 128,-1,12
 375 178 375 178 599 178 c 128,-1,13
284 1173 m 1,17,18
 284 1207 284 1207 286.5 1234 c 128,-1,19
 289 1261 289 1261 298.5 1294.5 c 128,-1,20
 308 1328 308 1328 324.5 1351 c 128,-1,21
 341 1374 341 1374 372.5 1389.5 c 128,-1,22
 404 1405 404 1405 446 1405 c 0,23,24
 499 1405 499 1405 563.5 1383.5 c 128,-1,25
 628 1362 628 1362 675 1341 c 128,-1,26
 722 1320 722 1320 732 1320 c 0,27,28
 741 1320 741 1320 749 1341.5 c 128,-1,29
 757 1363 757 1363 760 1384 c 2,30,-1
 764 1405 l 1,31,-1
 914 1405 l 1,32,33
 914 1395 914 1395 912 1379 c 128,-1,34
 910 1363 910 1363 900.5 1321 c 128,-1,35
 891 1279 891 1279 876 1247 c 128,-1,36
 861 1215 861 1215 829 1189 c 128,-1,37
 797 1163 797 1163 756 1163 c 0,38,39
 700 1163 700 1163 594.5 1208 c 128,-1,40
 489 1253 489 1253 466 1253 c 0,41,42
 457 1253 457 1253 448 1230.5 c 128,-1,43
 439 1208 439 1208 434 1186 c 1,44,-1
 430 1163 l 1,45,-1
 284 1173 l 1,17,18
EndSplineSet
EndChar

StartChar: odieresis
Encoding: 246 246 178
Width: 1198
GlyphClass: 2
Flags: W
LayerCount: 2
Fore
SplineSet
599 -18 m 0,0,1
 378 -18 378 -18 248.5 126 c 128,-1,2
 119 270 119 270 119 512 c 0,3,4
 119 762 119 762 244 901.5 c 128,-1,5
 369 1041 369 1041 599 1041 c 0,6,7
 821 1041 821 1041 950 898 c 128,-1,8
 1079 755 1079 755 1079 512 c 0,9,10
 1079 264 1079 264 953.5 123 c 128,-1,11
 828 -18 828 -18 599 -18 c 0,0,1
599 178 m 128,-1,13
 823 178 823 178 823 512 c 0,14,15
 823 844 823 844 599 844 c 128,-1,16
 375 844 375 844 375 511 c 128,-1,12
 375 178 375 178 599 178 c 128,-1,13
314 1163 m 1,17,-1
 314 1408 l 1,18,-1
 508 1408 l 1,19,-1
 508 1163 l 1,20,-1
 314 1163 l 1,17,-1
690 1163 m 1,21,-1
 690 1408 l 1,22,-1
 884 1408 l 1,23,-1
 884 1163 l 1,24,-1
 690 1163 l 1,21,-1
EndSplineSet
EndChar

StartChar: divide
Encoding: 247 247 179
Width: 1282
GlyphClass: 2
Flags: W
LayerCount: 2
Fore
SplineSet
519 18 m 1,0,-1
 519 279 l 1,1,-1
 779 279 l 1,2,-1
 779 18 l 1,3,-1
 519 18 l 1,0,-1
154 444 m 1,4,-1
 154 630 l 1,5,-1
 1142 630 l 1,6,-1
 1142 444 l 1,7,-1
 154 444 l 1,4,-1
519 797 m 1,8,-1
 519 1047 l 1,9,-1
 787 1047 l 1,10,-1
 787 797 l 1,11,-1
 519 797 l 1,8,-1
EndSplineSet
EndChar

StartChar: oslash
Encoding: 248 248 180
Width: 1039
GlyphClass: 2
Flags: W
LayerCount: 2
Fore
SplineSet
276 -203 m 1,0,-1
 203 -165 l 1,1,-1
 291 43 l 1,2,3
 176 106 176 106 115 228 c 128,-1,4
 54 350 54 350 54 510 c 0,5,6
 54 745 54 745 179.5 889.5 c 128,-1,7
 305 1034 305 1034 533 1034 c 0,8,9
 622 1034 622 1034 700 1010 c 1,10,-1
 785 1177 l 1,11,-1
 865 1152 l 1,12,-1
 779 975 l 1,13,14
 890 911 890 911 948 790.5 c 128,-1,15
 1006 670 1006 670 1006 510 c 0,16,17
 1006 359 1006 359 952.5 242 c 128,-1,18
 899 125 899 125 789.5 55.5 c 128,-1,19
 680 -14 680 -14 529 -14 c 0,20,21
 442 -14 442 -14 367 9 c 1,22,-1
 276 -203 l 1,0,-1
372 248 m 1,23,-1
 624 834 l 1,24,25
 585 853 585 853 530 853 c 0,26,27
 417 853 417 853 355 764.5 c 128,-1,28
 293 676 293 676 293 516 c 0,29,30
 293 336 293 336 372 248 c 1,23,-1
531 164 m 0,31,32
 644 164 644 164 705 253 c 128,-1,33
 766 342 766 342 766 500 c 0,34,35
 766 676 766 676 695 765 c 1,36,-1
 443 181 l 1,37,38
 482 164 482 164 531 164 c 0,31,32
EndSplineSet
EndChar

StartChar: ugrave
Encoding: 249 249 181
Width: 1198
GlyphClass: 2
Flags: W
LayerCount: 2
Fore
SplineSet
1039 1016 m 1,0,-1
 1039 0 l 1,1,-1
 835 0 l 1,2,-1
 811 125 l 1,3,4
 678 -24 678 -24 491 -24 c 0,5,6
 318 -24 318 -24 230.5 80.5 c 128,-1,7
 143 185 143 185 143 377 c 2,8,-1
 143 1016 l 1,9,-1
 399 1016 l 1,10,-1
 399 404 l 2,11,12
 399 283 399 283 432.5 227.5 c 128,-1,13
 466 172 466 172 556 172 c 0,14,15
 614 172 614 172 655 188.5 c 128,-1,16
 696 205 696 205 721 232 c 128,-1,17
 746 259 746 259 760 305 c 128,-1,18
 774 351 774 351 778.5 400.5 c 128,-1,19
 783 450 783 450 783 520 c 2,20,-1
 783 1016 l 1,21,-1
 1039 1016 l 1,0,-1
508 1163 m 1,22,-1
 198 1524 l 1,23,-1
 496 1524 l 1,24,-1
 674 1163 l 1,25,-1
 508 1163 l 1,22,-1
EndSplineSet
EndChar

StartChar: uacute
Encoding: 250 250 182
Width: 1198
GlyphClass: 2
Flags: W
LayerCount: 2
Fore
SplineSet
1039 1016 m 1,0,-1
 1039 0 l 1,1,-1
 835 0 l 1,2,-1
 811 125 l 1,3,4
 678 -24 678 -24 491 -24 c 0,5,6
 318 -24 318 -24 230.5 80.5 c 128,-1,7
 143 185 143 185 143 377 c 2,8,-1
 143 1016 l 1,9,-1
 399 1016 l 1,10,-1
 399 404 l 2,11,12
 399 283 399 283 432.5 227.5 c 128,-1,13
 466 172 466 172 556 172 c 0,14,15
 614 172 614 172 655 188.5 c 128,-1,16
 696 205 696 205 721 232 c 128,-1,17
 746 259 746 259 760 305 c 128,-1,18
 774 351 774 351 778.5 400.5 c 128,-1,19
 783 450 783 450 783 520 c 2,20,-1
 783 1016 l 1,21,-1
 1039 1016 l 1,0,-1
512 1163 m 1,22,-1
 672 1524 l 1,23,-1
 964 1524 l 1,24,-1
 670 1163 l 1,25,-1
 512 1163 l 1,22,-1
EndSplineSet
EndChar

StartChar: ucircumflex
Encoding: 251 251 183
Width: 1198
GlyphClass: 2
Flags: W
LayerCount: 2
Fore
SplineSet
1039 1016 m 1,0,-1
 1039 0 l 1,1,-1
 835 0 l 1,2,-1
 811 125 l 1,3,4
 678 -24 678 -24 491 -24 c 0,5,6
 318 -24 318 -24 230.5 80.5 c 128,-1,7
 143 185 143 185 143 377 c 2,8,-1
 143 1016 l 1,9,-1
 399 1016 l 1,10,-1
 399 404 l 2,11,12
 399 283 399 283 432.5 227.5 c 128,-1,13
 466 172 466 172 556 172 c 0,14,15
 614 172 614 172 655 188.5 c 128,-1,16
 696 205 696 205 721 232 c 128,-1,17
 746 259 746 259 760 305 c 128,-1,18
 774 351 774 351 778.5 400.5 c 128,-1,19
 783 450 783 450 783 520 c 2,20,-1
 783 1016 l 1,21,-1
 1039 1016 l 1,0,-1
258 1163 m 1,22,-1
 492 1531 l 1,23,-1
 688 1531 l 1,24,-1
 924 1163 l 1,25,-1
 738 1163 l 1,26,-1
 580 1357 l 1,27,-1
 438 1163 l 1,28,-1
 258 1163 l 1,22,-1
EndSplineSet
EndChar

StartChar: udieresis
Encoding: 252 252 184
Width: 1198
GlyphClass: 2
Flags: W
LayerCount: 2
Fore
SplineSet
1039 1016 m 1,0,-1
 1039 0 l 1,1,-1
 835 0 l 1,2,-1
 811 125 l 1,3,4
 678 -24 678 -24 491 -24 c 0,5,6
 318 -24 318 -24 230.5 80.5 c 128,-1,7
 143 185 143 185 143 377 c 2,8,-1
 143 1016 l 1,9,-1
 399 1016 l 1,10,-1
 399 404 l 2,11,12
 399 283 399 283 432.5 227.5 c 128,-1,13
 466 172 466 172 556 172 c 0,14,15
 614 172 614 172 655 188.5 c 128,-1,16
 696 205 696 205 721 232 c 128,-1,17
 746 259 746 259 760 305 c 128,-1,18
 774 351 774 351 778.5 400.5 c 128,-1,19
 783 450 783 450 783 520 c 2,20,-1
 783 1016 l 1,21,-1
 1039 1016 l 1,0,-1
306 1163 m 1,22,-1
 306 1408 l 1,23,-1
 500 1408 l 1,24,-1
 500 1163 l 1,25,-1
 306 1163 l 1,22,-1
682 1163 m 1,26,-1
 682 1408 l 1,27,-1
 876 1408 l 1,28,-1
 876 1163 l 1,29,-1
 682 1163 l 1,26,-1
EndSplineSet
EndChar

StartChar: yacute
Encoding: 253 253 185
Width: 1103
GlyphClass: 2
Flags: W
LayerCount: 2
Fore
SplineSet
123 -392 m 1,0,-1
 111 -201 l 1,1,2
 171 -209 171 -209 223 -209 c 0,3,4
 298 -209 298 -209 336.5 -179.5 c 128,-1,5
 375 -150 375 -150 406 -68 c 0,6,7
 410 -58 410 -58 424.5 -26 c 128,-1,8
 439 6 439 6 446 28 c 1,9,-1
 60 1016 l 1,10,-1
 325 1016 l 1,11,-1
 566 297 l 1,12,-1
 780 1016 l 1,13,-1
 1046 1016 l 1,14,15
 1043 1006 1043 1006 843.5 457 c 128,-1,16
 644 -92 644 -92 641 -99 c 0,17,18
 578 -266 578 -266 489.5 -335 c 128,-1,19
 401 -404 401 -404 252 -404 c 0,20,21
 217 -404 217 -404 123 -392 c 1,0,-1
474 1163 m 1,22,-1
 634 1524 l 1,23,-1
 926 1524 l 1,24,-1
 632 1163 l 1,25,-1
 474 1163 l 1,22,-1
EndSplineSet
EndChar

StartChar: ydieresis
Encoding: 255 255 187
Width: 1103
GlyphClass: 2
Flags: W
LayerCount: 2
Fore
SplineSet
123 -392 m 1,0,-1
 111 -201 l 1,1,2
 171 -209 171 -209 223 -209 c 0,3,4
 298 -209 298 -209 336.5 -179.5 c 128,-1,5
 375 -150 375 -150 406 -68 c 0,6,7
 410 -58 410 -58 424.5 -26 c 128,-1,8
 439 6 439 6 446 28 c 1,9,-1
 60 1016 l 1,10,-1
 325 1016 l 1,11,-1
 566 297 l 1,12,-1
 780 1016 l 1,13,-1
 1046 1016 l 1,14,15
 1043 1006 1043 1006 843.5 457 c 128,-1,16
 644 -92 644 -92 641 -99 c 0,17,18
 578 -266 578 -266 489.5 -335 c 128,-1,19
 401 -404 401 -404 252 -404 c 0,20,21
 217 -404 217 -404 123 -392 c 1,0,-1
268 1163 m 1,22,-1
 268 1408 l 1,23,-1
 462 1408 l 1,24,-1
 462 1163 l 1,25,-1
 268 1163 l 1,22,-1
644 1163 m 1,26,-1
 644 1408 l 1,27,-1
 838 1408 l 1,28,-1
 838 1163 l 1,29,-1
 644 1163 l 1,26,-1
EndSplineSet
EndChar

StartChar: Amacron
Encoding: 256 256 188
Width: 1427
GlyphClass: 2
Flags: W
LayerCount: 2
Fore
SplineSet
556 555 m 1,0,-1
 868 555 l 1,1,-1
 718 1093 l 1,2,-1
 556 555 l 1,0,-1
90 0 m 1,3,-1
 545 1336 l 1,4,-1
 883 1336 l 1,5,-1
 1337 0 l 1,6,-1
 1051 0 l 1,7,-1
 924 365 l 1,8,-1
 498 365 l 1,9,-1
 378 0 l 1,10,-1
 90 0 l 1,3,-1
389 1479 m 1,11,-1
 389 1638 l 1,12,-1
 1038 1638 l 1,13,-1
 1038 1479 l 1,14,-1
 389 1479 l 1,11,-1
EndSplineSet
EndChar

StartChar: amacron
Encoding: 257 257 189
Width: 1137
GlyphClass: 2
Flags: W
LayerCount: 2
Fore
SplineSet
464 -18 m 0,0,1
 324 -18 324 -18 234.5 59 c 128,-1,2
 145 136 145 136 145 284 c 0,3,4
 145 445 145 445 248.5 522.5 c 128,-1,5
 352 600 352 600 553 621 c 1,6,7
 697 638 697 638 723 641 c 1,8,-1
 723 689 l 2,9,10
 723 776 723 776 686.5 814 c 128,-1,11
 650 852 650 852 572 852 c 0,12,13
 509 852 509 852 415 830 c 128,-1,14
 321 808 321 808 243 776 c 1,15,16
 241 780 241 780 227 823 c 128,-1,17
 213 866 213 866 199.5 906.5 c 128,-1,18
 186 947 186 947 183 953 c 1,19,20
 392 1041 392 1041 598 1041 c 0,21,22
 797 1041 797 1041 887.5 950.5 c 128,-1,23
 978 860 978 860 978 660 c 2,24,-1
 978 0 l 1,25,-1
 788 0 l 1,26,27
 788 2 788 2 773 67 c 128,-1,28
 758 132 758 132 753 153 c 1,29,30
 699 73 699 73 631 27.5 c 128,-1,31
 563 -18 563 -18 464 -18 c 0,0,1
524 162 m 0,32,33
 596 162 596 162 650.5 202 c 128,-1,34
 705 242 705 242 722 281 c 1,35,-1
 722 482 l 1,36,-1
 643 473 l 1,37,38
 514 462 514 462 457.5 418.5 c 128,-1,39
 401 375 401 375 401 287 c 0,40,41
 401 162 401 162 524 162 c 0,32,33
237 1163 m 1,42,-1
 237 1322 l 1,43,-1
 886 1322 l 1,44,-1
 886 1163 l 1,45,-1
 237 1163 l 1,42,-1
EndSplineSet
EndChar

StartChar: Abreve
Encoding: 258 258 190
Width: 1427
GlyphClass: 2
Flags: W
LayerCount: 2
Fore
SplineSet
556 555 m 1,0,-1
 868 555 l 1,1,-1
 718 1093 l 1,2,-1
 556 555 l 1,0,-1
90 0 m 1,3,-1
 545 1336 l 1,4,-1
 883 1336 l 1,5,-1
 1337 0 l 1,6,-1
 1051 0 l 1,7,-1
 924 365 l 1,8,-1
 498 365 l 1,9,-1
 378 0 l 1,10,-1
 90 0 l 1,3,-1
982 1722 m 1,11,12
 982 1602 982 1602 907.5 1540.5 c 128,-1,13
 833 1479 833 1479 712 1479 c 0,14,15
 592 1479 592 1479 518 1541 c 128,-1,16
 444 1603 444 1603 444 1722 c 1,17,-1
 612 1722 l 1,18,19
 612 1676 612 1676 634.5 1656.5 c 128,-1,20
 657 1637 657 1637 712 1637 c 128,-1,21
 767 1637 767 1637 790.5 1656.5 c 128,-1,22
 814 1676 814 1676 814 1722 c 1,23,-1
 982 1722 l 1,11,12
EndSplineSet
EndChar

StartChar: abreve
Encoding: 259 259 191
Width: 1137
GlyphClass: 2
Flags: W
LayerCount: 2
Fore
SplineSet
464 -18 m 0,0,1
 324 -18 324 -18 234.5 59 c 128,-1,2
 145 136 145 136 145 284 c 0,3,4
 145 445 145 445 248.5 522.5 c 128,-1,5
 352 600 352 600 553 621 c 1,6,7
 697 638 697 638 723 641 c 1,8,-1
 723 689 l 2,9,10
 723 776 723 776 686.5 814 c 128,-1,11
 650 852 650 852 572 852 c 0,12,13
 509 852 509 852 415 830 c 128,-1,14
 321 808 321 808 243 776 c 1,15,16
 241 780 241 780 227 823 c 128,-1,17
 213 866 213 866 199.5 906.5 c 128,-1,18
 186 947 186 947 183 953 c 1,19,20
 392 1041 392 1041 598 1041 c 0,21,22
 797 1041 797 1041 887.5 950.5 c 128,-1,23
 978 860 978 860 978 660 c 2,24,-1
 978 0 l 1,25,-1
 788 0 l 1,26,27
 788 2 788 2 773 67 c 128,-1,28
 758 132 758 132 753 153 c 1,29,30
 699 73 699 73 631 27.5 c 128,-1,31
 563 -18 563 -18 464 -18 c 0,0,1
524 162 m 0,32,33
 596 162 596 162 650.5 202 c 128,-1,34
 705 242 705 242 722 281 c 1,35,-1
 722 482 l 1,36,-1
 643 473 l 1,37,38
 514 462 514 462 457.5 418.5 c 128,-1,39
 401 375 401 375 401 287 c 0,40,41
 401 162 401 162 524 162 c 0,32,33
830 1406 m 1,42,43
 830 1286 830 1286 755.5 1224.5 c 128,-1,44
 681 1163 681 1163 560 1163 c 0,45,46
 440 1163 440 1163 366 1225 c 128,-1,47
 292 1287 292 1287 292 1406 c 1,48,-1
 460 1406 l 1,49,50
 460 1360 460 1360 482.5 1340.5 c 128,-1,51
 505 1321 505 1321 560 1321 c 128,-1,52
 615 1321 615 1321 638.5 1340.5 c 128,-1,53
 662 1360 662 1360 662 1406 c 1,54,-1
 830 1406 l 1,42,43
EndSplineSet
EndChar

StartChar: Aogonek
Encoding: 260 260 192
Width: 1427
GlyphClass: 2
Flags: W
LayerCount: 2
Fore
SplineSet
556 555 m 1,0,-1
 868 555 l 1,1,-1
 718 1093 l 1,2,-1
 556 555 l 1,0,-1
90 0 m 1,3,-1
 545 1336 l 1,4,-1
 883 1336 l 1,5,-1
 1337 0 l 1,6,-1
 1051 0 l 1,7,-1
 924 365 l 1,8,-1
 498 365 l 1,9,-1
 378 0 l 1,10,-1
 90 0 l 1,3,-1
734 -393 m 0,11,12
 651 -393 651 -393 595.5 -349.5 c 128,-1,13
 540 -306 540 -306 540 -225 c 0,14,15
 540 -86 540 -86 714 14 c 1,16,-1
 820 -2 l 1,17,18
 714 -84 714 -84 714 -178 c 0,19,20
 714 -205 714 -205 732.5 -226 c 128,-1,21
 751 -247 751 -247 778 -247 c 0,22,23
 828 -247 828 -247 902 -216 c 1,24,-1
 910 -357 l 1,25,26
 816 -393 816 -393 734 -393 c 0,11,12
EndSplineSet
EndChar

StartChar: aogonek
Encoding: 261 261 193
Width: 1137
GlyphClass: 2
Flags: W
LayerCount: 2
Fore
SplineSet
464 -18 m 0,0,1
 324 -18 324 -18 234.5 59 c 128,-1,2
 145 136 145 136 145 284 c 0,3,4
 145 445 145 445 248.5 522.5 c 128,-1,5
 352 600 352 600 553 621 c 1,6,7
 697 638 697 638 723 641 c 1,8,-1
 723 689 l 2,9,10
 723 776 723 776 686.5 814 c 128,-1,11
 650 852 650 852 572 852 c 0,12,13
 509 852 509 852 415 830 c 128,-1,14
 321 808 321 808 243 776 c 1,15,16
 241 780 241 780 227 823 c 128,-1,17
 213 866 213 866 199.5 906.5 c 128,-1,18
 186 947 186 947 183 953 c 1,19,20
 392 1041 392 1041 598 1041 c 0,21,22
 797 1041 797 1041 887.5 950.5 c 128,-1,23
 978 860 978 860 978 660 c 2,24,-1
 978 0 l 1,25,-1
 788 0 l 1,26,27
 788 2 788 2 773 67 c 128,-1,28
 758 132 758 132 753 153 c 1,29,30
 699 73 699 73 631 27.5 c 128,-1,31
 563 -18 563 -18 464 -18 c 0,0,1
524 162 m 0,32,33
 596 162 596 162 650.5 202 c 128,-1,34
 705 242 705 242 722 281 c 1,35,-1
 722 482 l 1,36,-1
 643 473 l 1,37,38
 514 462 514 462 457.5 418.5 c 128,-1,39
 401 375 401 375 401 287 c 0,40,41
 401 162 401 162 524 162 c 0,32,33
809 -411 m 0,42,43
 726 -411 726 -411 670 -367.5 c 128,-1,44
 614 -324 614 -324 614 -243 c 0,45,46
 614 -104 614 -104 788 -4 c 1,47,-1
 895 -20 l 1,48,49
 789 -102 789 -102 789 -196 c 0,50,51
 789 -223 789 -223 807.5 -244 c 128,-1,52
 826 -265 826 -265 853 -265 c 0,53,54
 902 -265 902 -265 976 -234 c 1,55,-1
 984 -375 l 1,56,57
 890 -411 890 -411 809 -411 c 0,42,43
EndSplineSet
EndChar

StartChar: Cacute
Encoding: 262 262 194
Width: 1253
GlyphClass: 2
Flags: W
LayerCount: 2
Fore
SplineSet
788 -18 m 0,0,1
 645 -18 645 -18 524.5 29 c 128,-1,2
 404 76 404 76 317 163.5 c 128,-1,3
 230 251 230 251 181 383 c 128,-1,4
 132 515 132 515 132 677 c 0,5,6
 132 838 132 838 180.5 967 c 128,-1,7
 229 1096 229 1096 315 1181 c 128,-1,8
 401 1266 401 1266 519.5 1311.5 c 128,-1,9
 638 1357 638 1357 779 1357 c 0,10,11
 986 1357 986 1357 1175 1247 c 1,12,-1
 1092 1033 l 1,13,14
 915 1134 915 1134 765 1123 c 0,15,16
 700 1118 700 1118 640 1087 c 128,-1,17
 580 1056 580 1056 530 1002 c 128,-1,18
 480 948 480 948 450 862 c 128,-1,19
 420 776 420 776 420 671 c 0,20,21
 420 456 420 456 522 337 c 128,-1,22
 624 218 624 218 803 213 c 0,23,24
 946 209 946 209 1094 293 c 1,25,-1
 1149 75 l 1,26,27
 1050 25 1050 25 970.5 3.5 c 128,-1,28
 891 -18 891 -18 788 -18 c 0,0,1
575 1479 m 1,29,-1
 735 1840 l 1,30,-1
 1027 1840 l 1,31,-1
 732 1479 l 1,32,-1
 575 1479 l 1,29,-1
EndSplineSet
EndChar

StartChar: cacute
Encoding: 263 263 195
Width: 993
GlyphClass: 2
Flags: W
LayerCount: 2
Fore
SplineSet
601 -18 m 0,0,1
 377 -18 377 -18 248 121 c 128,-1,2
 119 260 119 260 119 516 c 0,3,4
 119 764 119 764 254 902.5 c 128,-1,5
 389 1041 389 1041 604 1041 c 0,6,7
 774 1041 774 1041 905 959 c 1,8,-1
 845 781 l 1,9,10
 837 784 837 784 815 796.5 c 128,-1,11
 793 809 793 809 775 817 c 128,-1,12
 757 825 757 825 719 832.5 c 128,-1,13
 681 840 681 840 634 840 c 1,14,15
 518 834 518 834 446.5 752.5 c 128,-1,16
 375 671 375 671 375 513 c 0,17,18
 375 354 375 354 443.5 271.5 c 128,-1,19
 512 189 512 189 627 183 c 0,20,21
 738 177 738 177 862 247 c 1,22,-1
 895 64 l 1,23,24
 891 62 891 62 870 48.5 c 128,-1,25
 849 35 849 35 829.5 26 c 128,-1,26
 810 17 810 17 777.5 5.5 c 128,-1,27
 745 -6 745 -6 700 -12 c 128,-1,28
 655 -18 655 -18 601 -18 c 0,0,1
434 1163 m 1,29,-1
 594 1524 l 1,30,-1
 886 1524 l 1,31,-1
 590 1163 l 1,32,-1
 434 1163 l 1,29,-1
EndSplineSet
EndChar

StartChar: Ccircumflex
Encoding: 264 264 196
Width: 1253
GlyphClass: 2
Flags: W
LayerCount: 2
Fore
SplineSet
788 -18 m 0,0,1
 645 -18 645 -18 524.5 29 c 128,-1,2
 404 76 404 76 317 163.5 c 128,-1,3
 230 251 230 251 181 383 c 128,-1,4
 132 515 132 515 132 677 c 0,5,6
 132 838 132 838 180.5 967 c 128,-1,7
 229 1096 229 1096 315 1181 c 128,-1,8
 401 1266 401 1266 519.5 1311.5 c 128,-1,9
 638 1357 638 1357 779 1357 c 0,10,11
 986 1357 986 1357 1175 1247 c 1,12,-1
 1092 1033 l 1,13,14
 915 1134 915 1134 765 1123 c 0,15,16
 700 1118 700 1118 640 1087 c 128,-1,17
 580 1056 580 1056 530 1002 c 128,-1,18
 480 948 480 948 450 862 c 128,-1,19
 420 776 420 776 420 671 c 0,20,21
 420 456 420 456 522 337 c 128,-1,22
 624 218 624 218 803 213 c 0,23,24
 946 209 946 209 1094 293 c 1,25,-1
 1149 75 l 1,26,27
 1050 25 1050 25 970.5 3.5 c 128,-1,28
 891 -18 891 -18 788 -18 c 0,0,1
320 1479 m 1,29,-1
 555 1847 l 1,30,-1
 751 1847 l 1,31,-1
 987 1479 l 1,32,-1
 801 1479 l 1,33,-1
 643 1673 l 1,34,-1
 501 1479 l 1,35,-1
 320 1479 l 1,29,-1
EndSplineSet
EndChar

StartChar: ccircumflex
Encoding: 265 265 197
Width: 993
GlyphClass: 2
Flags: W
LayerCount: 2
Fore
SplineSet
601 -18 m 0,0,1
 377 -18 377 -18 248 121 c 128,-1,2
 119 260 119 260 119 516 c 0,3,4
 119 764 119 764 254 902.5 c 128,-1,5
 389 1041 389 1041 604 1041 c 0,6,7
 774 1041 774 1041 905 959 c 1,8,-1
 845 781 l 1,9,10
 837 784 837 784 815 796.5 c 128,-1,11
 793 809 793 809 775 817 c 128,-1,12
 757 825 757 825 719 832.5 c 128,-1,13
 681 840 681 840 634 840 c 1,14,15
 518 834 518 834 446.5 752.5 c 128,-1,16
 375 671 375 671 375 513 c 0,17,18
 375 354 375 354 443.5 271.5 c 128,-1,19
 512 189 512 189 627 183 c 0,20,21
 738 177 738 177 862 247 c 1,22,-1
 895 64 l 1,23,24
 891 62 891 62 870 48.5 c 128,-1,25
 849 35 849 35 829.5 26 c 128,-1,26
 810 17 810 17 777.5 5.5 c 128,-1,27
 745 -6 745 -6 700 -12 c 128,-1,28
 655 -18 655 -18 601 -18 c 0,0,1
178 1163 m 1,29,-1
 414 1531 l 1,30,-1
 610 1531 l 1,31,-1
 846 1163 l 1,32,-1
 660 1163 l 1,33,-1
 502 1357 l 1,34,-1
 360 1163 l 1,35,-1
 178 1163 l 1,29,-1
EndSplineSet
EndChar

StartChar: Cdotaccent
Encoding: 266 266 198
Width: 1253
GlyphClass: 2
Flags: W
LayerCount: 2
Fore
SplineSet
788 -18 m 0,0,1
 645 -18 645 -18 524.5 29 c 128,-1,2
 404 76 404 76 317 163.5 c 128,-1,3
 230 251 230 251 181 383 c 128,-1,4
 132 515 132 515 132 677 c 0,5,6
 132 838 132 838 180.5 967 c 128,-1,7
 229 1096 229 1096 315 1181 c 128,-1,8
 401 1266 401 1266 519.5 1311.5 c 128,-1,9
 638 1357 638 1357 779 1357 c 0,10,11
 986 1357 986 1357 1175 1247 c 1,12,-1
 1092 1033 l 1,13,14
 915 1134 915 1134 765 1123 c 0,15,16
 700 1118 700 1118 640 1087 c 128,-1,17
 580 1056 580 1056 530 1002 c 128,-1,18
 480 948 480 948 450 862 c 128,-1,19
 420 776 420 776 420 671 c 0,20,21
 420 456 420 456 522 337 c 128,-1,22
 624 218 624 218 803 213 c 0,23,24
 946 209 946 209 1094 293 c 1,25,-1
 1149 75 l 1,26,27
 1050 25 1050 25 970.5 3.5 c 128,-1,28
 891 -18 891 -18 788 -18 c 0,0,1
554 1479 m 1,29,-1
 554 1691 l 1,30,-1
 752 1691 l 1,31,-1
 752 1479 l 1,32,-1
 554 1479 l 1,29,-1
EndSplineSet
EndChar

StartChar: cdotaccent
Encoding: 267 267 199
Width: 993
GlyphClass: 2
Flags: W
LayerCount: 2
Fore
SplineSet
601 -18 m 0,0,1
 377 -18 377 -18 248 121 c 128,-1,2
 119 260 119 260 119 516 c 0,3,4
 119 764 119 764 254 902.5 c 128,-1,5
 389 1041 389 1041 604 1041 c 0,6,7
 774 1041 774 1041 905 959 c 1,8,-1
 845 781 l 1,9,10
 837 784 837 784 815 796.5 c 128,-1,11
 793 809 793 809 775 817 c 128,-1,12
 757 825 757 825 719 832.5 c 128,-1,13
 681 840 681 840 634 840 c 1,14,15
 518 834 518 834 446.5 752.5 c 128,-1,16
 375 671 375 671 375 513 c 0,17,18
 375 354 375 354 443.5 271.5 c 128,-1,19
 512 189 512 189 627 183 c 0,20,21
 738 177 738 177 862 247 c 1,22,-1
 895 64 l 1,23,24
 891 62 891 62 870 48.5 c 128,-1,25
 849 35 849 35 829.5 26 c 128,-1,26
 810 17 810 17 777.5 5.5 c 128,-1,27
 745 -6 745 -6 700 -12 c 128,-1,28
 655 -18 655 -18 601 -18 c 0,0,1
413 1163 m 1,29,-1
 413 1375 l 1,30,-1
 611 1375 l 1,31,-1
 611 1163 l 1,32,-1
 413 1163 l 1,29,-1
EndSplineSet
EndChar

StartChar: Ccaron
Encoding: 268 268 200
Width: 1253
GlyphClass: 2
Flags: W
LayerCount: 2
Fore
SplineSet
788 -18 m 0,0,1
 645 -18 645 -18 524.5 29 c 128,-1,2
 404 76 404 76 317 163.5 c 128,-1,3
 230 251 230 251 181 383 c 128,-1,4
 132 515 132 515 132 677 c 0,5,6
 132 838 132 838 180.5 967 c 128,-1,7
 229 1096 229 1096 315 1181 c 128,-1,8
 401 1266 401 1266 519.5 1311.5 c 128,-1,9
 638 1357 638 1357 779 1357 c 0,10,11
 986 1357 986 1357 1175 1247 c 1,12,-1
 1092 1033 l 1,13,14
 915 1134 915 1134 765 1123 c 0,15,16
 700 1118 700 1118 640 1087 c 128,-1,17
 580 1056 580 1056 530 1002 c 128,-1,18
 480 948 480 948 450 862 c 128,-1,19
 420 776 420 776 420 671 c 0,20,21
 420 456 420 456 522 337 c 128,-1,22
 624 218 624 218 803 213 c 0,23,24
 946 209 946 209 1094 293 c 1,25,-1
 1149 75 l 1,26,27
 1050 25 1050 25 970.5 3.5 c 128,-1,28
 891 -18 891 -18 788 -18 c 0,0,1
558 1479 m 1,29,-1
 310 1816 l 1,30,-1
 512 1816 l 1,31,-1
 642 1645 l 1,32,-1
 792 1816 l 1,33,-1
 996 1816 l 1,34,-1
 748 1479 l 1,35,-1
 558 1479 l 1,29,-1
EndSplineSet
EndChar

StartChar: ccaron
Encoding: 269 269 201
Width: 993
GlyphClass: 2
Flags: W
LayerCount: 2
Fore
SplineSet
601 -18 m 0,0,1
 377 -18 377 -18 248 121 c 128,-1,2
 119 260 119 260 119 516 c 0,3,4
 119 764 119 764 254 902.5 c 128,-1,5
 389 1041 389 1041 604 1041 c 0,6,7
 774 1041 774 1041 905 959 c 1,8,-1
 845 781 l 1,9,10
 837 784 837 784 815 796.5 c 128,-1,11
 793 809 793 809 775 817 c 128,-1,12
 757 825 757 825 719 832.5 c 128,-1,13
 681 840 681 840 634 840 c 1,14,15
 518 834 518 834 446.5 752.5 c 128,-1,16
 375 671 375 671 375 513 c 0,17,18
 375 354 375 354 443.5 271.5 c 128,-1,19
 512 189 512 189 627 183 c 0,20,21
 738 177 738 177 862 247 c 1,22,-1
 895 64 l 1,23,24
 891 62 891 62 870 48.5 c 128,-1,25
 849 35 849 35 829.5 26 c 128,-1,26
 810 17 810 17 777.5 5.5 c 128,-1,27
 745 -6 745 -6 700 -12 c 128,-1,28
 655 -18 655 -18 601 -18 c 0,0,1
417 1163 m 1,29,-1
 169 1500 l 1,30,-1
 370 1500 l 1,31,-1
 500 1329 l 1,32,-1
 650 1500 l 1,33,-1
 855 1500 l 1,34,-1
 607 1163 l 1,35,-1
 417 1163 l 1,29,-1
EndSplineSet
EndChar

StartChar: Dcaron
Encoding: 270 270 202
Width: 1486
GlyphClass: 2
Flags: W
LayerCount: 2
Fore
SplineSet
490 1126 m 1,0,-1
 490 216 l 1,1,-1
 637 216 l 2,2,3
 852 216 852 216 959.5 332 c 128,-1,4
 1067 448 1067 448 1067 671 c 0,5,6
 1067 909 1067 909 956 1017.5 c 128,-1,7
 845 1126 845 1126 611 1126 c 2,8,-1
 490 1126 l 1,0,-1
202 0 m 1,9,-1
 202 1336 l 1,10,-1
 600 1336 l 2,11,12
 771 1336 771 1336 907.5 1296 c 128,-1,13
 1044 1256 1044 1256 1144.5 1176.5 c 128,-1,14
 1245 1097 1245 1097 1299.5 970 c 128,-1,15
 1354 843 1354 843 1354 676 c 0,16,17
 1354 353 1354 353 1157.5 176.5 c 128,-1,18
 961 0 961 0 623 0 c 2,19,-1
 202 0 l 1,9,-1
683 1479 m 1,20,-1
 435 1816 l 1,21,-1
 636 1816 l 1,22,-1
 766 1645 l 1,23,-1
 916 1816 l 1,24,-1
 1121 1816 l 1,25,-1
 873 1479 l 1,26,-1
 683 1479 l 1,20,-1
EndSplineSet
EndChar

StartChar: dcaron
Encoding: 271 271 203
Width: 1218
GlyphClass: 2
Flags: W
LayerCount: 2
Fore
SplineSet
534 -17 m 0,0,1
 341 -17 341 -17 229.5 129.5 c 128,-1,2
 118 276 118 276 118 517 c 0,3,4
 118 753 118 753 229 897 c 128,-1,5
 340 1041 340 1041 534 1041 c 0,6,7
 719 1041 719 1041 811 920 c 1,8,9
 803 1006 803 1006 803 1052 c 2,10,-1
 803 1376 l 1,11,-1
 1059 1393 l 1,12,-1
 1059 0 l 1,13,-1
 839 0 l 1,14,-1
 815 117 l 1,15,16
 729 -17 729 -17 534 -17 c 0,0,1
590 179 m 0,17,18
 698 179 698 179 755.5 254.5 c 128,-1,19
 813 330 813 330 814 497 c 1,20,21
 814 680 814 680 757 761.5 c 128,-1,22
 700 843 700 843 588 843 c 0,23,24
 490 843 490 843 432 760.5 c 128,-1,25
 374 678 374 678 374 512 c 0,26,27
 374 347 374 347 432 263 c 128,-1,28
 490 179 490 179 590 179 c 0,17,18
1248 913 m 1,29,-1
 1242 1393 l 1,30,-1
 1444 1393 l 1,31,-1
 1393 913 l 1,32,-1
 1248 913 l 1,29,-1
EndSplineSet
EndChar

StartChar: Emacron
Encoding: 274 274 204
Width: 1164
GlyphClass: 2
Flags: W
LayerCount: 2
Fore
SplineSet
490 1126 m 1,0,-1
 490 805 l 1,1,-1
 994 805 l 1,2,-1
 994 595 l 1,3,-1
 490 595 l 1,4,-1
 490 216 l 1,5,-1
 1042 216 l 1,6,-1
 1025 0 l 1,7,-1
 202 0 l 1,8,-1
 202 1336 l 1,9,-1
 1032 1336 l 1,10,-1
 1021 1126 l 1,11,-1
 490 1126 l 1,0,-1
298 1479 m 1,12,-1
 298 1638 l 1,13,-1
 946 1638 l 1,14,-1
 946 1479 l 1,15,-1
 298 1479 l 1,12,-1
EndSplineSet
EndChar

StartChar: emacron
Encoding: 275 275 205
Width: 1119
GlyphClass: 2
Flags: W
LayerCount: 2
Fore
SplineSet
384 613 m 1,0,-1
 778 613 l 1,1,2
 775 724 775 724 724.5 789 c 128,-1,3
 674 854 674 854 587 854 c 0,4,5
 507 854 507 854 452.5 792 c 128,-1,6
 398 730 398 730 384 613 c 1,0,-1
623 -18 m 0,7,8
 387 -18 387 -18 253 123.5 c 128,-1,9
 119 265 119 265 119 512 c 0,10,11
 119 752 119 752 245 896 c 128,-1,12
 371 1040 371 1040 586 1041 c 0,13,14
 791 1041 791 1041 904.5 908 c 128,-1,15
 1018 775 1018 775 1018 558 c 1,16,-1
 1011 448 l 1,17,-1
 378 448 l 1,18,19
 398 174 398 174 647 174 c 0,20,21
 677 174 677 174 705.5 176.5 c 128,-1,22
 734 179 734 179 756 182 c 128,-1,23
 778 185 778 185 802 191 c 128,-1,24
 826 197 826 197 840.5 201 c 128,-1,25
 855 205 855 205 875 213 c 128,-1,26
 895 221 895 221 902 224 c 128,-1,27
 909 227 909 227 926 235 c 128,-1,28
 943 243 943 243 944 243 c 2,29,-1
 979 63 l 1,30,31
 909 18 909 18 826 0 c 128,-1,32
 743 -18 743 -18 623 -18 c 0,7,8
244 1163 m 1,33,-1
 244 1322 l 1,34,-1
 893 1322 l 1,35,-1
 893 1163 l 1,36,-1
 244 1163 l 1,33,-1
EndSplineSet
EndChar

StartChar: Ebreve
Encoding: 276 276 206
Width: 1164
GlyphClass: 2
Flags: W
LayerCount: 2
Fore
SplineSet
490 1126 m 1,0,-1
 490 805 l 1,1,-1
 994 805 l 1,2,-1
 994 595 l 1,3,-1
 490 595 l 1,4,-1
 490 216 l 1,5,-1
 1042 216 l 1,6,-1
 1025 0 l 1,7,-1
 202 0 l 1,8,-1
 202 1336 l 1,9,-1
 1032 1336 l 1,10,-1
 1021 1126 l 1,11,-1
 490 1126 l 1,0,-1
891 1722 m 1,12,13
 891 1602 891 1602 816.5 1540.5 c 128,-1,14
 742 1479 742 1479 621 1479 c 0,15,16
 501 1479 501 1479 427 1541 c 128,-1,17
 353 1603 353 1603 353 1722 c 1,18,-1
 521 1722 l 1,19,20
 521 1676 521 1676 543.5 1656.5 c 128,-1,21
 566 1637 566 1637 621 1637 c 128,-1,22
 676 1637 676 1637 699 1656.5 c 128,-1,23
 722 1676 722 1676 722 1722 c 1,24,-1
 891 1722 l 1,12,13
EndSplineSet
EndChar

StartChar: ebreve
Encoding: 277 277 207
Width: 1119
GlyphClass: 2
Flags: W
LayerCount: 2
Fore
SplineSet
384 613 m 1,0,-1
 778 613 l 1,1,2
 775 724 775 724 724.5 789 c 128,-1,3
 674 854 674 854 587 854 c 0,4,5
 507 854 507 854 452.5 792 c 128,-1,6
 398 730 398 730 384 613 c 1,0,-1
623 -18 m 0,7,8
 387 -18 387 -18 253 123.5 c 128,-1,9
 119 265 119 265 119 512 c 0,10,11
 119 752 119 752 245 896 c 128,-1,12
 371 1040 371 1040 586 1041 c 0,13,14
 791 1041 791 1041 904.5 908 c 128,-1,15
 1018 775 1018 775 1018 558 c 1,16,-1
 1011 448 l 1,17,-1
 378 448 l 1,18,19
 398 174 398 174 647 174 c 0,20,21
 677 174 677 174 705.5 176.5 c 128,-1,22
 734 179 734 179 756 182 c 128,-1,23
 778 185 778 185 802 191 c 128,-1,24
 826 197 826 197 840.5 201 c 128,-1,25
 855 205 855 205 875 213 c 128,-1,26
 895 221 895 221 902 224 c 128,-1,27
 909 227 909 227 926 235 c 128,-1,28
 943 243 943 243 944 243 c 2,29,-1
 979 63 l 1,30,31
 909 18 909 18 826 0 c 128,-1,32
 743 -18 743 -18 623 -18 c 0,7,8
838 1406 m 1,33,34
 838 1286 838 1286 763.5 1224.5 c 128,-1,35
 689 1163 689 1163 568 1163 c 0,36,37
 448 1163 448 1163 374 1225 c 128,-1,38
 300 1287 300 1287 300 1406 c 1,39,-1
 468 1406 l 1,40,41
 468 1360 468 1360 490.5 1340.5 c 128,-1,42
 513 1321 513 1321 568 1321 c 128,-1,43
 623 1321 623 1321 645.5 1340.5 c 128,-1,44
 668 1360 668 1360 668 1406 c 1,45,-1
 838 1406 l 1,33,34
EndSplineSet
EndChar

StartChar: Edotaccent
Encoding: 278 278 208
Width: 1164
GlyphClass: 2
Flags: W
LayerCount: 2
Fore
SplineSet
490 1126 m 1,0,-1
 490 805 l 1,1,-1
 994 805 l 1,2,-1
 994 595 l 1,3,-1
 490 595 l 1,4,-1
 490 216 l 1,5,-1
 1042 216 l 1,6,-1
 1025 0 l 1,7,-1
 202 0 l 1,8,-1
 202 1336 l 1,9,-1
 1032 1336 l 1,10,-1
 1021 1126 l 1,11,-1
 490 1126 l 1,0,-1
523 1479 m 1,12,-1
 523 1691 l 1,13,-1
 721 1691 l 1,14,-1
 721 1479 l 1,15,-1
 523 1479 l 1,12,-1
EndSplineSet
EndChar

StartChar: edotaccent
Encoding: 279 279 209
Width: 1119
GlyphClass: 2
Flags: W
LayerCount: 2
Fore
SplineSet
384 613 m 1,0,-1
 778 613 l 1,1,2
 775 724 775 724 724.5 789 c 128,-1,3
 674 854 674 854 587 854 c 0,4,5
 507 854 507 854 452.5 792 c 128,-1,6
 398 730 398 730 384 613 c 1,0,-1
623 -18 m 0,7,8
 387 -18 387 -18 253 123.5 c 128,-1,9
 119 265 119 265 119 512 c 0,10,11
 119 752 119 752 245 896 c 128,-1,12
 371 1040 371 1040 586 1041 c 0,13,14
 791 1041 791 1041 904.5 908 c 128,-1,15
 1018 775 1018 775 1018 558 c 1,16,-1
 1011 448 l 1,17,-1
 378 448 l 1,18,19
 398 174 398 174 647 174 c 0,20,21
 677 174 677 174 705.5 176.5 c 128,-1,22
 734 179 734 179 756 182 c 128,-1,23
 778 185 778 185 802 191 c 128,-1,24
 826 197 826 197 840.5 201 c 128,-1,25
 855 205 855 205 875 213 c 128,-1,26
 895 221 895 221 902 224 c 128,-1,27
 909 227 909 227 926 235 c 128,-1,28
 943 243 943 243 944 243 c 2,29,-1
 979 63 l 1,30,31
 909 18 909 18 826 0 c 128,-1,32
 743 -18 743 -18 623 -18 c 0,7,8
470 1163 m 1,33,-1
 470 1375 l 1,34,-1
 668 1375 l 1,35,-1
 668 1163 l 1,36,-1
 470 1163 l 1,33,-1
EndSplineSet
EndChar

StartChar: Eogonek
Encoding: 280 280 210
Width: 1164
GlyphClass: 2
Flags: W
LayerCount: 2
Fore
SplineSet
490 1126 m 1,0,-1
 490 805 l 1,1,-1
 994 805 l 1,2,-1
 994 595 l 1,3,-1
 490 595 l 1,4,-1
 490 216 l 1,5,-1
 1042 216 l 1,6,-1
 1025 0 l 1,7,-1
 713 0 l 1,8,-1
 729 -2 l 1,9,10
 623 -84 623 -84 623 -178 c 0,11,12
 623 -205 623 -205 641.5 -226 c 128,-1,13
 660 -247 660 -247 687 -247 c 0,14,15
 736 -247 736 -247 810 -216 c 1,16,-1
 818 -357 l 1,17,18
 724 -393 724 -393 643 -393 c 0,19,20
 560 -393 560 -393 504 -349.5 c 128,-1,21
 448 -306 448 -306 448 -225 c 0,22,23
 448 -96 448 -96 600 0 c 1,24,-1
 202 0 l 1,25,-1
 202 1336 l 1,26,-1
 1032 1336 l 1,27,-1
 1021 1126 l 1,28,-1
 490 1126 l 1,0,-1
EndSplineSet
EndChar

StartChar: eogonek
Encoding: 281 281 211
Width: 1119
GlyphClass: 2
Flags: W
LayerCount: 2
Fore
SplineSet
384 613 m 1,0,-1
 778 613 l 1,1,2
 775 724 775 724 724.5 789 c 128,-1,3
 674 854 674 854 587 854 c 0,4,5
 507 854 507 854 452.5 792 c 128,-1,6
 398 730 398 730 384 613 c 1,0,-1
536 -411 m 0,7,8
 453 -411 453 -411 397 -367.5 c 128,-1,9
 341 -324 341 -324 341 -243 c 0,10,11
 341 -107 341 -107 508 -8 c 1,12,13
 560 -17 560 -17 604 -18 c 1,14,-1
 622 -20 l 1,15,16
 516 -102 516 -102 516 -196 c 0,17,18
 516 -223 516 -223 534.5 -244 c 128,-1,19
 553 -265 553 -265 580 -265 c 0,20,21
 629 -265 629 -265 703 -234 c 1,22,-1
 711 -375 l 1,23,24
 617 -411 617 -411 536 -411 c 0,7,8
508 -8 m 0,25,26
 323 25 323 25 221 161 c 128,-1,27
 119 297 119 297 119 512 c 0,28,29
 119 752 119 752 245 896 c 128,-1,30
 371 1040 371 1040 586 1041 c 0,31,32
 791 1041 791 1041 904.5 908 c 128,-1,33
 1018 775 1018 775 1018 558 c 1,34,-1
 1011 448 l 1,35,-1
 378 448 l 1,36,37
 398 174 398 174 647 174 c 0,38,39
 677 174 677 174 705.5 176.5 c 128,-1,40
 734 179 734 179 756 182 c 128,-1,41
 778 185 778 185 802 191 c 128,-1,42
 826 197 826 197 840.5 201 c 128,-1,43
 855 205 855 205 875 213 c 128,-1,44
 895 221 895 221 902 224 c 128,-1,45
 909 227 909 227 926 235 c 128,-1,46
 943 243 943 243 944 243 c 2,47,-1
 979 63 l 1,48,49
 909 18 909 18 826 0 c 128,-1,50
 743 -18 743 -18 623 -18 c 2,51,-1
 604 -18 l 1,52,-1
 515 -4 l 1,53,54
 514 -5 514 -5 511.5 -6.5 c 128,-1,55
 509 -8 509 -8 508 -8 c 0,25,26
EndSplineSet
EndChar

StartChar: Ecaron
Encoding: 282 282 212
Width: 1164
GlyphClass: 2
Flags: W
LayerCount: 2
Fore
SplineSet
490 1126 m 1,0,-1
 490 805 l 1,1,-1
 994 805 l 1,2,-1
 994 595 l 1,3,-1
 490 595 l 1,4,-1
 490 216 l 1,5,-1
 1042 216 l 1,6,-1
 1025 0 l 1,7,-1
 202 0 l 1,8,-1
 202 1336 l 1,9,-1
 1032 1336 l 1,10,-1
 1021 1126 l 1,11,-1
 490 1126 l 1,0,-1
527 1479 m 1,12,-1
 279 1816 l 1,13,-1
 480 1816 l 1,14,-1
 610 1645 l 1,15,-1
 760 1816 l 1,16,-1
 965 1816 l 1,17,-1
 717 1479 l 1,18,-1
 527 1479 l 1,12,-1
EndSplineSet
EndChar

StartChar: ecaron
Encoding: 283 283 213
Width: 1119
GlyphClass: 2
Flags: W
LayerCount: 2
Fore
SplineSet
384 613 m 1,0,-1
 778 613 l 1,1,2
 775 724 775 724 724.5 789 c 128,-1,3
 674 854 674 854 587 854 c 0,4,5
 507 854 507 854 452.5 792 c 128,-1,6
 398 730 398 730 384 613 c 1,0,-1
623 -18 m 0,7,8
 387 -18 387 -18 253 123.5 c 128,-1,9
 119 265 119 265 119 512 c 0,10,11
 119 752 119 752 245 896 c 128,-1,12
 371 1040 371 1040 586 1041 c 0,13,14
 791 1041 791 1041 904.5 908 c 128,-1,15
 1018 775 1018 775 1018 558 c 1,16,-1
 1011 448 l 1,17,-1
 378 448 l 1,18,19
 398 174 398 174 647 174 c 0,20,21
 677 174 677 174 705.5 176.5 c 128,-1,22
 734 179 734 179 756 182 c 128,-1,23
 778 185 778 185 802 191 c 128,-1,24
 826 197 826 197 840.5 201 c 128,-1,25
 855 205 855 205 875 213 c 128,-1,26
 895 221 895 221 902 224 c 128,-1,27
 909 227 909 227 926 235 c 128,-1,28
 943 243 943 243 944 243 c 2,29,-1
 979 63 l 1,30,31
 909 18 909 18 826 0 c 128,-1,32
 743 -18 743 -18 623 -18 c 0,7,8
474 1163 m 1,33,-1
 226 1500 l 1,34,-1
 426 1500 l 1,35,-1
 556 1329 l 1,36,-1
 706 1500 l 1,37,-1
 912 1500 l 1,38,-1
 664 1163 l 1,39,-1
 474 1163 l 1,33,-1
EndSplineSet
EndChar

StartChar: Gcircumflex
Encoding: 284 284 214
Width: 1391
GlyphClass: 2
Flags: W
LayerCount: 2
Fore
SplineSet
778 -18 m 0,0,1
 479 -18 479 -18 305.5 167.5 c 128,-1,2
 132 353 132 353 132 672 c 0,3,4
 132 996 132 996 309.5 1176.5 c 128,-1,5
 487 1357 487 1357 804 1357 c 0,6,7
 1015 1357 1015 1357 1223 1253 c 1,8,-1
 1134 1042 l 1,9,10
 971 1122 971 1122 809 1129 c 1,11,12
 616 1136 616 1136 518 1015.5 c 128,-1,13
 420 895 420 895 420 670 c 0,14,15
 420 449 420 449 511 331 c 128,-1,16
 602 213 602 213 789 213 c 0,17,18
 906 213 906 213 994 245 c 1,19,-1
 994 519 l 1,20,-1
 725 519 l 1,21,-1
 725 727 l 1,22,-1
 1241 727 l 1,23,-1
 1241 82 l 1,24,25
 1124 31 1124 31 1017 6.5 c 128,-1,26
 910 -18 910 -18 778 -18 c 0,0,1
353 1479 m 1,27,-1
 588 1847 l 1,28,-1
 784 1847 l 1,29,-1
 1020 1479 l 1,30,-1
 834 1479 l 1,31,-1
 676 1673 l 1,32,-1
 534 1479 l 1,33,-1
 353 1479 l 1,27,-1
EndSplineSet
EndChar

StartChar: gcircumflex
Encoding: 285 285 215
Width: 1212
GlyphClass: 2
Flags: W
LayerCount: 2
Fore
SplineSet
598 195 m 0,0,1
 660 195 660 195 702.5 217 c 128,-1,2
 745 239 745 239 768 283 c 128,-1,3
 791 327 791 327 800.5 380.5 c 128,-1,4
 810 434 810 434 811 508 c 1,5,-1
 811 536 l 2,6,7
 811 688 811 688 763.5 765 c 128,-1,8
 716 842 716 842 611 843 c 1,9,10
 491 843 491 843 433 759 c 128,-1,11
 375 675 375 675 375 526 c 0,12,13
 375 382 375 382 433 288.5 c 128,-1,14
 491 195 491 195 598 195 c 0,0,1
525 -439 m 0,15,16
 372 -439 372 -439 273 -402 c 1,17,-1
 289 -207 l 1,18,19
 307 -209 307 -209 342.5 -217.5 c 128,-1,20
 378 -226 378 -226 416.5 -231.5 c 128,-1,21
 455 -237 455 -237 500 -237 c 0,22,23
 654 -237 654 -237 731 -145 c 128,-1,24
 808 -53 808 -53 808 87 c 0,25,26
 808 130 808 130 805 156 c 1,27,28
 775 87 775 87 705.5 43.5 c 128,-1,29
 636 0 636 0 537 0 c 0,30,31
 344 0 344 0 231.5 143 c 128,-1,32
 119 286 119 286 119 519 c 0,33,34
 119 762 119 762 241 901.5 c 128,-1,35
 363 1041 363 1041 546 1041 c 0,36,37
 648 1041 648 1041 711.5 1008 c 128,-1,38
 775 975 775 975 816 893 c 1,39,-1
 829 1017 l 1,40,-1
 1056 1017 l 1,41,-1
 1056 185 l 2,42,43
 1056 77 1056 77 1037.5 -15 c 128,-1,44
 1019 -107 1019 -107 978 -186 c 128,-1,45
 937 -265 937 -265 876 -320.5 c 128,-1,46
 815 -376 815 -376 725.5 -407.5 c 128,-1,47
 636 -439 636 -439 525 -439 c 0,15,16
254 1163 m 1,48,-1
 489 1531 l 1,49,-1
 685 1531 l 1,50,-1
 921 1163 l 1,51,-1
 735 1163 l 1,52,-1
 577 1357 l 1,53,-1
 435 1163 l 1,54,-1
 254 1163 l 1,48,-1
EndSplineSet
EndChar

StartChar: Gbreve
Encoding: 286 286 216
Width: 1391
GlyphClass: 2
Flags: W
LayerCount: 2
Fore
SplineSet
778 -18 m 0,0,1
 479 -18 479 -18 305.5 167.5 c 128,-1,2
 132 353 132 353 132 672 c 0,3,4
 132 996 132 996 309.5 1176.5 c 128,-1,5
 487 1357 487 1357 804 1357 c 0,6,7
 1015 1357 1015 1357 1223 1253 c 1,8,-1
 1134 1042 l 1,9,10
 971 1122 971 1122 809 1129 c 1,11,12
 616 1136 616 1136 518 1015.5 c 128,-1,13
 420 895 420 895 420 670 c 0,14,15
 420 449 420 449 511 331 c 128,-1,16
 602 213 602 213 789 213 c 0,17,18
 906 213 906 213 994 245 c 1,19,-1
 994 519 l 1,20,-1
 725 519 l 1,21,-1
 725 727 l 1,22,-1
 1241 727 l 1,23,-1
 1241 82 l 1,24,25
 1124 31 1124 31 1017 6.5 c 128,-1,26
 910 -18 910 -18 778 -18 c 0,0,1
956 1722 m 1,27,28
 956 1602 956 1602 881.5 1540.5 c 128,-1,29
 807 1479 807 1479 686 1479 c 0,30,31
 566 1479 566 1479 492 1541 c 128,-1,32
 418 1603 418 1603 418 1722 c 1,33,-1
 586 1722 l 1,34,35
 586 1676 586 1676 608.5 1656.5 c 128,-1,36
 631 1637 631 1637 686 1637 c 128,-1,37
 741 1637 741 1637 763.5 1656.5 c 128,-1,38
 786 1676 786 1676 786 1722 c 1,39,-1
 956 1722 l 1,27,28
EndSplineSet
EndChar

StartChar: gbreve
Encoding: 287 287 217
Width: 1212
GlyphClass: 2
Flags: W
LayerCount: 2
Fore
SplineSet
598 195 m 0,0,1
 660 195 660 195 702.5 217 c 128,-1,2
 745 239 745 239 768 283 c 128,-1,3
 791 327 791 327 800.5 380.5 c 128,-1,4
 810 434 810 434 811 508 c 1,5,-1
 811 536 l 2,6,7
 811 688 811 688 763.5 765 c 128,-1,8
 716 842 716 842 611 843 c 1,9,10
 491 843 491 843 433 759 c 128,-1,11
 375 675 375 675 375 526 c 0,12,13
 375 382 375 382 433 288.5 c 128,-1,14
 491 195 491 195 598 195 c 0,0,1
525 -439 m 0,15,16
 372 -439 372 -439 273 -402 c 1,17,-1
 289 -207 l 1,18,19
 307 -209 307 -209 342.5 -217.5 c 128,-1,20
 378 -226 378 -226 416.5 -231.5 c 128,-1,21
 455 -237 455 -237 500 -237 c 0,22,23
 654 -237 654 -237 731 -145 c 128,-1,24
 808 -53 808 -53 808 87 c 0,25,26
 808 130 808 130 805 156 c 1,27,28
 775 87 775 87 705.5 43.5 c 128,-1,29
 636 0 636 0 537 0 c 0,30,31
 344 0 344 0 231.5 143 c 128,-1,32
 119 286 119 286 119 519 c 0,33,34
 119 762 119 762 241 901.5 c 128,-1,35
 363 1041 363 1041 546 1041 c 0,36,37
 648 1041 648 1041 711.5 1008 c 128,-1,38
 775 975 775 975 816 893 c 1,39,-1
 829 1017 l 1,40,-1
 1056 1017 l 1,41,-1
 1056 185 l 2,42,43
 1056 77 1056 77 1037.5 -15 c 128,-1,44
 1019 -107 1019 -107 978 -186 c 128,-1,45
 937 -265 937 -265 876 -320.5 c 128,-1,46
 815 -376 815 -376 725.5 -407.5 c 128,-1,47
 636 -439 636 -439 525 -439 c 0,15,16
856 1406 m 1,48,49
 856 1286 856 1286 781.5 1224.5 c 128,-1,50
 707 1163 707 1163 586 1163 c 0,51,52
 466 1163 466 1163 392 1225 c 128,-1,53
 318 1287 318 1287 318 1406 c 1,54,-1
 486 1406 l 1,55,56
 486 1360 486 1360 508.5 1340.5 c 128,-1,57
 531 1321 531 1321 586 1321 c 128,-1,58
 641 1321 641 1321 664.5 1340.5 c 128,-1,59
 688 1360 688 1360 688 1406 c 1,60,-1
 856 1406 l 1,48,49
EndSplineSet
EndChar

StartChar: Gdotaccent
Encoding: 288 288 218
Width: 1391
GlyphClass: 2
Flags: W
LayerCount: 2
Fore
SplineSet
778 -18 m 0,0,1
 479 -18 479 -18 305.5 167.5 c 128,-1,2
 132 353 132 353 132 672 c 0,3,4
 132 996 132 996 309.5 1176.5 c 128,-1,5
 487 1357 487 1357 804 1357 c 0,6,7
 1015 1357 1015 1357 1223 1253 c 1,8,-1
 1134 1042 l 1,9,10
 971 1122 971 1122 809 1129 c 1,11,12
 616 1136 616 1136 518 1015.5 c 128,-1,13
 420 895 420 895 420 670 c 0,14,15
 420 449 420 449 511 331 c 128,-1,16
 602 213 602 213 789 213 c 0,17,18
 906 213 906 213 994 245 c 1,19,-1
 994 519 l 1,20,-1
 725 519 l 1,21,-1
 725 727 l 1,22,-1
 1241 727 l 1,23,-1
 1241 82 l 1,24,25
 1124 31 1124 31 1017 6.5 c 128,-1,26
 910 -18 910 -18 778 -18 c 0,0,1
588 1479 m 1,27,-1
 588 1691 l 1,28,-1
 786 1691 l 1,29,-1
 786 1479 l 1,30,-1
 588 1479 l 1,27,-1
EndSplineSet
EndChar

StartChar: gdotaccent
Encoding: 289 289 219
Width: 1212
GlyphClass: 2
Flags: W
LayerCount: 2
Fore
SplineSet
598 195 m 0,0,1
 660 195 660 195 702.5 217 c 128,-1,2
 745 239 745 239 768 283 c 128,-1,3
 791 327 791 327 800.5 380.5 c 128,-1,4
 810 434 810 434 811 508 c 1,5,-1
 811 536 l 2,6,7
 811 688 811 688 763.5 765 c 128,-1,8
 716 842 716 842 611 843 c 1,9,10
 491 843 491 843 433 759 c 128,-1,11
 375 675 375 675 375 526 c 0,12,13
 375 382 375 382 433 288.5 c 128,-1,14
 491 195 491 195 598 195 c 0,0,1
525 -439 m 0,15,16
 372 -439 372 -439 273 -402 c 1,17,-1
 289 -207 l 1,18,19
 307 -209 307 -209 342.5 -217.5 c 128,-1,20
 378 -226 378 -226 416.5 -231.5 c 128,-1,21
 455 -237 455 -237 500 -237 c 0,22,23
 654 -237 654 -237 731 -145 c 128,-1,24
 808 -53 808 -53 808 87 c 0,25,26
 808 130 808 130 805 156 c 1,27,28
 775 87 775 87 705.5 43.5 c 128,-1,29
 636 0 636 0 537 0 c 0,30,31
 344 0 344 0 231.5 143 c 128,-1,32
 119 286 119 286 119 519 c 0,33,34
 119 762 119 762 241 901.5 c 128,-1,35
 363 1041 363 1041 546 1041 c 0,36,37
 648 1041 648 1041 711.5 1008 c 128,-1,38
 775 975 775 975 816 893 c 1,39,-1
 829 1017 l 1,40,-1
 1056 1017 l 1,41,-1
 1056 185 l 2,42,43
 1056 77 1056 77 1037.5 -15 c 128,-1,44
 1019 -107 1019 -107 978 -186 c 128,-1,45
 937 -265 937 -265 876 -320.5 c 128,-1,46
 815 -376 815 -376 725.5 -407.5 c 128,-1,47
 636 -439 636 -439 525 -439 c 0,15,16
488 1163 m 1,48,-1
 488 1375 l 1,49,-1
 686 1375 l 1,50,-1
 686 1163 l 1,51,-1
 488 1163 l 1,48,-1
EndSplineSet
EndChar

StartChar: Gcommaaccent
Encoding: 290 290 220
Width: 1391
GlyphClass: 2
Flags: W
LayerCount: 2
Fore
SplineSet
778 -18 m 0,0,1
 479 -18 479 -18 305.5 167.5 c 128,-1,2
 132 353 132 353 132 672 c 0,3,4
 132 996 132 996 309.5 1176.5 c 128,-1,5
 487 1357 487 1357 804 1357 c 0,6,7
 1015 1357 1015 1357 1223 1253 c 1,8,-1
 1134 1042 l 1,9,10
 971 1122 971 1122 809 1129 c 1,11,12
 616 1136 616 1136 518 1015.5 c 128,-1,13
 420 895 420 895 420 670 c 0,14,15
 420 449 420 449 511 331 c 128,-1,16
 602 213 602 213 789 213 c 0,17,18
 906 213 906 213 994 245 c 1,19,-1
 994 519 l 1,20,-1
 725 519 l 1,21,-1
 725 727 l 1,22,-1
 1241 727 l 1,23,-1
 1241 82 l 1,24,25
 1124 31 1124 31 1017 6.5 c 128,-1,26
 910 -18 910 -18 778 -18 c 0,0,1
525 -619 m 1,27,-1
 626 -140 l 1,28,-1
 848 -140 l 1,29,-1
 693 -619 l 1,30,-1
 525 -619 l 1,27,-1
EndSplineSet
EndChar

StartChar: gcommaaccent
Encoding: 291 291 221
Width: 1120
GlyphClass: 2
Flags: W
LayerCount: 2
Fore
SplineSet
707 1577 m 1,0,-1
 606 1098 l 1,1,-1
 388 1098 l 1,2,-1
 540 1577 l 1,3,-1
 707 1577 l 1,0,-1
559 195 m 0,4,5
 786 195 786 195 789 508 c 1,6,-1
 789 536 l 2,7,8
 789 684 789 684 734 763 c 128,-1,9
 679 842 679 842 572 843 c 1,10,11
 451 843 451 843 389 758 c 128,-1,12
 327 673 327 673 327 526 c 0,13,14
 327 383 327 383 389 289 c 128,-1,15
 451 195 451 195 559 195 c 0,4,5
516 -439 m 0,16,17
 492 -439 492 -439 468 -438 c 128,-1,18
 444 -437 444 -437 423.5 -435 c 128,-1,19
 403 -433 403 -433 383 -430.5 c 128,-1,20
 363 -428 363 -428 346.5 -425 c 128,-1,21
 330 -422 330 -422 315.5 -419 c 128,-1,22
 301 -416 301 -416 290 -413.5 c 128,-1,23
 279 -411 279 -411 271.5 -409 c 128,-1,24
 264 -407 264 -407 260 -406 c 2,25,-1
 255 -405 l 1,26,-1
 248 -402 l 1,27,-1
 264 -207 l 1,28,-1
 275 -209 l 1,29,30
 393 -237 393 -237 491 -237 c 0,31,32
 570 -237 570 -237 628.5 -211 c 128,-1,33
 687 -185 687 -185 720.5 -139 c 128,-1,34
 754 -93 754 -93 770 -36.5 c 128,-1,35
 786 20 786 20 786 87 c 0,36,37
 786 110 786 110 783 136 c 1,38,39
 751 78 751 78 685 39 c 128,-1,40
 619 0 619 0 523 0 c 0,41,42
 327 0 327 0 199.5 145.5 c 128,-1,43
 72 291 72 291 72 519 c 0,44,45
 72 641 72 641 107.5 741.5 c 128,-1,46
 143 842 143 842 203.5 906.5 c 128,-1,47
 264 971 264 971 343 1006 c 128,-1,48
 422 1041 422 1041 511 1041 c 0,49,50
 705 1041 705 1041 793 903 c 1,51,-1
 807 1017 l 1,52,-1
 1034 1017 l 1,53,-1
 1034 185 l 2,54,55
 1034 49 1034 49 1006 -61 c 128,-1,56
 978 -171 978 -171 918.5 -257.5 c 128,-1,57
 859 -344 859 -344 756.5 -391.5 c 128,-1,58
 654 -439 654 -439 516 -439 c 0,16,17
EndSplineSet
EndChar

StartChar: Hcircumflex
Encoding: 292 292 222
Width: 1547
GlyphClass: 2
Flags: W
LayerCount: 2
Fore
SplineSet
490 793 m 1,0,-1
 1057 793 l 1,1,-1
 1057 1336 l 1,2,-1
 1345 1336 l 1,3,-1
 1345 0 l 1,4,-1
 1057 0 l 1,5,-1
 1057 578 l 1,6,-1
 490 578 l 1,7,-1
 490 0 l 1,8,-1
 202 0 l 1,9,-1
 202 1336 l 1,10,-1
 490 1336 l 1,11,-1
 490 793 l 1,0,-1
440 1479 m 1,12,-1
 675 1847 l 1,13,-1
 871 1847 l 1,14,-1
 1107 1479 l 1,15,-1
 921 1479 l 1,16,-1
 763 1673 l 1,17,-1
 621 1479 l 1,18,-1
 440 1479 l 1,12,-1
EndSplineSet
EndChar

StartChar: hcircumflex
Encoding: 293 293 223
Width: 1200
GlyphClass: 2
Flags: W
LayerCount: 2
Fore
SplineSet
159 1376 m 1,0,-1
 415 1393 l 1,1,-1
 415 1102 l 2,2,3
 415 1100 415 1100 408 918 c 1,4,5
 525 1041 525 1041 704 1041 c 0,6,7
 870 1041 870 1041 963.5 942 c 128,-1,8
 1057 843 1057 843 1057 641 c 2,9,-1
 1057 0 l 1,10,-1
 801 0 l 1,11,-1
 801 618 l 2,12,13
 801 738 801 738 767 791 c 128,-1,14
 733 844 733 844 648 844 c 0,15,16
 592 844 592 844 550.5 827 c 128,-1,17
 509 810 509 810 483 780 c 128,-1,18
 457 750 457 750 441 704.5 c 128,-1,19
 425 659 425 659 418.5 608 c 128,-1,20
 412 557 412 557 412 491 c 2,21,-1
 412 0 l 1,22,-1
 159 0 l 1,23,-1
 159 1376 l 1,0,-1
274 1515 m 1,24,-1
 510 1883 l 1,25,-1
 706 1883 l 1,26,-1
 942 1515 l 1,27,-1
 756 1515 l 1,28,-1
 598 1709 l 1,29,-1
 456 1515 l 1,30,-1
 274 1515 l 1,24,-1
EndSplineSet
EndChar

StartChar: Hbar
Encoding: 294 294 224
Width: 1311
GlyphClass: 2
Flags: W
LayerCount: 2
Fore
SplineSet
110 1205 m 1,0,-1
 110 1335 l 1,1,-1
 367 1335 l 1,2,-1
 367 1205 l 1,3,-1
 962 1205 l 1,4,-1
 962 1335 l 1,5,-1
 1220 1335 l 1,6,-1
 1220 1205 l 1,7,-1
 1295 1205 l 1,8,-1
 1295 1068 l 1,9,-1
 1220 1068 l 1,10,-1
 1220 0 l 1,11,-1
 962 0 l 1,12,-1
 962 595 l 1,13,-1
 367 595 l 1,14,-1
 367 0 l 1,15,-1
 110 0 l 1,16,-1
 110 1068 l 1,17,-1
 35 1068 l 1,18,-1
 35 1205 l 1,19,-1
 110 1205 l 1,0,-1
367 788 m 1,20,-1
 962 788 l 1,21,-1
 962 1068 l 1,22,-1
 367 1068 l 1,23,-1
 367 788 l 1,20,-1
EndSplineSet
EndChar

StartChar: hbar
Encoding: 295 295 225
Width: 1042
GlyphClass: 2
Flags: W
LayerCount: 2
Fore
SplineSet
89 1249 m 1,0,-1
 89 1369 l 1,1,-1
 335 1387 l 1,2,-1
 335 1249 l 1,3,-1
 595 1249 l 1,4,-1
 595 1108 l 1,5,-1
 335 1108 l 1,6,-1
 335 918 l 1,7,8
 456 1034 456 1034 641 1034 c 0,9,10
 715 1034 715 1034 775 1011 c 128,-1,11
 835 988 835 988 882 940 c 128,-1,12
 929 892 929 892 954.5 809.5 c 128,-1,13
 980 727 980 727 980 615 c 2,14,-1
 980 0 l 1,15,-1
 734 0 l 1,16,-1
 734 605 l 2,17,18
 734 736 734 736 703.5 790 c 128,-1,19
 673 844 673 844 586 844 c 0,20,21
 505 844 505 844 436.5 798.5 c 128,-1,22
 368 753 368 753 335 686 c 1,23,-1
 335 0 l 1,24,-1
 89 0 l 1,25,-1
 89 1108 l 1,26,-1
 -1 1108 l 1,27,-1
 -1 1249 l 1,28,-1
 89 1249 l 1,0,-1
EndSplineSet
EndChar

StartChar: Itilde
Encoding: 296 296 226
Width: 692
GlyphClass: 2
Flags: W
LayerCount: 2
Fore
SplineSet
202 0 m 1,0,-1
 202 1336 l 1,1,-1
 490 1336 l 1,2,-1
 490 0 l 1,3,-1
 202 0 l 1,0,-1
30 1489 m 1,4,5
 30 1523 30 1523 32.5 1550 c 128,-1,6
 35 1577 35 1577 44.5 1610.5 c 128,-1,7
 54 1644 54 1644 70.5 1667 c 128,-1,8
 87 1690 87 1690 118.5 1705.5 c 128,-1,9
 150 1721 150 1721 192 1721 c 0,10,11
 245 1721 245 1721 310 1699.5 c 128,-1,12
 375 1678 375 1678 422.5 1657 c 128,-1,13
 470 1636 470 1636 480 1636 c 0,14,15
 489 1636 489 1636 497 1657.5 c 128,-1,16
 505 1679 505 1679 508 1700 c 2,17,-1
 512 1721 l 1,18,-1
 662 1721 l 1,19,20
 662 1711 662 1711 660 1695 c 128,-1,21
 658 1679 658 1679 648.5 1637 c 128,-1,22
 639 1595 639 1595 624 1563 c 128,-1,23
 609 1531 609 1531 577 1505 c 128,-1,24
 545 1479 545 1479 504 1479 c 0,25,26
 448 1479 448 1479 341.5 1524 c 128,-1,27
 235 1569 235 1569 212 1569 c 0,28,29
 203 1569 203 1569 194.5 1546.5 c 128,-1,30
 186 1524 186 1524 182 1502 c 2,31,-1
 178 1479 l 1,32,-1
 30 1489 l 1,4,5
EndSplineSet
EndChar

StartChar: itilde
Encoding: 297 297 227
Width: 480
GlyphClass: 2
Flags: W
LayerCount: 2
Fore
SplineSet
109 0 m 1,0,-1
 109 1016 l 1,1,-1
 356 1016 l 1,2,-1
 356 0 l 1,3,-1
 109 0 l 1,0,-1
-83 1173 m 1,4,5
 -83 1207 -83 1207 -80.5 1234 c 128,-1,6
 -78 1261 -78 1261 -68.5 1294.5 c 128,-1,7
 -59 1328 -59 1328 -42.5 1351 c 128,-1,8
 -26 1374 -26 1374 5.5 1389.5 c 128,-1,9
 37 1405 37 1405 79 1405 c 0,10,11
 132 1405 132 1405 196.5 1383.5 c 128,-1,12
 261 1362 261 1362 308.5 1341 c 128,-1,13
 356 1320 356 1320 366 1320 c 0,14,15
 375 1320 375 1320 383 1341.5 c 128,-1,16
 391 1363 391 1363 394 1384 c 2,17,-1
 398 1405 l 1,18,-1
 548 1405 l 1,19,20
 548 1395 548 1395 546 1379 c 128,-1,21
 544 1363 544 1363 534.5 1321 c 128,-1,22
 525 1279 525 1279 510 1247 c 128,-1,23
 495 1215 495 1215 463 1189 c 128,-1,24
 431 1163 431 1163 390 1163 c 0,25,26
 334 1163 334 1163 228 1208 c 128,-1,27
 122 1253 122 1253 99 1253 c 0,28,29
 90 1253 90 1253 81 1230.5 c 128,-1,30
 72 1208 72 1208 68 1186 c 2,31,-1
 64 1163 l 1,32,-1
 -83 1173 l 1,4,5
EndSplineSet
EndChar

StartChar: Imacron
Encoding: 298 298 228
Width: 692
GlyphClass: 2
Flags: W
LayerCount: 2
Fore
SplineSet
202 0 m 1,0,-1
 202 1336 l 1,1,-1
 490 1336 l 1,2,-1
 490 0 l 1,3,-1
 202 0 l 1,0,-1
22 1479 m 1,4,-1
 22 1638 l 1,5,-1
 670 1638 l 1,6,-1
 670 1479 l 1,7,-1
 22 1479 l 1,4,-1
EndSplineSet
EndChar

StartChar: imacron
Encoding: 299 299 229
Width: 480
GlyphClass: 2
Flags: W
LayerCount: 2
Fore
SplineSet
109 0 m 1,0,-1
 109 1016 l 1,1,-1
 356 1016 l 1,2,-1
 356 0 l 1,3,-1
 109 0 l 1,0,-1
-92 1163 m 1,4,-1
 -92 1322 l 1,5,-1
 557 1322 l 1,6,-1
 557 1163 l 1,7,-1
 -92 1163 l 1,4,-1
EndSplineSet
EndChar

StartChar: Ibreve
Encoding: 300 300 230
Width: 692
GlyphClass: 2
Flags: W
LayerCount: 2
Fore
SplineSet
202 0 m 1,0,-1
 202 1336 l 1,1,-1
 490 1336 l 1,2,-1
 490 0 l 1,3,-1
 202 0 l 1,0,-1
615 1722 m 1,4,5
 615 1602 615 1602 540.5 1540.5 c 128,-1,6
 466 1479 466 1479 345 1479 c 0,7,8
 225 1479 225 1479 151 1541 c 128,-1,9
 77 1603 77 1603 77 1722 c 1,10,-1
 245 1722 l 1,11,12
 245 1676 245 1676 267.5 1656.5 c 128,-1,13
 290 1637 290 1637 345 1637 c 128,-1,14
 400 1637 400 1637 423 1656.5 c 128,-1,15
 446 1676 446 1676 446 1722 c 1,16,-1
 615 1722 l 1,4,5
EndSplineSet
EndChar

StartChar: ibreve
Encoding: 301 301 231
Width: 480
GlyphClass: 2
Flags: W
LayerCount: 2
Fore
SplineSet
109 0 m 1,0,-1
 109 1016 l 1,1,-1
 356 1016 l 1,2,-1
 356 0 l 1,3,-1
 109 0 l 1,0,-1
502 1406 m 1,4,5
 502 1286 502 1286 427.5 1224.5 c 128,-1,6
 353 1163 353 1163 232 1163 c 0,7,8
 112 1163 112 1163 38 1225 c 128,-1,9
 -36 1287 -36 1287 -36 1406 c 1,10,-1
 132 1406 l 1,11,12
 132 1360 132 1360 154.5 1340.5 c 128,-1,13
 177 1321 177 1321 232 1321 c 128,-1,14
 287 1321 287 1321 309.5 1340.5 c 128,-1,15
 332 1360 332 1360 332 1406 c 1,16,-1
 502 1406 l 1,4,5
EndSplineSet
EndChar

StartChar: Iogonek
Encoding: 302 302 232
Width: 692
GlyphClass: 2
Flags: W
LayerCount: 2
Fore
SplineSet
314 -393 m 0,0,1
 231 -393 231 -393 174.5 -349.5 c 128,-1,2
 118 -306 118 -306 118 -225 c 0,3,4
 118 -96 118 -96 270 0 c 1,5,-1
 202 0 l 1,6,-1
 202 1336 l 1,7,-1
 490 1336 l 1,8,-1
 490 0 l 1,9,-1
 383 0 l 1,10,-1
 400 -2 l 1,11,12
 294 -84 294 -84 294 -178 c 0,13,14
 294 -205 294 -205 312.5 -226 c 128,-1,15
 331 -247 331 -247 358 -247 c 0,16,17
 406 -247 406 -247 480 -216 c 1,18,-1
 488 -357 l 1,19,20
 394 -393 394 -393 314 -393 c 0,0,1
EndSplineSet
EndChar

StartChar: iogonek
Encoding: 303 303 233
Width: 574
GlyphClass: 2
Flags: W
LayerCount: 2
Fore
SplineSet
159 1157 m 1,0,-1
 159 1375 l 1,1,-1
 415 1375 l 1,2,-1
 415 1157 l 1,3,-1
 159 1157 l 1,0,-1
254 -393 m 0,4,5
 171 -393 171 -393 115.5 -349.5 c 128,-1,6
 60 -306 60 -306 60 -225 c 0,7,8
 60 -95 60 -95 211 0 c 1,9,-1
 159 0 l 1,10,-1
 159 1016 l 1,11,-1
 415 1016 l 1,12,-1
 415 0 l 1,13,-1
 324 0 l 1,14,-1
 340 -2 l 1,15,16
 234 -84 234 -84 234 -178 c 0,17,18
 234 -205 234 -205 252.5 -226 c 128,-1,19
 271 -247 271 -247 298 -247 c 0,20,21
 348 -247 348 -247 422 -216 c 1,22,-1
 430 -357 l 1,23,24
 336 -393 336 -393 254 -393 c 0,4,5
EndSplineSet
EndChar

StartChar: Idotaccent
Encoding: 304 304 234
Width: 692
GlyphClass: 2
Flags: W
LayerCount: 2
Fore
SplineSet
202 0 m 1,0,-1
 202 1336 l 1,1,-1
 490 1336 l 1,2,-1
 490 0 l 1,3,-1
 202 0 l 1,0,-1
247 1479 m 1,4,-1
 247 1691 l 1,5,-1
 445 1691 l 1,6,-1
 445 1479 l 1,7,-1
 247 1479 l 1,4,-1
EndSplineSet
EndChar

StartChar: dotlessi
Encoding: 305 305 235
Width: 480
GlyphClass: 2
Flags: W
LayerCount: 2
Fore
SplineSet
109 0 m 1,0,-1
 109 1016 l 1,1,-1
 356 1016 l 1,2,-1
 356 0 l 1,3,-1
 109 0 l 1,0,-1
EndSplineSet
EndChar

StartChar: IJ
Encoding: 306 306 236
Width: 1083
GlyphClass: 2
Flags: W
LayerCount: 2
Fore
SplineSet
130 0 m 1,0,-1
 130 1342 l 1,1,-1
 418 1342 l 1,2,-1
 418 0 l 1,3,-1
 130 0 l 1,0,-1
501 -285 m 1,4,-1
 489 -75 l 1,5,6
 539 -84 539 -84 592 -84 c 0,7,8
 687 -84 687 -84 719 -37 c 128,-1,9
 751 10 751 10 751 126 c 2,10,-1
 751 1342 l 1,11,-1
 1039 1342 l 1,12,-1
 1039 144 l 2,13,14
 1039 -81 1039 -81 933.5 -187 c 128,-1,15
 828 -293 828 -293 594 -293 c 0,16,17
 536 -293 536 -293 501 -285 c 1,4,-1
EndSplineSet
EndChar

StartChar: ij
Encoding: 307 307 237
Width: 908
GlyphClass: 2
Flags: W
LayerCount: 2
Fore
SplineSet
851 1139 m 1,0,-1
 598 1139 l 1,1,-1
 598 1357 l 1,2,-1
 851 1357 l 1,3,-1
 851 1139 l 1,0,-1
130 1139 m 1,4,-1
 130 1357 l 1,5,-1
 384 1357 l 1,6,-1
 384 1139 l 1,7,-1
 130 1139 l 1,4,-1
471 -379 m 2,8,-1
 411 -379 l 1,9,-1
 382 -187 l 1,10,-1
 444 -187 l 2,11,12
 487 -187 487 -187 514 -181.5 c 128,-1,13
 541 -176 541 -176 558.5 -165 c 128,-1,14
 576 -154 576 -154 584.5 -130.5 c 128,-1,15
 593 -107 593 -107 595.5 -79.5 c 128,-1,16
 598 -52 598 -52 598 -4 c 2,17,-1
 598 1017 l 1,18,-1
 851 1017 l 1,19,-1
 851 40 l 2,20,21
 851 -49 851 -49 842 -111.5 c 128,-1,22
 833 -174 833 -174 809 -227.5 c 128,-1,23
 785 -281 785 -281 742.5 -312.5 c 128,-1,24
 700 -344 700 -344 633 -361.5 c 128,-1,25
 566 -379 566 -379 471 -379 c 2,8,-1
130 0 m 1,26,-1
 130 1017 l 1,27,-1
 384 1017 l 1,28,-1
 384 0 l 1,29,-1
 130 0 l 1,26,-1
EndSplineSet
EndChar

StartChar: Jcircumflex
Encoding: 308 308 238
Width: 780
GlyphClass: 2
Flags: W
LayerCount: 2
Fore
SplineSet
40 -285 m 1,0,-1
 28 -75 l 1,1,2
 167 -70 167 -70 228.5 -25.5 c 128,-1,3
 290 19 290 19 290 126 c 2,4,-1
 290 1336 l 1,5,-1
 578 1336 l 1,6,-1
 578 144 l 2,7,8
 578 -76 578 -76 446 -179.5 c 128,-1,9
 314 -283 314 -283 40 -285 c 1,0,-1
-30 1479 m 1,10,-1
 204 1847 l 1,11,-1
 400 1847 l 1,12,-1
 636 1479 l 1,13,-1
 450 1479 l 1,14,-1
 292 1673 l 1,15,-1
 150 1479 l 1,16,-1
 -30 1479 l 1,10,-1
EndSplineSet
EndChar

StartChar: jcircumflex
Encoding: 309 309 239
Width: 461
GlyphClass: 2
Flags: W
LayerCount: 2
Fore
SplineSet
-39 -322 m 1,0,-1
 -44 -127 l 1,1,-1
 -3 -127 l 2,2,3
 50 -127 50 -127 79.5 -119.5 c 128,-1,4
 109 -112 109 -112 125 -87.5 c 128,-1,5
 141 -63 141 -63 144.5 -32 c 128,-1,6
 148 -1 148 -1 148 61 c 2,7,-1
 148 988 l 1,8,-1
 379 988 l 1,9,-1
 379 99 l 2,10,11
 379 -13 379 -13 363.5 -87 c 128,-1,12
 348 -161 348 -161 307 -216.5 c 128,-1,13
 266 -272 266 -272 192.5 -297 c 128,-1,14
 119 -322 119 -322 6 -322 c 2,15,-1
 -39 -322 l 1,0,-1
-166 1163 m 1,16,-1
 69 1531 l 1,17,-1
 265 1531 l 1,18,-1
 501 1163 l 1,19,-1
 315 1163 l 1,20,-1
 157 1357 l 1,21,-1
 15 1163 l 1,22,-1
 -166 1163 l 1,16,-1
EndSplineSet
EndChar

StartChar: Kcommaaccent
Encoding: 310 310 240
Width: 1361
GlyphClass: 2
Flags: W
LayerCount: 2
Fore
SplineSet
958 1336 m 1,0,-1
 1290 1336 l 1,1,-1
 798 732 l 1,2,-1
 1300 0 l 1,3,-1
 974 0 l 1,4,-1
 561 611 l 1,5,-1
 490 537 l 1,6,-1
 490 0 l 1,7,-1
 202 0 l 1,8,-1
 202 1336 l 1,9,-1
 490 1336 l 1,10,-1
 490 775 l 1,11,-1
 958 1336 l 1,0,-1
590 -601 m 1,12,-1
 690 -122 l 1,13,-1
 912 -122 l 1,14,-1
 758 -601 l 1,15,-1
 590 -601 l 1,12,-1
EndSplineSet
EndChar

StartChar: kcommaaccent
Encoding: 311 311 241
Width: 1158
GlyphClass: 2
Flags: W
LayerCount: 2
Fore
SplineSet
159 1376 m 1,0,-1
 415 1392 l 1,1,-1
 415 785 l 1,2,-1
 410 582 l 1,3,-1
 772 1016 l 1,4,-1
 1095 1016 l 1,5,-1
 706 555 l 1,6,-1
 1119 0 l 1,7,-1
 818 0 l 1,8,-1
 499 432 l 1,9,-1
 415 354 l 1,10,-1
 415 0 l 1,11,-1
 159 0 l 1,12,-1
 159 1376 l 1,0,-1
478 -601 m 1,13,-1
 578 -122 l 1,14,-1
 800 -122 l 1,15,-1
 646 -601 l 1,16,-1
 478 -601 l 1,13,-1
EndSplineSet
EndChar

StartChar: Lacute
Encoding: 313 313 243
Width: 1103
GlyphClass: 2
Flags: W
LayerCount: 2
Fore
SplineSet
1023 216 m 1,0,-1
 1009 0 l 1,1,-1
 202 0 l 1,2,-1
 202 1336 l 1,3,-1
 490 1336 l 1,4,-1
 490 216 l 1,5,-1
 1023 216 l 1,0,-1
534 1479 m 1,6,-1
 694 1840 l 1,7,-1
 986 1840 l 1,8,-1
 691 1479 l 1,9,-1
 534 1479 l 1,6,-1
EndSplineSet
EndChar

StartChar: lacute
Encoding: 314 314 244
Width: 729
GlyphClass: 2
Flags: W
LayerCount: 2
Fore
SplineSet
499 -13 m 0,0,1
 416 -13 416 -13 357 4 c 128,-1,2
 298 21 298 21 259.5 52.5 c 128,-1,3
 221 84 221 84 199 136 c 128,-1,4
 177 188 177 188 168 251 c 128,-1,5
 159 314 159 314 159 401 c 2,6,-1
 159 1376 l 1,7,-1
 415 1393 l 1,8,-1
 415 404 l 2,9,10
 415 306 415 306 428.5 256.5 c 128,-1,11
 442 207 442 207 465.5 192.5 c 128,-1,12
 489 178 489 178 535 178 c 0,13,14
 552 178 552 178 584.5 182.5 c 128,-1,15
 617 187 617 187 618 187 c 2,16,-1
 649 7 l 1,17,18
 644 5 644 5 624.5 0.5 c 128,-1,19
 605 -4 605 -4 569 -8.5 c 128,-1,20
 533 -13 533 -13 499 -13 c 0,0,1
326 1515 m 1,21,-1
 486 1876 l 1,22,-1
 778 1876 l 1,23,-1
 482 1515 l 1,24,-1
 326 1515 l 1,21,-1
EndSplineSet
EndChar

StartChar: Lcommaaccent
Encoding: 315 315 245
Width: 1103
GlyphClass: 2
Flags: W
LayerCount: 2
Fore
SplineSet
1023 216 m 1,0,-1
 1009 0 l 1,1,-1
 202 0 l 1,2,-1
 202 1336 l 1,3,-1
 490 1336 l 1,4,-1
 490 216 l 1,5,-1
 1023 216 l 1,0,-1
451 -601 m 1,6,-1
 552 -122 l 1,7,-1
 774 -122 l 1,8,-1
 619 -601 l 1,9,-1
 451 -601 l 1,6,-1
EndSplineSet
EndChar

StartChar: lcommaaccent
Encoding: 316 316 246
Width: 729
GlyphClass: 2
Flags: W
LayerCount: 2
Fore
SplineSet
499 -13 m 0,0,1
 416 -13 416 -13 357 4 c 128,-1,2
 298 21 298 21 259.5 52.5 c 128,-1,3
 221 84 221 84 199 136 c 128,-1,4
 177 188 177 188 168 251 c 128,-1,5
 159 314 159 314 159 401 c 2,6,-1
 159 1376 l 1,7,-1
 415 1393 l 1,8,-1
 415 404 l 2,9,10
 415 306 415 306 428.5 256.5 c 128,-1,11
 442 207 442 207 465.5 192.5 c 128,-1,12
 489 178 489 178 535 178 c 0,13,14
 552 178 552 178 584.5 182.5 c 128,-1,15
 617 187 617 187 618 187 c 2,16,-1
 649 7 l 1,17,18
 644 5 644 5 624.5 0.5 c 128,-1,19
 605 -4 605 -4 569 -8.5 c 128,-1,20
 533 -13 533 -13 499 -13 c 0,0,1
242 -614 m 1,21,-1
 344 -135 l 1,22,-1
 566 -135 l 1,23,-1
 410 -614 l 1,24,-1
 242 -614 l 1,21,-1
EndSplineSet
EndChar

StartChar: Lcaron
Encoding: 317 317 247
Width: 1103
GlyphClass: 2
Flags: W
LayerCount: 2
Fore
SplineSet
1023 216 m 1,0,-1
 1009 0 l 1,1,-1
 202 0 l 1,2,-1
 202 1336 l 1,3,-1
 490 1336 l 1,4,-1
 490 216 l 1,5,-1
 1023 216 l 1,0,-1
1212 877 m 1,6,-1
 1206 1357 l 1,7,-1
 1408 1357 l 1,8,-1
 1357 877 l 1,9,-1
 1212 877 l 1,6,-1
EndSplineSet
EndChar

StartChar: lcaron
Encoding: 318 318 248
Width: 729
GlyphClass: 2
Flags: W
LayerCount: 2
Fore
SplineSet
499 -13 m 0,0,1
 416 -13 416 -13 357 4 c 128,-1,2
 298 21 298 21 259.5 52.5 c 128,-1,3
 221 84 221 84 199 136 c 128,-1,4
 177 188 177 188 168 251 c 128,-1,5
 159 314 159 314 159 401 c 2,6,-1
 159 1376 l 1,7,-1
 415 1393 l 1,8,-1
 415 404 l 2,9,10
 415 306 415 306 428.5 256.5 c 128,-1,11
 442 207 442 207 465.5 192.5 c 128,-1,12
 489 178 489 178 535 178 c 0,13,14
 552 178 552 178 584.5 182.5 c 128,-1,15
 617 187 617 187 618 187 c 2,16,-1
 649 7 l 1,17,18
 644 5 644 5 624.5 0.5 c 128,-1,19
 605 -4 605 -4 569 -8.5 c 128,-1,20
 533 -13 533 -13 499 -13 c 0,0,1
838 913 m 1,21,-1
 832 1393 l 1,22,-1
 1034 1393 l 1,23,-1
 983 913 l 1,24,-1
 838 913 l 1,21,-1
EndSplineSet
EndChar

StartChar: Ldot
Encoding: 319 319 249
Width: 937
GlyphClass: 2
Flags: W
LayerCount: 2
Fore
SplineSet
128 0 m 1,0,-1
 128 1342 l 1,1,-1
 416 1342 l 1,2,-1
 416 213 l 1,3,-1
 953 213 l 1,4,-1
 946 0 l 1,5,-1
 128 0 l 1,0,-1
EndSplineSet
EndChar

StartChar: Lslash
Encoding: 321 321 250
Width: 885
GlyphClass: 2
Flags: W
LayerCount: 2
Fore
SplineSet
649 1029 m 1,0,-1
 649 845 l 1,1,-1
 366 678 l 1,2,-1
 366 203 l 1,3,-1
 913 203 l 1,4,-1
 898 0 l 1,5,-1
 111 0 l 1,6,-1
 111 524 l 1,7,-1
 -24 443 l 1,8,-1
 -24 634 l 1,9,-1
 111 714 l 1,10,-1
 111 1340 l 1,11,-1
 366 1340 l 1,12,-1
 366 869 l 1,13,-1
 646 1032 l 1,14,-1
 649 1029 l 1,0,-1
EndSplineSet
EndChar

StartChar: lslash
Encoding: 322 322 251
Width: 597
GlyphClass: 2
Flags: W
LayerCount: 2
Fore
SplineSet
21 559 m 1,0,-1
 21 747 l 1,1,-1
 120 807 l 1,2,-1
 120 1368 l 1,3,-1
 365 1387 l 1,4,5
 366 1386 l 1,6,7
 366 1384 366 1384 367 1384 c 1,8,-1
 367 963 l 1,9,-1
 507 1049 l 1,10,-1
 507 859 l 1,11,-1
 367 771 l 1,12,-1
 367 404 l 2,13,14
 367 342 367 342 369 311.5 c 128,-1,15
 371 281 371 281 377.5 250 c 128,-1,16
 384 219 384 219 399.5 207 c 128,-1,17
 415 195 415 195 439.5 188 c 128,-1,18
 464 181 464 181 505 181 c 0,19,20
 518 181 518 181 595 188 c 2,21,-1
 605 189 l 1,22,-1
 621 0 l 1,23,-1
 612 -1 l 1,24,25
 480 -13 480 -13 464 -13 c 0,26,27
 378 -13 378 -13 317 5 c 128,-1,28
 256 23 256 23 217.5 55.5 c 128,-1,29
 179 88 179 88 157.5 144 c 128,-1,30
 136 200 136 200 128 265 c 128,-1,31
 120 330 120 330 120 424 c 2,32,-1
 120 619 l 1,33,-1
 21 559 l 1,0,-1
EndSplineSet
EndChar

StartChar: Nacute
Encoding: 323 323 252
Width: 1541
GlyphClass: 2
Flags: W
LayerCount: 2
Fore
SplineSet
1087 350 m 1,0,1
 1068 787 1068 787 1068 795 c 2,2,-1
 1068 1336 l 1,3,-1
 1339 1336 l 1,4,-1
 1339 0 l 1,5,-1
 1036 0 l 1,6,-1
 451 961 l 1,7,8
 479 430 479 430 479 409 c 2,9,-1
 479 0 l 1,10,-1
 202 0 l 1,11,-1
 202 1336 l 1,12,-1
 494 1336 l 1,13,-1
 1087 350 l 1,0,1
692 1479 m 1,14,-1
 852 1840 l 1,15,-1
 1144 1840 l 1,16,-1
 849 1479 l 1,17,-1
 692 1479 l 1,14,-1
EndSplineSet
EndChar

StartChar: nacute
Encoding: 324 324 253
Width: 1203
GlyphClass: 2
Flags: W
LayerCount: 2
Fore
SplineSet
159 0 m 1,0,-1
 159 1016 l 1,1,-1
 367 1016 l 1,2,-1
 391 902 l 1,3,4
 535 1041 535 1041 712 1041 c 0,5,6
 885 1041 885 1041 972.5 936.5 c 128,-1,7
 1060 832 1060 832 1060 640 c 2,8,-1
 1060 0 l 1,9,-1
 804 0 l 1,10,-1
 804 612 l 1,11,12
 803 732 803 732 770 788 c 128,-1,13
 737 844 737 844 647 844 c 0,14,15
 576 844 576 844 529 820.5 c 128,-1,16
 482 797 482 797 457.5 748.5 c 128,-1,17
 433 700 433 700 424 641.5 c 128,-1,18
 415 583 415 583 415 496 c 2,19,-1
 415 0 l 1,20,-1
 159 0 l 1,0,-1
531 1163 m 1,21,-1
 691 1524 l 1,22,-1
 983 1524 l 1,23,-1
 688 1163 l 1,24,-1
 531 1163 l 1,21,-1
EndSplineSet
EndChar

StartChar: Ncommaaccent
Encoding: 325 325 254
Width: 1541
GlyphClass: 2
Flags: W
LayerCount: 2
Fore
SplineSet
1087 350 m 1,0,1
 1068 787 1068 787 1068 795 c 2,2,-1
 1068 1336 l 1,3,-1
 1339 1336 l 1,4,-1
 1339 0 l 1,5,-1
 1036 0 l 1,6,-1
 451 961 l 1,7,8
 479 430 479 430 479 409 c 2,9,-1
 479 0 l 1,10,-1
 202 0 l 1,11,-1
 202 1336 l 1,12,-1
 494 1336 l 1,13,-1
 1087 350 l 1,0,1
609 -601 m 1,14,-1
 710 -122 l 1,15,-1
 932 -122 l 1,16,-1
 777 -601 l 1,17,-1
 609 -601 l 1,14,-1
EndSplineSet
EndChar

StartChar: ncommaaccent
Encoding: 326 326 255
Width: 1203
GlyphClass: 2
Flags: W
LayerCount: 2
Fore
SplineSet
159 0 m 1,0,-1
 159 1016 l 1,1,-1
 367 1016 l 1,2,-1
 391 902 l 1,3,4
 535 1041 535 1041 712 1041 c 0,5,6
 885 1041 885 1041 972.5 936.5 c 128,-1,7
 1060 832 1060 832 1060 640 c 2,8,-1
 1060 0 l 1,9,-1
 804 0 l 1,10,-1
 804 612 l 1,11,12
 803 732 803 732 770 788 c 128,-1,13
 737 844 737 844 647 844 c 0,14,15
 576 844 576 844 529 820.5 c 128,-1,16
 482 797 482 797 457.5 748.5 c 128,-1,17
 433 700 433 700 424 641.5 c 128,-1,18
 415 583 415 583 415 496 c 2,19,-1
 415 0 l 1,20,-1
 159 0 l 1,0,-1
448 -601 m 1,21,-1
 549 -122 l 1,22,-1
 771 -122 l 1,23,-1
 616 -601 l 1,24,-1
 448 -601 l 1,21,-1
EndSplineSet
EndChar

StartChar: Ncaron
Encoding: 327 327 256
Width: 1541
GlyphClass: 2
Flags: W
LayerCount: 2
Fore
SplineSet
1087 350 m 1,0,1
 1068 787 1068 787 1068 795 c 2,2,-1
 1068 1336 l 1,3,-1
 1339 1336 l 1,4,-1
 1339 0 l 1,5,-1
 1036 0 l 1,6,-1
 451 961 l 1,7,8
 479 430 479 430 479 409 c 2,9,-1
 479 0 l 1,10,-1
 202 0 l 1,11,-1
 202 1336 l 1,12,-1
 494 1336 l 1,13,-1
 1087 350 l 1,0,1
676 1479 m 1,14,-1
 428 1816 l 1,15,-1
 628 1816 l 1,16,-1
 758 1645 l 1,17,-1
 908 1816 l 1,18,-1
 1114 1816 l 1,19,-1
 866 1479 l 1,20,-1
 676 1479 l 1,14,-1
EndSplineSet
EndChar

StartChar: ncaron
Encoding: 328 328 257
Width: 1203
GlyphClass: 2
Flags: W
LayerCount: 2
Fore
SplineSet
159 0 m 1,0,-1
 159 1016 l 1,1,-1
 367 1016 l 1,2,-1
 391 902 l 1,3,4
 535 1041 535 1041 712 1041 c 0,5,6
 885 1041 885 1041 972.5 936.5 c 128,-1,7
 1060 832 1060 832 1060 640 c 2,8,-1
 1060 0 l 1,9,-1
 804 0 l 1,10,-1
 804 612 l 1,11,12
 803 732 803 732 770 788 c 128,-1,13
 737 844 737 844 647 844 c 0,14,15
 576 844 576 844 529 820.5 c 128,-1,16
 482 797 482 797 457.5 748.5 c 128,-1,17
 433 700 433 700 424 641.5 c 128,-1,18
 415 583 415 583 415 496 c 2,19,-1
 415 0 l 1,20,-1
 159 0 l 1,0,-1
514 1163 m 1,21,-1
 266 1500 l 1,22,-1
 468 1500 l 1,23,-1
 598 1329 l 1,24,-1
 748 1500 l 1,25,-1
 952 1500 l 1,26,-1
 704 1163 l 1,27,-1
 514 1163 l 1,21,-1
EndSplineSet
EndChar

StartChar: Eng
Encoding: 330 330 258
Width: 1246
GlyphClass: 2
Flags: W
LayerCount: 2
Fore
SplineSet
738 -305 m 0,0,1
 692 -305 692 -305 657 -301 c 1,2,-1
 637 -75 l 1,3,4
 690 -79 690 -79 742 -79 c 0,5,6
 858 -79 858 -79 893 -34.5 c 128,-1,7
 928 10 928 10 928 139 c 2,8,-1
 928 864 l 2,9,10
 928 1023 928 1023 880.5 1089 c 128,-1,11
 833 1155 833 1155 722 1155 c 0,12,13
 632 1155 632 1155 535.5 1106 c 128,-1,14
 439 1057 439 1057 384 963 c 1,15,-1
 384 0 l 1,16,-1
 96 0 l 1,17,-1
 96 1342 l 1,18,-1
 352 1342 l 1,19,-1
 374 1195 l 1,20,21
 442 1270 442 1270 557.5 1316.5 c 128,-1,22
 673 1363 673 1363 782 1363 c 0,23,24
 995 1363 995 1363 1105.5 1234 c 128,-1,25
 1216 1105 1216 1105 1216 874 c 2,26,-1
 1216 143 l 2,27,28
 1216 -81 1216 -81 1103 -193 c 128,-1,29
 990 -305 990 -305 738 -305 c 0,0,1
EndSplineSet
EndChar

StartChar: eng
Encoding: 331 331 259
Width: 1041
GlyphClass: 2
Flags: W
LayerCount: 2
Fore
SplineSet
646 -332 m 2,0,-1
 583 -332 l 1,1,-1
 557 -141 l 1,2,-1
 617 -141 l 2,3,4
 670 -141 670 -141 698.5 -134.5 c 128,-1,5
 727 -128 727 -128 743.5 -104 c 128,-1,6
 760 -80 760 -80 764 -46 c 128,-1,7
 768 -12 768 -12 768 54 c 2,8,-1
 768 612 l 1,9,10
 767 732 767 732 734 788 c 128,-1,11
 701 844 701 844 611 844 c 0,12,13
 539 844 539 844 481 807.5 c 128,-1,14
 423 771 423 771 395 713 c 1,15,16
 379 643 379 643 379 496 c 2,17,-1
 379 0 l 1,18,-1
 123 0 l 1,19,-1
 123 1016 l 1,20,-1
 331 1016 l 1,21,-1
 355 902 l 1,22,23
 499 1041 499 1041 676 1041 c 0,24,25
 849 1041 849 1041 936.5 936.5 c 128,-1,26
 1024 832 1024 832 1024 640 c 2,27,-1
 1024 101 l 2,28,29
 1024 9 1024 9 1015 -55 c 128,-1,30
 1006 -119 1006 -119 982 -174.5 c 128,-1,31
 958 -230 958 -230 916 -262.5 c 128,-1,32
 874 -295 874 -295 807 -313.5 c 128,-1,33
 740 -332 740 -332 646 -332 c 2,0,-1
EndSplineSet
EndChar

StartChar: Omacron
Encoding: 332 332 260
Width: 1566
GlyphClass: 2
Flags: W
LayerCount: 2
Fore
SplineSet
784 -18 m 128,-1,1
 486 -18 486 -18 309 165 c 128,-1,2
 132 348 132 348 132 669 c 0,3,4
 132 992 132 992 309.5 1174.5 c 128,-1,5
 487 1357 487 1357 784 1357 c 128,-1,6
 1081 1357 1081 1357 1257.5 1174.5 c 128,-1,7
 1434 992 1434 992 1434 669 c 0,8,9
 1434 348 1434 348 1258 165 c 128,-1,0
 1082 -18 1082 -18 784 -18 c 128,-1,1
784 1127 m 128,-1,11
 615 1127 615 1127 517.5 1002.5 c 128,-1,12
 420 878 420 878 420 667 c 0,13,14
 420 459 420 459 517.5 334.5 c 128,-1,15
 615 210 615 210 784 210 c 128,-1,16
 953 210 953 210 1049.5 334.5 c 128,-1,17
 1146 459 1146 459 1146 667 c 0,18,19
 1146 878 1146 878 1049.5 1002.5 c 128,-1,10
 953 1127 953 1127 784 1127 c 128,-1,11
458 1479 m 1,20,-1
 458 1638 l 1,21,-1
 1108 1638 l 1,22,-1
 1108 1479 l 1,23,-1
 458 1479 l 1,20,-1
EndSplineSet
EndChar

StartChar: omacron
Encoding: 333 333 261
Width: 1198
GlyphClass: 2
Flags: W
LayerCount: 2
Fore
SplineSet
599 -18 m 0,0,1
 378 -18 378 -18 248.5 126 c 128,-1,2
 119 270 119 270 119 512 c 0,3,4
 119 762 119 762 244 901.5 c 128,-1,5
 369 1041 369 1041 599 1041 c 0,6,7
 821 1041 821 1041 950 898 c 128,-1,8
 1079 755 1079 755 1079 512 c 0,9,10
 1079 264 1079 264 953.5 123 c 128,-1,11
 828 -18 828 -18 599 -18 c 0,0,1
599 178 m 128,-1,13
 823 178 823 178 823 512 c 0,14,15
 823 844 823 844 599 844 c 128,-1,16
 375 844 375 844 375 511 c 128,-1,12
 375 178 375 178 599 178 c 128,-1,13
274 1163 m 1,17,-1
 274 1322 l 1,18,-1
 924 1322 l 1,19,-1
 924 1163 l 1,20,-1
 274 1163 l 1,17,-1
EndSplineSet
EndChar

StartChar: Obreve
Encoding: 334 334 262
Width: 1566
GlyphClass: 2
Flags: W
LayerCount: 2
Fore
SplineSet
784 -18 m 128,-1,1
 486 -18 486 -18 309 165 c 128,-1,2
 132 348 132 348 132 669 c 0,3,4
 132 992 132 992 309.5 1174.5 c 128,-1,5
 487 1357 487 1357 784 1357 c 128,-1,6
 1081 1357 1081 1357 1257.5 1174.5 c 128,-1,7
 1434 992 1434 992 1434 669 c 0,8,9
 1434 348 1434 348 1258 165 c 128,-1,0
 1082 -18 1082 -18 784 -18 c 128,-1,1
784 1127 m 128,-1,11
 615 1127 615 1127 517.5 1002.5 c 128,-1,12
 420 878 420 878 420 667 c 0,13,14
 420 459 420 459 517.5 334.5 c 128,-1,15
 615 210 615 210 784 210 c 128,-1,16
 953 210 953 210 1049.5 334.5 c 128,-1,17
 1146 459 1146 459 1146 667 c 0,18,19
 1146 878 1146 878 1049.5 1002.5 c 128,-1,10
 953 1127 953 1127 784 1127 c 128,-1,11
1052 1722 m 1,20,21
 1052 1602 1052 1602 977.5 1540.5 c 128,-1,22
 903 1479 903 1479 782 1479 c 0,23,24
 662 1479 662 1479 588 1541 c 128,-1,25
 514 1603 514 1603 514 1722 c 1,26,-1
 682 1722 l 1,27,28
 682 1676 682 1676 704.5 1656.5 c 128,-1,29
 727 1637 727 1637 782 1637 c 128,-1,30
 837 1637 837 1637 860 1656.5 c 128,-1,31
 883 1676 883 1676 883 1722 c 1,32,-1
 1052 1722 l 1,20,21
EndSplineSet
EndChar

StartChar: obreve
Encoding: 335 335 263
Width: 1198
GlyphClass: 2
Flags: W
LayerCount: 2
Fore
SplineSet
599 -18 m 0,0,1
 378 -18 378 -18 248.5 126 c 128,-1,2
 119 270 119 270 119 512 c 0,3,4
 119 762 119 762 244 901.5 c 128,-1,5
 369 1041 369 1041 599 1041 c 0,6,7
 821 1041 821 1041 950 898 c 128,-1,8
 1079 755 1079 755 1079 512 c 0,9,10
 1079 264 1079 264 953.5 123 c 128,-1,11
 828 -18 828 -18 599 -18 c 0,0,1
599 178 m 128,-1,13
 823 178 823 178 823 512 c 0,14,15
 823 844 823 844 599 844 c 128,-1,16
 375 844 375 844 375 511 c 128,-1,12
 375 178 375 178 599 178 c 128,-1,13
868 1406 m 1,17,18
 868 1286 868 1286 793.5 1224.5 c 128,-1,19
 719 1163 719 1163 598 1163 c 0,20,21
 478 1163 478 1163 404 1225 c 128,-1,22
 330 1287 330 1287 330 1406 c 1,23,-1
 498 1406 l 1,24,25
 498 1360 498 1360 520.5 1340.5 c 128,-1,26
 543 1321 543 1321 598 1321 c 128,-1,27
 653 1321 653 1321 676 1340.5 c 128,-1,28
 699 1360 699 1360 699 1406 c 1,29,-1
 868 1406 l 1,17,18
EndSplineSet
EndChar

StartChar: Ohungarumlaut
Encoding: 336 336 264
Width: 1566
GlyphClass: 2
Flags: W
LayerCount: 2
Fore
SplineSet
784 -18 m 128,-1,1
 486 -18 486 -18 309 165 c 128,-1,2
 132 348 132 348 132 669 c 0,3,4
 132 992 132 992 309.5 1174.5 c 128,-1,5
 487 1357 487 1357 784 1357 c 128,-1,6
 1081 1357 1081 1357 1257.5 1174.5 c 128,-1,7
 1434 992 1434 992 1434 669 c 0,8,9
 1434 348 1434 348 1258 165 c 128,-1,0
 1082 -18 1082 -18 784 -18 c 128,-1,1
784 1127 m 128,-1,11
 615 1127 615 1127 517.5 1002.5 c 128,-1,12
 420 878 420 878 420 667 c 0,13,14
 420 459 420 459 517.5 334.5 c 128,-1,15
 615 210 615 210 784 210 c 128,-1,16
 953 210 953 210 1049.5 334.5 c 128,-1,17
 1146 459 1146 459 1146 667 c 0,18,19
 1146 878 1146 878 1049.5 1002.5 c 128,-1,10
 953 1127 953 1127 784 1127 c 128,-1,11
576 1479 m 1,20,-1
 808 1819 l 1,21,-1
 1034 1819 l 1,22,-1
 718 1479 l 1,23,-1
 576 1479 l 1,20,-1
850 1479 m 1,24,-1
 1086 1819 l 1,25,-1
 1316 1819 l 1,26,-1
 990 1479 l 1,27,-1
 850 1479 l 1,24,-1
EndSplineSet
EndChar

StartChar: ohungarumlaut
Encoding: 337 337 265
Width: 1198
GlyphClass: 2
Flags: W
LayerCount: 2
Fore
SplineSet
599 -18 m 0,0,1
 378 -18 378 -18 248.5 126 c 128,-1,2
 119 270 119 270 119 512 c 0,3,4
 119 762 119 762 244 901.5 c 128,-1,5
 369 1041 369 1041 599 1041 c 0,6,7
 821 1041 821 1041 950 898 c 128,-1,8
 1079 755 1079 755 1079 512 c 0,9,10
 1079 264 1079 264 953.5 123 c 128,-1,11
 828 -18 828 -18 599 -18 c 0,0,1
599 178 m 128,-1,13
 823 178 823 178 823 512 c 0,14,15
 823 844 823 844 599 844 c 128,-1,16
 375 844 375 844 375 511 c 128,-1,12
 375 178 375 178 599 178 c 128,-1,13
392 1163 m 1,17,-1
 624 1503 l 1,18,-1
 850 1503 l 1,19,-1
 534 1163 l 1,20,-1
 392 1163 l 1,17,-1
666 1163 m 1,21,-1
 902 1503 l 1,22,-1
 1132 1503 l 1,23,-1
 806 1163 l 1,24,-1
 666 1163 l 1,21,-1
EndSplineSet
EndChar

